<?xml version="1.0" encoding="utf-8"?>
<!-- Generator: Adobe Illustrator 21.1.0, SVG Export Plug-In . SVG Version: 6.00 Build 0)  -->
<svg version="1.1" id="Layer_1" xmlns="http://www.w3.org/2000/svg" xmlns:xlink="http://www.w3.org/1999/xlink" x="0px" y="0px"
	 viewBox="0 0 404.7 98.2" style="enable-background:new 0 0 404.7 98.2;" xml:space="preserve">
<style type="text/css">
	.st0{fill:#9FB0AD;}
	.st1{opacity:0.68;fill:#9FB0AD;enable-background:new    ;}
	.st2{opacity:0.7;fill:#9FB0AD;enable-background:new    ;}
</style>
<g>
	<g>
		<g>
			<path class="st0" d="M311.6,22h-22.3c-1.5,0-2.8,1.1-3.1,2.6l-9,57.1c-0.2,1.1,0.7,2.1,1.8,2.1h11.4c1.1,0,2-0.8,2.1-1.8
				l2.6-16.2c0.2-1.5,1.5-2.6,3.1-2.6h7c14.7,0,23.1-7.1,25.3-21.2c1-6.1,0-11-2.8-14.4C324.7,23.9,319.1,22,311.6,22z M314.2,42.8
				c-1.2,8-7.3,8-13.2,8h-3.4l2.4-14.9c0.1-0.9,0.9-1.6,1.8-1.6h1.5c4,0,7.8,0,9.8,2.3C314.3,38,314.6,40,314.2,42.8z"/>
			<path class="st0" d="M152.9,22h-22.2c-1.5,0-2.8,1.1-3.1,2.6l-9,57.1c-0.2,1.1,0.7,2.1,1.8,2.1h10.6c1.5,0,2.8-1.1,3.1-2.6
				l2.4-15.4c0.2-1.5,1.5-2.6,3.1-2.6h7c14.7,0,23.1-7.1,25.3-21.2c1-6.1,0-11-2.8-14.4C166,23.9,160.4,22,152.9,22z M155.5,42.8
				c-1.2,8-7.3,8-13.2,8h-3.4l2.4-14.9c0.1-0.9,0.9-1.6,1.8-1.6h1.5c4,0,7.8,0,9.8,2.3C155.6,38,155.9,40,155.5,42.8z"/>
			<path class="st0" d="M219.4,42.5h-10.7c-0.9,0-1.7,0.7-1.8,1.6l-0.5,3l-0.7-1.1c-2.3-3.3-7.4-4.5-12.6-4.5
				c-11.8,0-21.8,8.9-23.8,21.4c-1,6.2,0.4,12.2,4,16.4c3.3,3.8,7.9,5.4,13.4,5.4c9.5,0,14.8-6.1,14.8-6.1l-0.5,3
				c-0.2,1.1,0.7,2.1,1.8,2.1h9.6c1.5,0,2.8-1.1,3.1-2.6l5.8-36.5C221.4,43.6,220.6,42.5,219.4,42.5z M204.6,63.3
				c-1,6.1-5.9,10.2-12,10.2c-3.1,0-5.6-1-7.2-2.9c-1.6-1.9-2.2-4.5-1.7-7.5c1-6,5.9-10.3,11.9-10.3c3,0,5.5,1,7.1,2.9
				C204.4,57.7,205.1,60.3,204.6,63.3z"/>
			<path class="st0" d="M378.1,42.5h-10.7c-0.9,0-1.7,0.7-1.8,1.6l-0.5,3l-0.7-1.1c-2.3-3.3-7.5-4.5-12.6-4.5
				c-11.8,0-21.8,8.9-23.8,21.4c-1,6.2,0.4,12.2,4,16.4c3.3,3.8,7.9,5.4,13.4,5.4c9.5,0,14.8-6.1,14.8-6.1l-0.5,3
				c-0.2,1.1,0.7,2.1,1.8,2.1h9.6c1.5,0,2.8-1.1,3.1-2.6l5.8-36.5C380.1,43.6,379.3,42.5,378.1,42.5z M363.3,63.3
				c-1,6.1-5.9,10.2-12,10.2c-3.1,0-5.6-1-7.2-2.9c-1.6-1.9-2.2-4.5-1.7-7.5c1-6,5.9-10.3,11.9-10.3c3,0,5.5,1,7.1,2.9
				C363.1,57.7,363.8,60.3,363.3,63.3z"/>
			<path class="st0" d="M276.2,42.5h-10.7c-1,0-2,0.5-2.6,1.4l-14.8,21.8l-6.3-20.9c-0.4-1.3-1.6-2.2-3-2.2h-10.5
				c-1.3,0-2.2,1.2-1.8,2.5l11.8,34.6l-11.1,15.6c-0.9,1.2,0,2.9,1.5,2.9h10.7c1,0,2-0.5,2.5-1.3l35.6-51.4
				C278.6,44.2,277.7,42.5,276.2,42.5z"/>
			<path class="st0" d="M390.7,23.5l-9.1,58.1c-0.2,1.1,0.7,2.1,1.8,2.1h9.2c1.5,0,2.8-1.1,3.1-2.6l9-57.1c0.2-1.1-0.7-2.1-1.8-2.1
				h-10.3C391.6,22,390.8,22.6,390.7,23.5z"/>
		</g>
	</g>
</g>
<g>
	<path class="st1" d="M75,24.9c1.2-7.6,0-12.8-4.1-17.5C66.3,2.2,58.1,0,47.6,0H17.1c-2.1,0-4,1.6-4.3,3.7L0,84.3
		c-0.2,1.6,1,3,2.6,3h18.8l-1.3,8.2c-0.2,1.4,0.9,2.6,2.3,2.6h15.9c1.9,0,3.5-1.4,3.8-3.2l0.2-0.8l3-19l0.2-1
		c0.3-1.9,1.9-3.2,3.8-3.2h2.4c15.4,0,27.4-6.2,30.9-24.3c1.5-7.6,0.7-13.9-3.2-18.3C78.2,27,76.7,25.8,75,24.9L75,24.9"/>
	<path class="st2" d="M75,24.9c1.2-7.6,0-12.8-4.1-17.5C66.3,2.2,58.1,0,47.6,0H17.1c-2.1,0-4,1.6-4.3,3.7L0,84.3
		c-0.2,1.6,1,3,2.6,3h18.8l4.7-30L26,58.2c0.3-2.1,2.1-3.7,4.3-3.7h9c17.6,0,31.4-7.1,35.4-27.8C74.8,26.1,74.9,25.5,75,24.9"/>
	<path class="st0" d="M31.3,25c0.2-1.3,1-2.3,2.1-2.9c0.5-0.2,1.1-0.4,1.6-0.4H59c2.8,0,5.5,0.2,7.9,0.6c0.7,0.1,1.4,0.2,2,0.4
		c0.7,0.1,1.3,0.3,1.9,0.5c0.3,0.1,0.6,0.2,0.9,0.3c1.2,0.4,2.3,0.9,3.3,1.4c1.2-7.6,0-12.8-4.1-17.5C66.3,2.2,58.1,0,47.6,0H17.1
		c-2.1,0-4,1.6-4.3,3.7L0,84.3c-0.2,1.6,1,3,2.6,3h18.8l4.7-30L31.3,25z"/>
</g>
</svg>
