<svg id="africa" xmlns="http://www.w3.org/2000/svg" xmlns:xlink="http://www.w3.org/1999/xlink" viewBox="0 0 544.3 581.42"><defs><style>.cls-1{fill:url(#linear-gradient);}.cls-2{fill:#6d7584;stroke:#6d7584;stroke-miterlimit:10;}</style><linearGradient id="linear-gradient" x1="57.14" y1="74.22" x2="540.18" y2="479.53" gradientUnits="userSpaceOnUse"><stop offset="0.01" stop-color="#0b0e10"/><stop offset="0.33" stop-color="#14171b"/><stop offset="1" stop-color="#24262e"/></linearGradient></defs><title>mapa_africa</title><path class="cls-1" d="M524,432.28c-1.29-.81-1.37-2-0.24-2.74,2-1.21,1.74-2.77,1.39-4.55a4.7,4.7,0,0,1,.52-1.59l1.76,2.2a0.91,0.91,0,0,0,.48-0.06c1.58-1.41,2.21-3.59,4.41-4.65,0.81-.39.52-2.85,1-4.3s1.16-2.85,2-4.86c3.28,3,5.23,5.37,5.37,9.33,0.23,6.65,1.21,13.27,1.83,19.91,0.1,1,0,2.08,0,3.11l-1.05.17a11.42,11.42,0,0,0-1-2.42,5.62,5.62,0,0,0-1.64-1.15,3.4,3.4,0,0,0-.8,1.4c0.32,5.69-2.74,10.36-4.26,15.5-5.65,19-15.37,36.16-23.53,54a58.46,58.46,0,0,0-2.75,6.18c-0.91,2.81-3,3.39-5.36,3a8.05,8.05,0,0,0-6.74,1.76c-1.68,1.31-3.31,1.62-5.07,0-0.79-.72-1.91-1.06-2.77-1.72-3.69-2.83-5.4-6.47-4.51-11.2,0.69-3.68,1-7.2-1.86-10.44-1.67-1.88.87-10.41,3.6-12.49,3.53-2.69,5.34-6.56,7.44-10.19a12.69,12.69,0,0,0,1.15-5.83,46.34,46.34,0,0,0-.55-8.12c-0.39-2.52-1.19-5-1.94-8,0.8-1.15,2.2-3,3.36-4.92a52.85,52.85,0,0,0,2.32-4.87l5.7-1.63-0.05.34a7.67,7.67,0,0,0,2.42-.3c1.56-.75,3-1.72,4.57-2.3,1.48,0.64.33,4.8,3.66,2.37l-1.71-2.9a18.23,18.23,0,0,1,4.19-2.31c0.58-.15,1.57,1.27,2.91,1.87-2.12-3.88,1.25-5.37,2.66-7.62H524ZM303.76,45.83c-4.21,3.42-5,4.36-3.19,9.49,0.79,2.27-.32,5.49-2.54,7.23-2,1.57-4.43,1.87-6.18.19-2.92-2.78-6.58-3.27-10.13-4.24s-6.91-1.63-10.21-2.85c-2.57-.95-5.07-2.62-4.71-5.86,0.22-1.95-.56-2.47-2-2.89-6-1.69-11.77-3.79-18.24-3.72-4.47,0-9.28-1.09-10.62-6.84-0.44-1.87-1.78-2-3.2-.92-1.79,1.37-3,1.08-3.85-1.32l2.62-2.3A72.3,72.3,0,0,0,236.89,27a5,5,0,0,0-.46-7.23c-3.16-2.64-3.15-3.37.12-5.64,2.48-1.72,2.47-2.82-.1-4.89l-2.62,1.63c-0.91-1-1.54-2.36-2.49-2.65-3.23-1-6.54-1.7-9.49,1a3.55,3.55,0,0,1-2.52.86c-3.25-.4-6.58-0.79-9.72-1.26-3.72-.56-6.9.27-10.34,0.55-3,.25-6.13-0.33-9.15,0-7.61.74-15.2,1.63-22.76,2.76a10.32,10.32,0,0,0-5.67,2.66c-1.73,1.82-3.4,1.7-5.49,1.68-1.28,0-3.22.44-3.74,1.33-2.53,4.33-6.12,4.1-10.24,3.22a61.71,61.71,0,0,0-10.92-1.5c-3.19-.1-5.5-1.1-6.73-4-0.92-2.14-2.22-2-3.72-1a13.51,13.51,0,0,0-3.09,2.8c-2.12,2.84-4,5.89-6.14,8.68a8.56,8.56,0,0,1-3.6,2.74c-5.51,2-10.65,4.53-14.82,8.74a17.1,17.1,0,0,0-1.9,2.69,17.76,17.76,0,0,1-2,3.1c-3.16,3.07-5.49,6.89-5.16,11.1,0.45,5.88-2.5,9.29-6.63,12.3-5.15,3.76-10.53,7.08-17,8-2.26.31-3.64,1.63-5,3.59-1.88,2.81-4,5.83-6.83,7.52a17.31,17.31,0,0,0-7.29,8.8,33.19,33.19,0,0,1-3.93,6.9c-3.78,5.14-9.23,9-11.44,15.35a4.74,4.74,0,0,1-1.63,1.89c-3.88,3-5.21,7.3-5.87,11.15a27.58,27.58,0,0,1,2.15,2.24c0.43,0.58.52,1.59,1,1.89a3.91,3.91,0,0,1,1.35,5.63c-1.8,3-1.52,5.33-.77,8.71,0.91,4.12-.19,8.88-1.21,13.17-0.89,3.75-3.47,7.13-4.22,10.89a13.54,13.54,0,0,1-5.25,8.52c-1.81,1.41-2.31,2.74-.69,4.88,2.53,3.32,4.08,6.7,2,11.31-1.32,2.87-2.73,7.19,2.46,9a1.48,1.48,0,0,1,.46.68c1.41,2.47,3.34,3.68,6.35,2.43-0.13,4.37,1.08,7.74,5.55,9.13,0.52,0.16.8,1.08,1.21,1.63,1.06,1.44,2.18,2.84,3.18,4.32,1.89,2.82,4.21,5.5,5.38,8.6,1,2.7.64,5.59,2.82,8.34A40.89,40.89,0,0,0,47.51,248c2.71,2.1,5.86,3.64,8.55,5.76,6.31,5,12.26,10.42,18.76,15.11,4.21,3,9,5,14.67,3.13,5.29-1.8,10.71-3.23,16.12-4.64,2.4-.63,5-1.38,7.37-1.07a60.83,60.83,0,0,1,12.14,2.93,8.63,8.63,0,0,0,7.16-.45c4.7-2.24,9.48-4.3,14.3-6.27,2.65-1.09,6.18.21,8.1-3a2.06,2.06,0,0,1,1.32-.37c6.37-.67,12.73-1.54,19.12-1.9,5.56-.31,9.29,2.46,11.43,7.68,0.6,1.46,1.07,3,1.8,4.39,2.17,4.11,5.66,5.71,9.78,3.74,2.81-1.34,5.31-1.16,8.06-.57,2.19,0.47,4.37.8,4.68-2.54,1.64,1.25,3.41,2,4.25,3.36,1.44,2.32,3.07,3.63,5.27,3.08,0.56,1.39,1,2.47,1.44,3.54s1.54,2.34,1.43,3.43c-0.41,4.34-.81,8.75-3.45,12.51a14.42,14.42,0,0,0-1.12,2.45l1,0.05c0.15,1.35.71,2.83,0.35,4-0.69,2.32.07,3.62,2.29,4.59-2.66-.79-4-0.28-4.22,2.65a6.21,6.21,0,0,1-2,3.49c-1.26,1.26-1.29,2.29-.75,3.94A26.57,26.57,0,0,0,222.93,329a69.88,69.88,0,0,1,8,8.26c4.28,5.38,9.46,10.05,11.32,17.26,1.3,5.06,4.29,9.66,6.18,14.6,1.51,4,3.89,8,.95,12.38a2,2,0,0,0,.08,1.61c1.49,3.38,3.07,6.73,4.58,10.1a4.58,4.58,0,0,1,.68,2.26q-0.91,5.65-2.13,11.25a3.3,3.3,0,0,1-1.39,2.18c-3.57,1.46-5.08,4.87-6.24,7.81a142.67,142.67,0,0,0-6.19,20.39,38.15,38.15,0,0,0-.52,12.22c0.31,3,1.77,6,3.08,8.8,0.88,1.9,2.53,3.44,3.58,5.29,4.58,8,9.14,16.07,13.54,24.19a12.23,12.23,0,0,1,1.38,5.27c0.18,5.67-.42,11.45,3.05,16.5a2.53,2.53,0,0,1,.32,1.06c0.6,4.22,1.28,8.43,1.73,12.67a16.11,16.11,0,0,0,4.82,10.34,35.66,35.66,0,0,1,6.4,8.06c3.88,7.12,7.47,14.42,10.84,21.8,1,2.08.85,4.68,1,7.06a2,2,0,0,1-1.25,1.53c-2.44.43-2,1.64-1.12,3.18a21,21,0,0,1,1.65,3.24,17.29,17.29,0,0,0,8.74,9.44c1.67,0.85,4.61,1.41,5.83.52,2.89-2.12,5.89-1.24,8.84-1.6a17.87,17.87,0,0,0,3.65-1c1.48-.52,2.94-1.72,4.37-1.66,4.79,0.19,9.56,1,14.35,1.2,2.72,0.1,5.47-.56,8.21-0.89a0.58,0.58,0,0,0,.39-0.36c0.52-2.37,2.44-1.65,3.85-1.58a7.08,7.08,0,0,0,5.7-2.18c8-7.68,16.23-15.2,24.39-22.75,4.52-4.19,8.75-8.79,13.72-12.38a19,19,0,0,0,7.51-10.37c1.22-4.1,2.25-8.26,3.36-12.39l-0.87.09c-0.15-1.12-.67-2.37-0.34-3.32a4.47,4.47,0,0,1,2.39-2.09c3.86-1.65,7.71-3.37,11.7-4.63a11.12,11.12,0,0,0,7.54-7.54,13,13,0,0,1-.26-3.52c0.55-2.74,1.39-5.41,2.07-8.12,0.18-.71.51-1.87,0.19-2.12-2.65-2.16-1.6-5.29-2.3-7.95-0.41-1.56-.67-3.34-1.59-4.56-2-2.65-2.14-4.57.35-6.8,2.86-2.55,5.82-5,8.75-7.44a2.5,2.5,0,0,1,1.14-.66c2,1.62,2.54-.47,3.41-1.34,1.29-1.28,2.39-2.76,3.57-4.15,3.71-4.38,9.08-5.61,14.09-7.65a49.21,49.21,0,0,0,9.42-5.54c1.38-1,2.28-2.68,3.31-4.11,1.43-2,5.19-2.62,3.7-6.31,2.81-3.26,1.59-6.61.93-10.35-0.76-4.28.21-8.84,0.09-13.27a14.67,14.67,0,0,1,2.36-9.23,5.56,5.56,0,0,0-1.24-8c-2.1-1.57-3.4-3.29-3.6-5.91a7.51,7.51,0,0,0-.77-2.39,22.66,22.66,0,0,1-1.93-13.19A8.57,8.57,0,0,1,463,369c1.12-1.7.67-2.91-.63-4.14-0.75-.71-1.43-1.47-2.17-2.19-1.91-1.86-2.25-3.73-1.44-6.5,2.65-9.1,8.62-16.5,12.27-25.06A4.08,4.08,0,0,1,472.2,330c2.69-2.43,5.55-4.71,8.06-7.32,5.82-6.06,11.24-12.51,17.25-18.35,4.62-4.49,8.87-9.39,14.72-12.66,3.23-1.81,5.12-5.84,8.12-8.25,6-4.85,9.85-11.32,14.26-17.46a51.28,51.28,0,0,0,7.5-15.12,43.31,43.31,0,0,1,1.67-4.75c1.3-3,2.76-5.86,4.1-8.8,1.89-4.14,5.08-7.81,4.5-12.86a5.84,5.84,0,0,1,.68-3.78c1.86-2.57,1-5.17.67-7.81-0.08-.7-0.25-1.4-0.33-2.1-0.13-1.24.23-3.14-.43-3.61a4.3,4.3,0,0,0-5.39-.07,26.79,26.79,0,0,1-6.82,2.89c-3,1-6,1.87-9.1,2.64-2.12.53-4.32,0.75-6.47,1.19-1.09.22-2.4,0.34-3.16,1-2.2,1.94-4.72,3-7.46,2.3-3.15-.83-5.31.4-7.6,2.16a7.49,7.49,0,0,1-9.52-.38,26.19,26.19,0,0,1-2.9-3c-2-2.32-3.67-5.07-7.73-4.6a2.51,2.51,0,0,1,1.15-1c4-2.6,4.18-5.11.55-8.49-2.58-2.4-5.2-4.75-7.82-7.1-1.22-1.09-3-1.86-3.69-3.2-2.2-4.12-6.85-4.83-9.93-7.65a1,1,0,0,0-.8-0.16c-2.07.73-2.51-.72-3.13-2.17-0.78-1.82-1.86-1.95-3.45.6-2.24-5.77-4.32-11-6.3-16.23a22.24,22.24,0,0,0-11.17-12.17c-1.82-.93-2.38-2.1-2.87-4-1.63-6.29-.33-13.35-4.87-18.89a1.64,1.64,0,0,1-.15-0.82c-0.31-3.19-2.26-5.22-4.8-6.84-1.88-1.21-3.86-2.3-5.63-3.66-2.35-1.79-2.68-6.36-1.28-7.16-3.21-4.56-6.47-9.14-9.66-13.77A37.65,37.65,0,0,1,410.23,94c-2.3-4.61-6.41-8.32-7-13.83a1.7,1.7,0,0,0-.86-1c-5-2.67-5.84-8.28-8.82-12.37-0.16-.22.14-0.77,0.37-1.81,2.17,2.94,3.93,5.44,5.81,7.84a85.8,85.8,0,0,0,6.13,7.35c1.47,1.5,3.43.9,3.79-1.13,1.06-6,3.15-11.9-.9-17.76-2.13-3.08-3.43-6.72-5-10a4.76,4.76,0,0,0-.73.13c-0.41.22-.83,0.43-1.22,0.67-4.49,2.73-8.86,3.3-13.13-.49a3.3,3.3,0,0,0-2.27-.71c-5.55.56-11.27,0.62-15.91,4.46a3,3,0,0,1-1.21.69c-1.56.31-3.22,1-4.7,0.69C359,55.62,353.47,54.2,347.91,53a13.69,13.69,0,0,0-5.23-.42c-2.23.43-3.95,0.62-5.22-1.73a3.63,3.63,0,0,0-2.32-1.35c-1.72-.34-3.51-0.4-5.24-0.62-5.91-.75-6.41-3.5-8.28-4.22C314.31,41.83,308,42.42,303.76,45.83Z" transform="translate(-9.93 -7.3)"/><path class="cls-2" d="M423.07,448.33a20.18,20.18,0,0,0-2.13-2.79c-3.56-3.31-4.14-5.54-2.55-10.1a12.17,12.17,0,0,0,.61-2.71c0.41-3.84-.11-4.51-4-4.4-2.38.07-3.86-.62-4.76-2.93a2.84,2.84,0,0,0-2.51-1.15c-7.57,2.24-15.1,4.66-22.82,7.09a48.56,48.56,0,0,0,1.56,4.92,2.93,2.93,0,0,0,1.73,1.1c5.36,1.74,10.76,3.4,16.1,5.2a2.6,2.6,0,0,1,1.5,1.78,91,91,0,0,1,.35,9.18c-0.11,5.89-3.8,11.4-1.92,17.54a2.49,2.49,0,0,1-.26,1.63c-1.9,3.94-3,8.8-6,11.57-5.32,4.9-6,10.34-5,16.7a8.54,8.54,0,0,1,0,1.12c0.2,6.81.38,13.61,0.6,20.42a4.53,4.53,0,0,0,.4,2.17,2.78,2.78,0,0,0,1.79,1.26,7.08,7.08,0,0,0,2.44-.72,2.89,2.89,0,0,0,.59-2.47,17.93,17.93,0,0,1-.87-3.12c0.29-2.65.51-2.76,3.36-3.76a103.6,103.6,0,0,0,13.22-5.31c2-1.05,3.39-3.44,5.05-5.23-2-2.47.12-4.7,0.46-7,0.24-1.65.82-3.25,1.19-4.89a4.23,4.23,0,0,0,.13-1.88c-0.56-2.17-1.29-4.29-1.86-6.46-0.64-2.45-.36-5.05-2.5-7.17-1.76-1.74-1-4.67,1.19-6.73a44.81,44.81,0,0,1,5.13-4.33c2.4-1.65,3.52-3.61,7.16-3.47,0.6,0,2.77-2.44,3.38-3.42,0.21-.34,2.26-2.33,3.27-3.32,2.46-2.08,5.21-3.68,9.84-6.29a13.39,13.39,0,0,1,2.4-.6c1.2-.39,5.75-2.15,6.65-2.92a76,76,0,0,0,7.72-7c2.72-2.54,2-7.6,3.89-10.57,0.2-.32-0.26-1-0.36-1.57a37.66,37.66,0,0,1-1-6.15c-0.06-4.15.44-8.31,0.26-12.44a11.27,11.27,0,0,1,1.65-6.59,27.4,27.4,0,0,0,1.78-5.12c-0.92-.06-0.46-0.66-0.61-0.59-0.67.32-2,1.22-2.64,1.55-4.8,2.44-9.45,5.39-15.3,3.7-0.83-.24-2,0.38-2.9.78-0.75.32-1.52,1.4-2.08,1.27-4.39-1-8.89,2.71-13.19-.34a1.43,1.43,0,0,0-.82-0.09c-2.68.13-5.37,0.36-8.05,0.39-1.54,0-2.13.55-2.22,2.11-0.16,2.79-.67,5.56-0.75,8.35a5.72,5.72,0,0,0,1.11,3.37c2.31,3,4.94,5.82,7.24,8.85,3.34,4.4,1,8.93-.06,13.38a1.53,1.53,0,0,1-1,.89c-3.13.69-3.4,2.93-3.13,5.53C425.76,448.51,424.86,449.32,423.07,448.33Z" transform="translate(-9.93 -7.3)"/></svg>