<svg id="other_countries" data-name="other countries" xmlns="http://www.w3.org/2000/svg" xmlns:xlink="http://www.w3.org/1999/xlink" viewBox="0 0 726 385"><defs><style>.cls-1,.cls-10,.cls-11,.cls-12,.cls-13,.cls-14,.cls-15,.cls-16,.cls-17,.cls-18,.cls-19,.cls-20,.cls-21,.cls-22,.cls-23,.cls-24,.cls-25,.cls-26,.cls-27,.cls-28,.cls-29,.cls-30,.cls-31,.cls-32,.cls-33,.cls-34,.cls-35,.cls-36,.cls-37,.cls-38,.cls-39,.cls-4,.cls-40,.cls-41,.cls-42,.cls-43,.cls-44,.cls-45,.cls-46,.cls-47,.cls-48,.cls-49,.cls-50,.cls-51,.cls-52,.cls-53,.cls-54,.cls-55,.cls-56,.cls-57,.cls-58,.cls-59,.cls-60,.cls-61,.cls-62,.cls-63,.cls-64,.cls-65,.cls-66,.cls-67,.cls-68,.cls-7,.cls-70,.cls-71,.cls-72,.cls-73,.cls-74,.cls-75,.cls-76,.cls-77,.cls-78,.cls-79,.cls-8,.cls-80,.cls-81,.cls-82,.cls-9{fill:none;}.cls-2,.cls-86{fill:#c1272d;}.cls-3{clip-path:url(#clip-path);}.cls-4{stroke:#bcbec0;}.cls-4,.cls-7,.cls-82,.cls-87{stroke-miterlimit:10;}.cls-5,.cls-87{fill:#fff;}.cls-6{clip-path:url(#clip-path-2);}.cls-7,.cls-86,.cls-87{stroke:#c1272d;}.cls-7{stroke-width:0.75px;}.cls-10,.cls-11,.cls-12,.cls-13,.cls-14,.cls-15,.cls-16,.cls-17,.cls-18,.cls-19,.cls-20,.cls-21,.cls-22,.cls-23,.cls-24,.cls-25,.cls-26,.cls-27,.cls-28,.cls-29,.cls-30,.cls-31,.cls-32,.cls-33,.cls-34,.cls-35,.cls-36,.cls-37,.cls-38,.cls-39,.cls-40,.cls-41,.cls-42,.cls-43,.cls-44,.cls-45,.cls-46,.cls-47,.cls-48,.cls-49,.cls-50,.cls-51,.cls-52,.cls-53,.cls-54,.cls-55,.cls-56,.cls-57,.cls-58,.cls-59,.cls-60,.cls-61,.cls-62,.cls-63,.cls-64,.cls-65,.cls-66,.cls-67,.cls-68,.cls-71,.cls-72,.cls-73,.cls-74,.cls-75,.cls-76,.cls-78,.cls-79,.cls-8,.cls-80,.cls-81,.cls-9{stroke:#d1d3d4;stroke-linecap:round;stroke-width:2.5px;}.cls-10,.cls-11,.cls-12,.cls-13,.cls-14,.cls-15,.cls-16,.cls-17,.cls-18,.cls-19,.cls-20,.cls-21,.cls-22,.cls-23,.cls-24,.cls-25,.cls-26,.cls-27,.cls-28,.cls-29,.cls-30,.cls-31,.cls-32,.cls-33,.cls-34,.cls-35,.cls-36,.cls-37,.cls-38,.cls-39,.cls-40,.cls-41,.cls-42,.cls-43,.cls-44,.cls-45,.cls-46,.cls-47,.cls-48,.cls-49,.cls-50,.cls-51,.cls-52,.cls-53,.cls-54,.cls-55,.cls-56,.cls-57,.cls-58,.cls-59,.cls-60,.cls-61,.cls-62,.cls-63,.cls-64,.cls-65,.cls-66,.cls-67,.cls-68,.cls-69,.cls-70,.cls-71,.cls-72,.cls-73,.cls-74,.cls-75,.cls-76,.cls-77,.cls-78,.cls-79,.cls-8,.cls-80,.cls-81,.cls-86,.cls-9{stroke-linejoin:bevel;}.cls-9{stroke-dasharray:0 5.13;}.cls-10{stroke-dasharray:0 5.32;}.cls-11{stroke-dasharray:0 4.51;}.cls-12{stroke-dasharray:0 4.27;}.cls-13{stroke-dasharray:0 5.79;}.cls-14{stroke-dasharray:0 6.08;}.cls-15{stroke-dasharray:0 5.12;}.cls-16{stroke-dasharray:0 4.75;}.cls-17{stroke-dasharray:0 4.18;}.cls-18{stroke-dasharray:0 5.21;}.cls-19{stroke-dasharray:0 4.54;}.cls-20{stroke-dasharray:0 4.94;}.cls-21{stroke-dasharray:0 5.5;}.cls-22{stroke-dasharray:0 5;}.cls-23{stroke-dasharray:0 4.71;}.cls-24{stroke-dasharray:0 4.22;}.cls-25{stroke-dasharray:0 3.75;}.cls-26{stroke-dasharray:0 5.26;}.cls-27{stroke-dasharray:0 4.35;}.cls-28{stroke-dasharray:0 5.85;}.cls-29{stroke-dasharray:0 4.76;}.cls-30{stroke-dasharray:0 4.46;}.cls-31{stroke-dasharray:0 4.95;}.cls-32{stroke-dasharray:0 4.73;}.cls-33{stroke-dasharray:0 5.11;}.cls-34{stroke-dasharray:0 5.16;}.cls-35{stroke-dasharray:0 4.58;}.cls-36{stroke-dasharray:0 4.99;}.cls-37{stroke-dasharray:0 4.09;}.cls-38{stroke-dasharray:0 5.07;}.cls-39{stroke-dasharray:0 4.47;}.cls-40{stroke-dasharray:0 6.09;}.cls-41{stroke-dasharray:0 2.92;}.cls-42{stroke-dasharray:0 3.69;}.cls-43{stroke-dasharray:0 3.35;}.cls-44{stroke-dasharray:0 2.51;}.cls-45{stroke-dasharray:0 3.2;}.cls-46{stroke-dasharray:0 4.19;}.cls-47{stroke-dasharray:0 2.85;}.cls-48{stroke-dasharray:0 4.18;}.cls-49{stroke-dasharray:0 4.6;}.cls-50{stroke-dasharray:0 5.36;}.cls-51{stroke-dasharray:0 5.21;}.cls-52{stroke-dasharray:0 5.61;}.cls-53{stroke-dasharray:0 4.91;}.cls-54{stroke-dasharray:0 3.88;}.cls-55{stroke-dasharray:0 5.2;}.cls-56{stroke-dasharray:0 4.5;}.cls-57{stroke-dasharray:0 5.97;}.cls-58{stroke-dasharray:0 5;}.cls-59{stroke-dasharray:0 5.77;}.cls-60{stroke-dasharray:0 3.04;}.cls-61{stroke-dasharray:0 2.57;}.cls-62{stroke-dasharray:0 4.52;}.cls-63{stroke-dasharray:0 4.67;}.cls-64{stroke-dasharray:0 3.26;}.cls-65{stroke-dasharray:0 5.22;}.cls-66{stroke-dasharray:0 5.28;}.cls-67{stroke-dasharray:0 5.02;}.cls-68{stroke-dasharray:0 5.12;}.cls-69{fill:#27aae1;}.cls-69,.cls-82{stroke:#fff;}.cls-69,.cls-70,.cls-77{stroke-width:2px;}.cls-70{stroke:#00aeef;}.cls-71{stroke-dasharray:0 4.99;}.cls-72{stroke-dasharray:0 5.26;}.cls-73{stroke-dasharray:0 4.99;}.cls-74{stroke-dasharray:0 4.47;}.cls-75{stroke-dasharray:0 4.98;}.cls-76{stroke-dasharray:0 4.81;}.cls-77{stroke:#27aae1;}.cls-78{stroke-dasharray:0 5.05;}.cls-79{stroke-dasharray:0 5.3;}.cls-80{stroke-dasharray:0 4.78;}.cls-81{stroke-dasharray:0 5.25;}.cls-82{stroke-width:3px;}.cls-83{fill:#231f20;}.cls-84{fill:#d1d3d4;}.cls-85{fill:#bcbec0;}.cls-86,.cls-87{stroke-width:0.5px;}</style><clipPath id="clip-path"><path class="cls-1" d="M336.6,450.7l-13.2,13.7-19.2,18.4L284,499.7l-18.3,9.7-10.2-.2-4.8,5.9-5-1.4-11.7,4-15.3-4.3-7.3,2.3-8.3-.3-12.3.7-7.4,6.9H170l-13.9,5.6-7.4,2.2-6-5.2-8.1-4.4-4.7-4.5-3-.8-2-11.3-6.7-12,7-3.4,0.9-6-1.4-13.4-8.5-16.2-4.8-9.3-8.8-17.6-4-16.7L86.7,395l-10-14.7L68,355l-0.7-27.3-8-15.3,2-28-2-11.3L44,244.3,24.7,201.7l-12-15.3L10,165l1.3-30.7,8-20L24,87.7,33.3,77,36,67.7l6-1.3,8-28.7-10-22L34.7-5.7l6-7.3h475L519-1.7l4,14.3,9,5.3,6,8.3-1.7,8.3,1.3,0.3-16.3,8.3L514,47.7l-5.3-1-9.7,6-4-2-6.3-1.3L486,54.7,476.7,58,469,55l-5,3.7L455.3,57,448,51.7l-4.3,4H432L430,63l-3.7,2.3-0.7,6,2,6.3L427,83v5.3l0.7,3.7,3.3,3.3,7.3,7,10.3,13,0.7,6.3-3.7,5,2.7,4.7-1.3,11-2.3,3.3h-4.3l-2.7.3-1.7,6-2.3,2,2.3,2.7,0.7,4.3,0.7,4.7-4.3.7-0.3-3,1.7-1V160H431l-3-4.7-7.3-7.3-1-3.3L416,140l2.7-2.7L420,134l2.3-5.3,0.3-2.3,0.7-7.7L419,111l-13.7,4-4-5-5.7-5.7-32,10.7-18,5.3-8,2,4.3,9,0.7,12.3h15.7l2,2.3h5.3l6.3,5.7,9,0.3,6.7,5,4.3,0.3-2,3.7,3.7,13-3,7.3,3,9.3-3.7,3,0.3,4.3h-3l-0.7,4,3,2.3L388,211l2.3,5,2.3,2.7-2.3,9-4.7,6.3-3.7.3-0.7,4,0.7,5.3-2,3,0.7,4L371.5,261l-12.2,11.7,5.3,16.7-2,5.7,3.3,3,1.3,4,2.7,3.3v4l2.3,5v25.3l-1.7,4.7,0.3,3.3,3,3-0.7,4.7v6.3l1.7,5.7,11.8-.3L383,378l-10.5,29-8,1.5L355,420l-4,6.4ZM626.7,141.9c-2.7-3.3-3.1.7-4.7,1.5l-2.4-2.8c-2.9,3.6-6.2,5.6-10.9,4.6-2.3-.5-2.9,1.5-2.7,3.5a18.5,18.5,0,0,1-3.4,12.5c-1.6,2.3-3.3,4.5-4.8,6.8s-1.6,5.3-1.4,8.5c0.6,7.9,1.2,15.6,3.5,23.2a88.7,88.7,0,0,1,2.4,10.5,30.5,30.5,0,0,1,.3,5.9c0,1.1-.9,2.5-0.5,3.3,2.2,4.2-.6,7.1-2.5,10.3-3.5,5.7-8.2,10.9-9,18a4.8,4.8,0,0,1-2.8,3.2c-2.9,1-4.7,2.6-4.8,5.9a5.8,5.8,0,0,1-1.1,3.2c-4.4,6-3.1,13-3,19.6,0,1.6,1,3.3,1.7,4.9,1.7,4,3.6,8,5.2,12a3.8,3.8,0,0,1-.5,2.8c-3.1,5.5-2.4,11.1-.3,16.7,1.1,3,2,6.4,3.9,8.9a47.3,47.3,0,0,0,9.1,8.9c2.5,1.9,5.9,2.5,8.4,4.3s6.1,2.8,9.4,1.1,5.7-3.7,8.7-5.2,5.1-2.4,7.7-2.4c5.3,0.1,10.7-2.4,12.7-7.3,2.9-6.9,5.7-13.9,8.2-21,9.7-28.3,19.2-56.8,28.8-85.1,2.7-7.9,5.4-15.9,8.3-23.7s6.2-16.6,5-25.9a9.8,9.8,0,0,1,4.5-9.7c3-2.1,4.9-10.1,2.9-12.9-3.1-4.3-2.2-8.8-1.9-13.3,0.1-1.3,1.5-2.5,2.3-3.7,1.2,1,2.7,1.7,3.4,3s1.1,3.6,1.9,5.3,2.1,2.5,3.8.9,4.1-10.9,2.7-14.8a45.5,45.5,0,0,1-2.7-11.2c-1.2-13.5-.2-27.5-9.4-39.2-2.5-3.2-1.1-9-5.8-9.9L691,68.2c-0.2,2.8,0,5.8-.7,8.5s-1.8,7.7-4.2,9.7-6.9,4.6-7.7,9.3l-1.7.9-4.1-6.9-1.3.9,1.3,6.8c0.6,3,2,6.1-2.7,7.3-1.1.3-2.7,1.9-2.6,2.7s1.5,2.4,2.7,3.2,3.1,2,1.9,4.3c-2.7-2.6-4.3-2.4-6.1.7a22.3,22.3,0,0,1-1.8,3.3,22.5,22.5,0,0,1-3.2,2.7l-0.9-.9,1.4-4.9a60.3,60.3,0,0,0-4.5,5.4,4.9,4.9,0,0,0-.7,3.7c1.6,4.9,1.2,5.7-4.2,6.5l0.7-5.3-1.1-.9-6.2,4.7c-5.1,4-5.2,4.6-2,9.9-4.1,1.8-4.9-1.8-6.5-4.5l-2,2.9C630.4,136.2,630,136.4,626.7,141.9Z"/></clipPath><clipPath id="clip-path-2"><polygon class="cls-1" points="432 55.7 443.7 55.7 448 51.7 455.3 57 464 58.7 469 55 476.7 58 486 54.7 488.7 49.3 495 50.7 499 52.7 508.7 46.7 514 47.7 521.3 43.3 537.7 35 539.7 41.7 538 51.3 536.7 57.3 537.7 73.3 540.3 79.7 539.7 84 538 90.7 539.3 101 540.3 107.7 543.7 116.7 541.7 122 538 126.7 540.7 129.3 535.3 137 527 148.7 519.3 156 509.7 163 498.3 165.7 486.3 170.7 473 179.3 467.3 185.7 459.3 194.7 456 199.7 453.7 202 451.7 201 447 203.7 441 211 431.3 218.7 426.3 218.7 423.3 216 426.3 224 424 231 427 237 432.3 242.3 432.3 246.3 431.7 251 435.7 258.7 436.7 264.3 436 272 437.3 275.7 438 273.7 438.7 267.3 440.3 267 441 271.7 440.3 275.3 439.3 279.3 440 283.7 441.3 285.3 438.7 290.3 437.3 298.7 436 302.7 438.3 306.7 438 311 432.7 319 423.3 324.3 405 330 392.3 336.3 385.7 344 385.3 351.7 388 355 389.7 350.7 391 352.7 389.3 358.7 388.7 367 375 367.3 373.3 361.7 373.3 355.3 374 350.7 371 347.7 370.7 344.3 372.3 339.7 372.3 314.3 370 309.3 370 305.3 367.3 302 366 298 362.7 295 364.7 289.3 359.3 272.7 371.5 261 380.7 250.7 380 246.7 382 243.7 381.3 238.3 382 234.3 385.7 234 390.3 227.7 392.7 218.7 390.3 216 388 211 389.7 204.3 386.7 202 387.3 198 390.3 198 390 193.7 393.7 190.7 390.7 181.3 393.7 174 390 161 392 157.3 387.7 157 381 152 372 151.7 365.7 146 360.3 146 358.3 143.7 342.7 143.7 342 131.3 337.7 122.3 345.7 120.3 363.7 115 395.7 104.3 401.3 110 405.3 115 419 111 423.3 118.7 422.7 126.3 422.3 128.7 420 134 418.7 137.3 416 140 419.7 144.7 420.7 148 428 155.3 431 160 434.3 160 434.3 162.3 432.7 163.3 433 166.3 437.3 165.7 436.7 161 436 156.7 433.7 154 436 152 437.7 146 440.3 145.7 444.7 145.7 447 142.3 448.3 131.3 445.7 126.7 449.3 121.7 448.7 115.3 438.3 102.3 431 95.3 427.7 92 427 88.3 427 83 427.7 77.7 425.7 71.3 426.3 65.3 430 63 432 55.7"/></clipPath></defs><title>mapa_obras</title><rect class="cls-2" y="-13" width="726" height="549"/><g class="cls-3"><line class="cls-4" x1="1086.1" y1="-55" x2="443.9" y2="587.2"/><line class="cls-4" x1="1079.2" y1="-55.6" x2="437.4" y2="586.3"/><line class="cls-4" x1="1072.4" y1="-56.1" x2="430.9" y2="585.4"/><line class="cls-4" x1="1065.5" y1="-56.6" x2="424.4" y2="584.4"/><line class="cls-4" x1="1058.6" y1="-57.2" x2="418" y2="583.5"/><line class="cls-4" x1="1051.8" y1="-57.7" x2="411.5" y2="582.6"/><line class="cls-4" x1="1044.9" y1="-58.2" x2="405" y2="581.7"/><line class="cls-4" x1="1038" y1="-58.8" x2="398.5" y2="580.7"/><line class="cls-4" x1="1031.2" y1="-59.3" x2="392" y2="579.8"/><line class="cls-4" x1="1024.3" y1="-59.8" x2="385.5" y2="578.9"/><line class="cls-4" x1="1017.4" y1="-60.4" x2="379.1" y2="578"/><line class="cls-4" x1="1010.6" y1="-60.9" x2="372.6" y2="577.1"/><line class="cls-4" x1="1003.7" y1="-61.5" x2="366.1" y2="576.1"/><line class="cls-4" x1="996.8" y1="-62" x2="359.6" y2="575.2"/><line class="cls-4" x1="990" y1="-62.5" x2="353.1" y2="574.3"/><line class="cls-4" x1="983.1" y1="-63.1" x2="346.7" y2="573.4"/><line class="cls-4" x1="976.2" y1="-63.6" x2="340.2" y2="572.5"/><line class="cls-4" x1="969.4" y1="-64.1" x2="333.7" y2="571.5"/><line class="cls-4" x1="962.5" y1="-64.7" x2="327.2" y2="570.6"/><line class="cls-4" x1="955.6" y1="-65.2" x2="320.7" y2="569.7"/><line class="cls-4" x1="948.8" y1="-65.7" x2="314.3" y2="568.8"/><line class="cls-4" x1="941.9" y1="-66.3" x2="307.8" y2="567.8"/><line class="cls-4" x1="935" y1="-66.8" x2="301.3" y2="566.9"/><line class="cls-4" x1="928.2" y1="-67.3" x2="294.8" y2="566"/><line class="cls-4" x1="921.3" y1="-67.9" x2="288.3" y2="565.1"/><line class="cls-4" x1="914.4" y1="-68.4" x2="281.9" y2="564.2"/><line class="cls-4" x1="907.6" y1="-68.9" x2="275.4" y2="563.2"/><line class="cls-4" x1="900.7" y1="-69.5" x2="268.9" y2="562.3"/><line class="cls-4" x1="893.8" y1="-70" x2="262.4" y2="561.4"/><line class="cls-4" x1="887" y1="-70.5" x2="255.9" y2="560.5"/><line class="cls-4" x1="880.1" y1="-71.1" x2="249.5" y2="559.6"/><line class="cls-4" x1="873.2" y1="-71.6" x2="243" y2="558.6"/><line class="cls-4" x1="866.4" y1="-72.1" x2="236.5" y2="557.7"/><line class="cls-4" x1="859.5" y1="-72.7" x2="230" y2="556.8"/><line class="cls-4" x1="852.6" y1="-73.2" x2="223.5" y2="555.9"/><line class="cls-4" x1="845.8" y1="-73.8" x2="217.1" y2="554.9"/><line class="cls-4" x1="838.9" y1="-74.3" x2="210.6" y2="554"/><line class="cls-4" x1="832" y1="-74.8" x2="204.1" y2="553.1"/><line class="cls-4" x1="825.2" y1="-75.4" x2="197.6" y2="552.2"/><line class="cls-4" x1="818.3" y1="-75.9" x2="191.1" y2="551.3"/><line class="cls-4" x1="811.4" y1="-76.4" x2="184.7" y2="550.3"/><line class="cls-4" x1="804.6" y1="-77" x2="178.2" y2="549.4"/><line class="cls-4" x1="797.7" y1="-77.5" x2="171.7" y2="548.5"/><line class="cls-4" x1="790.8" y1="-78" x2="165.2" y2="547.6"/><line class="cls-4" x1="784" y1="-78.6" x2="158.7" y2="546.7"/><line class="cls-4" x1="777.1" y1="-79.1" x2="152.3" y2="545.7"/><line class="cls-4" x1="770.2" y1="-79.6" x2="145.8" y2="544.8"/><line class="cls-4" x1="763.4" y1="-80.2" x2="139.3" y2="543.9"/><line class="cls-4" x1="756.5" y1="-80.7" x2="132.8" y2="543"/><line class="cls-4" x1="749.6" y1="-81.2" x2="126.3" y2="542.1"/><line class="cls-4" x1="742.8" y1="-81.8" x2="119.8" y2="541.1"/><line class="cls-4" x1="735.9" y1="-82.3" x2="113.4" y2="540.2"/><line class="cls-4" x1="729" y1="-82.8" x2="106.9" y2="539.3"/><line class="cls-4" x1="722.2" y1="-83.4" x2="100.4" y2="538.4"/><line class="cls-4" x1="715.3" y1="-83.9" x2="93.9" y2="537.4"/><line class="cls-4" x1="708.4" y1="-84.5" x2="87.4" y2="536.5"/><line class="cls-4" x1="701.6" y1="-85" x2="81" y2="535.6"/><line class="cls-4" x1="694.7" y1="-85.5" x2="74.5" y2="534.7"/><line class="cls-4" x1="687.8" y1="-86.1" x2="68" y2="533.8"/><line class="cls-4" x1="681" y1="-86.6" x2="61.5" y2="532.8"/><line class="cls-4" x1="674.1" y1="-87.1" x2="55" y2="531.9"/><line class="cls-4" x1="667.2" y1="-87.7" x2="48.6" y2="531"/><line class="cls-4" x1="660.4" y1="-88.2" x2="42.1" y2="530.1"/><line class="cls-4" x1="653.5" y1="-88.7" x2="35.6" y2="529.2"/><line class="cls-4" x1="646.6" y1="-89.3" x2="29.1" y2="528.2"/><line class="cls-4" x1="639.8" y1="-89.8" x2="22.6" y2="527.3"/><line class="cls-4" x1="632.9" y1="-90.3" x2="16.2" y2="526.4"/><line class="cls-4" x1="626" y1="-90.9" x2="9.7" y2="525.5"/><line class="cls-4" x1="619.2" y1="-91.4" x2="3.2" y2="524.5"/><line class="cls-4" x1="612.3" y1="-91.9" x2="-3.3" y2="523.6"/><line class="cls-4" x1="605.4" y1="-92.5" x2="-9.8" y2="522.7"/><line class="cls-4" x1="598.6" y1="-93" x2="-16.2" y2="521.8"/><line class="cls-4" x1="591.7" y1="-93.5" x2="-22.7" y2="520.9"/><line class="cls-4" x1="584.8" y1="-94.1" x2="-29.2" y2="519.9"/><line class="cls-4" x1="578" y1="-94.6" x2="-35.7" y2="519"/><line class="cls-4" x1="571.1" y1="-95.2" x2="-42.2" y2="518.1"/><line class="cls-4" x1="564.2" y1="-95.7" x2="-48.6" y2="517.2"/><line class="cls-4" x1="557.4" y1="-96.2" x2="-55.1" y2="516.3"/><line class="cls-4" x1="550.5" y1="-96.8" x2="-61.6" y2="515.3"/><line class="cls-4" x1="543.6" y1="-97.3" x2="-68.1" y2="514.4"/><line class="cls-4" x1="536.8" y1="-97.8" x2="-74.6" y2="513.5"/><line class="cls-4" x1="529.9" y1="-98.4" x2="-81" y2="512.6"/><line class="cls-4" x1="523" y1="-98.9" x2="-87.5" y2="511.6"/><line class="cls-4" x1="516.2" y1="-99.4" x2="-94" y2="510.7"/><line class="cls-4" x1="509.3" y1="-100" x2="-100.5" y2="509.8"/><line class="cls-4" x1="502.4" y1="-100.5" x2="-107" y2="508.9"/><line class="cls-4" x1="495.6" y1="-101" x2="-113.4" y2="508"/><line class="cls-4" x1="488.7" y1="-101.6" x2="-119.9" y2="507"/><line class="cls-4" x1="481.8" y1="-102.1" x2="-126.4" y2="506.1"/><line class="cls-4" x1="475" y1="-102.6" x2="-132.9" y2="505.2"/><line class="cls-4" x1="468.1" y1="-103.2" x2="-139.4" y2="504.3"/><line class="cls-4" x1="461.2" y1="-103.7" x2="-145.9" y2="503.4"/><line class="cls-4" x1="454.4" y1="-104.2" x2="-152.3" y2="502.4"/><line class="cls-4" x1="447.5" y1="-104.8" x2="-158.8" y2="501.5"/><line class="cls-4" x1="440.6" y1="-105.3" x2="-165.3" y2="500.6"/><line class="cls-4" x1="433.8" y1="-105.8" x2="-171.8" y2="499.7"/><line class="cls-4" x1="426.9" y1="-106.4" x2="-178.3" y2="498.8"/><line class="cls-4" x1="420" y1="-106.9" x2="-184.7" y2="497.8"/><line class="cls-4" x1="413.1" y1="-107.5" x2="-191.2" y2="496.9"/><line class="cls-4" x1="406.3" y1="-108" x2="-197.7" y2="496"/><line class="cls-4" x1="399.4" y1="-108.5" x2="-204.2" y2="495.1"/><line class="cls-4" x1="392.5" y1="-109.1" x2="-210.7" y2="494.1"/><line class="cls-4" x1="385.7" y1="-109.6" x2="-217.1" y2="493.2"/><line class="cls-4" x1="378.8" y1="-110.1" x2="-223.6" y2="492.3"/><line class="cls-4" x1="371.9" y1="-110.7" x2="-230.1" y2="491.4"/><line class="cls-4" x1="365.1" y1="-111.2" x2="-236.6" y2="490.5"/><line class="cls-4" x1="358.2" y1="-111.7" x2="-243.1" y2="489.5"/><line class="cls-4" x1="351.3" y1="-112.3" x2="-249.5" y2="488.6"/><line class="cls-4" x1="344.5" y1="-112.8" x2="-256" y2="487.7"/><line class="cls-4" x1="337.6" y1="-113.3" x2="-262.5" y2="486.8"/><line class="cls-4" x1="330.7" y1="-113.9" x2="-269" y2="485.9"/><line class="cls-4" x1="323.9" y1="-114.4" x2="-275.5" y2="484.9"/><line class="cls-4" x1="317" y1="-114.9" x2="-281.9" y2="484"/><line class="cls-4" x1="310.1" y1="-115.5" x2="-288.4" y2="483.1"/><line class="cls-4" x1="303.3" y1="-116" x2="-294.9" y2="482.2"/><line class="cls-4" x1="296.4" y1="-116.5" x2="-301.4" y2="481.2"/><line class="cls-4" x1="289.5" y1="-117.1" x2="-307.9" y2="480.3"/><line class="cls-4" x1="282.7" y1="-117.6" x2="-314.3" y2="479.4"/><line class="cls-4" x1="275.8" y1="-118.2" x2="-320.8" y2="478.5"/><line class="cls-4" x1="268.9" y1="-118.7" x2="-327.3" y2="477.6"/><line class="cls-4" x1="262.1" y1="-119.2" x2="-333.8" y2="476.6"/><line class="cls-4" x1="255.2" y1="-119.8" x2="-340.3" y2="475.7"/><line class="cls-4" x1="248.3" y1="-120.3" x2="-346.7" y2="474.8"/><line class="cls-4" x1="241.5" y1="-120.8" x2="-353.2" y2="473.9"/><line class="cls-4" x1="234.6" y1="-121.4" x2="-359.7" y2="473"/><line class="cls-4" x1="227.7" y1="-121.9" x2="-366.2" y2="472"/><line class="cls-4" x1="220.9" y1="-122.4" x2="-372.7" y2="471.1"/><line class="cls-4" x1="214" y1="-123" x2="-379.1" y2="470.2"/><line class="cls-4" x1="207.1" y1="-123.5" x2="-385.6" y2="469.3"/><line class="cls-4" x1="200.3" y1="-124" x2="-392.1" y2="468.4"/><line class="cls-4" x1="193.4" y1="-124.6" x2="-398.6" y2="467.4"/><line class="cls-4" x1="186.5" y1="-125.1" x2="-405.1" y2="466.5"/><line class="cls-4" x1="179.7" y1="-125.6" x2="-411.6" y2="465.6"/><line class="cls-4" x1="172.8" y1="-126.2" x2="-418" y2="464.7"/><line class="cls-4" x1="165.9" y1="-126.7" x2="-424.5" y2="463.7"/><line class="cls-4" x1="159.1" y1="-127.2" x2="-431" y2="462.8"/><line class="cls-4" x1="152.2" y1="-127.8" x2="-437.5" y2="461.9"/><line class="cls-4" x1="145.3" y1="-128.3" x2="-444" y2="461"/><line class="cls-4" x1="138.5" y1="-128.9" x2="-450.4" y2="460.1"/><line class="cls-4" x1="131.6" y1="-129.4" x2="-456.9" y2="459.1"/><line class="cls-4" x1="124.7" y1="-129.9" x2="-463.4" y2="458.2"/><line class="cls-4" x1="117.9" y1="-130.5" x2="-469.9" y2="457.3"/><line class="cls-4" x1="111" y1="-131" x2="-476.4" y2="456.4"/><line class="cls-4" x1="104.1" y1="-131.5" x2="-482.8" y2="455.5"/><line class="cls-4" x1="97.3" y1="-132.1" x2="-489.3" y2="454.5"/><line class="cls-4" x1="90.4" y1="-132.6" x2="-495.8" y2="453.6"/><line class="cls-4" x1="83.5" y1="-133.1" x2="-502.3" y2="452.7"/><line class="cls-4" x1="76.7" y1="-133.7" x2="-508.8" y2="451.8"/><line class="cls-4" x1="69.8" y1="-134.2" x2="-515.2" y2="450.8"/><line class="cls-4" x1="62.9" y1="-134.7" x2="-521.7" y2="449.9"/><line class="cls-4" x1="56.1" y1="-135.3" x2="-528.2" y2="449"/><line class="cls-4" x1="49.2" y1="-135.8" x2="-534.7" y2="448.1"/></g><polygon class="cls-5" points="432 55.7 443.7 55.7 448 51.7 455.3 57 464 58.7 469 55 476.7 58 486 54.7 488.7 49.3 495 50.7 499 52.7 508.7 46.7 514 47.7 521.3 43.3 537.7 35 539.7 41.7 538 51.3 536.7 57.3 537.7 73.3 540.3 79.7 539.7 84 538 90.7 539.3 101 540.3 107.7 543.7 116.7 541.7 122 538 126.7 540.7 129.3 535.3 137 527 148.7 519.3 156 509.7 163 498.3 165.7 486.3 170.7 473 179.3 467.3 185.7 459.3 194.7 456 199.7 453.7 202 451.7 201 447 203.7 441 211 431.3 218.7 426.3 218.7 423.3 216 426.3 224 424 231 427 237 432.3 242.3 432.3 246.3 431.7 251 435.7 258.7 436.7 264.3 436 272 437.3 275.7 438 273.7 438.7 267.3 440.3 267 441 271.7 440.3 275.3 439.3 279.3 440 283.7 441.3 285.3 438.7 290.3 437.3 298.7 436 302.7 438.3 306.7 438 311 432.7 319 423.3 324.3 405 330 392.3 336.3 385.7 344 385.3 351.7 388 355 389.7 350.7 391 352.7 389.3 358.7 388.7 367 375 367.3 373.3 361.7 373.3 355.3 374 350.7 371 347.7 370.7 344.3 372.3 339.7 372.3 314.3 370 309.3 370 305.3 367.3 302 366 298 362.7 295 364.7 289.3 359.3 272.7 371.5 261 380.7 250.7 380 246.7 382 243.7 381.3 238.3 382 234.3 385.7 234 390.3 227.7 392.7 218.7 390.3 216 388 211 389.7 204.3 386.7 202 387.3 198 390.3 198 390 193.7 393.7 190.7 390.7 181.3 393.7 174 390 161 392 157.3 387.7 157 381 152 372 151.7 365.7 146 360.3 146 358.3 143.7 342.7 143.7 342 131.3 337.7 122.3 345.7 120.3 363.7 115 395.7 104.3 401.3 110 405.3 115 419 111 423.3 118.7 422.7 126.3 422.3 128.7 420 134 418.7 137.3 416 140 419.7 144.7 420.7 148 428 155.3 431 160 434.3 160 434.3 162.3 432.7 163.3 433 166.3 437.3 165.7 436.7 161 436 156.7 433.7 154 436 152 437.7 146 440.3 145.7 444.7 145.7 447 142.3 448.3 131.3 445.7 126.7 449.3 121.7 448.7 115.3 438.3 102.3 431 95.3 427.7 92 427 88.3 427 83 427.7 77.7 425.7 71.3 426.3 65.3 430 63 432 55.7"/><g class="cls-6"><line class="cls-7" x1="866.7" y1="161.7" x2="475.7" y2="552.7"/><line class="cls-7" x1="862.3" y1="158.4" x2="471.3" y2="549.4"/><line class="cls-7" x1="857.9" y1="155.1" x2="466.9" y2="546.1"/><line class="cls-7" x1="853.5" y1="151.8" x2="462.5" y2="542.8"/><line class="cls-7" x1="849.1" y1="148.5" x2="458.1" y2="539.5"/><line class="cls-7" x1="844.8" y1="145.2" x2="453.8" y2="536.2"/><line class="cls-7" x1="840.4" y1="141.9" x2="449.4" y2="532.9"/><line class="cls-7" x1="836" y1="138.7" x2="445" y2="529.7"/><line class="cls-7" x1="831.6" y1="135.4" x2="440.6" y2="526.4"/><line class="cls-7" x1="827.2" y1="132.1" x2="436.2" y2="523.1"/><line class="cls-7" x1="822.8" y1="128.8" x2="431.8" y2="519.8"/><line class="cls-7" x1="818.5" y1="125.5" x2="427.5" y2="516.5"/><line class="cls-7" x1="814.1" y1="122.2" x2="423.1" y2="513.2"/><line class="cls-7" x1="809.7" y1="118.9" x2="418.7" y2="509.9"/><line class="cls-7" x1="805.3" y1="115.6" x2="414.3" y2="506.6"/><line class="cls-7" x1="800.9" y1="112.4" x2="409.9" y2="503.4"/><line class="cls-7" x1="796.5" y1="109.1" x2="405.5" y2="500.1"/><line class="cls-7" x1="792.2" y1="105.8" x2="401.2" y2="496.8"/><line class="cls-7" x1="787.8" y1="102.5" x2="396.8" y2="493.5"/><line class="cls-7" x1="783.4" y1="99.2" x2="392.4" y2="490.2"/><line class="cls-7" x1="779" y1="95.9" x2="388" y2="486.9"/><line class="cls-7" x1="774.6" y1="92.6" x2="383.6" y2="483.6"/><line class="cls-7" x1="770.2" y1="89.3" x2="379.2" y2="480.3"/><line class="cls-7" x1="765.9" y1="86.1" x2="374.9" y2="477.1"/><line class="cls-7" x1="761.5" y1="82.8" x2="370.5" y2="473.8"/><line class="cls-7" x1="757.1" y1="79.5" x2="366.1" y2="470.5"/><line class="cls-7" x1="752.7" y1="76.2" x2="361.7" y2="467.2"/><line class="cls-7" x1="748.3" y1="72.9" x2="357.3" y2="463.9"/><line class="cls-7" x1="743.9" y1="69.6" x2="352.9" y2="460.6"/><line class="cls-7" x1="739.6" y1="66.3" x2="348.6" y2="457.3"/><line class="cls-7" x1="735.2" y1="63.1" x2="344.2" y2="454.1"/><line class="cls-7" x1="730.8" y1="59.8" x2="339.8" y2="450.8"/><line class="cls-7" x1="726.4" y1="56.5" x2="335.4" y2="447.5"/><line class="cls-7" x1="722" y1="53.2" x2="331" y2="444.2"/><line class="cls-7" x1="717.7" y1="49.9" x2="326.7" y2="440.9"/><line class="cls-7" x1="713.3" y1="46.6" x2="322.3" y2="437.6"/><line class="cls-7" x1="708.9" y1="43.3" x2="317.9" y2="434.3"/><line class="cls-7" x1="704.5" y1="40" x2="313.5" y2="431"/><line class="cls-7" x1="700.1" y1="36.8" x2="309.1" y2="427.8"/><line class="cls-7" x1="695.7" y1="33.5" x2="304.7" y2="424.5"/><line class="cls-7" x1="691.4" y1="30.2" x2="300.4" y2="421.2"/><line class="cls-7" x1="687" y1="26.9" x2="296" y2="417.9"/><line class="cls-7" x1="682.6" y1="23.6" x2="291.6" y2="414.6"/><line class="cls-7" x1="678.2" y1="20.3" x2="287.2" y2="411.3"/><line class="cls-7" x1="673.8" y1="17" x2="282.8" y2="408"/><line class="cls-7" x1="669.4" y1="13.7" x2="278.4" y2="404.7"/><line class="cls-7" x1="665.1" y1="10.5" x2="274.1" y2="401.5"/><line class="cls-7" x1="660.7" y1="7.2" x2="269.7" y2="398.2"/><line class="cls-7" x1="656.3" y1="3.9" x2="265.3" y2="394.9"/><line class="cls-7" x1="651.9" y1="0.6" x2="260.9" y2="391.6"/><line class="cls-7" x1="647.5" y1="-2.7" x2="256.5" y2="388.3"/><line class="cls-7" x1="643.1" y1="-6" x2="252.1" y2="385"/><line class="cls-7" x1="638.8" y1="-9.3" x2="247.8" y2="381.7"/><line class="cls-7" x1="634.4" y1="-12.6" x2="243.4" y2="378.4"/><line class="cls-7" x1="630" y1="-15.8" x2="239" y2="375.2"/><line class="cls-7" x1="625.6" y1="-19.1" x2="234.6" y2="371.9"/><line class="cls-7" x1="621.2" y1="-22.4" x2="230.2" y2="368.6"/><line class="cls-7" x1="616.8" y1="-25.7" x2="225.8" y2="365.3"/><line class="cls-7" x1="612.5" y1="-29" x2="221.5" y2="362"/><line class="cls-7" x1="608.1" y1="-32.3" x2="217.1" y2="358.7"/><line class="cls-7" x1="603.7" y1="-35.6" x2="212.7" y2="355.4"/><line class="cls-7" x1="599.3" y1="-38.8" x2="208.3" y2="352.2"/><line class="cls-7" x1="594.9" y1="-42.1" x2="203.9" y2="348.9"/><line class="cls-7" x1="590.5" y1="-45.4" x2="199.5" y2="345.6"/><line class="cls-7" x1="586.2" y1="-48.7" x2="195.2" y2="342.3"/><line class="cls-7" x1="581.8" y1="-52" x2="190.8" y2="339"/><line class="cls-7" x1="577.4" y1="-55.3" x2="186.4" y2="335.7"/><line class="cls-7" x1="573" y1="-58.6" x2="182" y2="332.4"/><line class="cls-7" x1="568.6" y1="-61.9" x2="177.6" y2="329.1"/><line class="cls-7" x1="564.3" y1="-65.1" x2="173.3" y2="325.9"/><line class="cls-7" x1="559.9" y1="-68.4" x2="168.9" y2="322.6"/><line class="cls-7" x1="555.5" y1="-71.7" x2="164.5" y2="319.3"/><line class="cls-7" x1="551.1" y1="-75" x2="160.1" y2="316"/><line class="cls-7" x1="546.7" y1="-78.3" x2="155.7" y2="312.7"/><line class="cls-7" x1="542.3" y1="-81.6" x2="151.3" y2="309.4"/><line class="cls-7" x1="538" y1="-84.9" x2="147" y2="306.1"/><line class="cls-7" x1="533.6" y1="-88.2" x2="142.6" y2="302.8"/><line class="cls-7" x1="529.2" y1="-91.4" x2="138.2" y2="299.6"/><line class="cls-7" x1="524.8" y1="-94.7" x2="133.8" y2="296.3"/><line class="cls-7" x1="520.4" y1="-98" x2="129.4" y2="293"/><line class="cls-7" x1="516" y1="-101.3" x2="125" y2="289.7"/><line class="cls-7" x1="511.7" y1="-104.6" x2="120.7" y2="286.4"/><line class="cls-7" x1="507.3" y1="-107.9" x2="116.3" y2="283.1"/><line class="cls-7" x1="502.9" y1="-111.2" x2="111.9" y2="279.8"/><line class="cls-7" x1="498.5" y1="-114.5" x2="107.5" y2="276.5"/><line class="cls-7" x1="494.1" y1="-117.7" x2="103.1" y2="273.3"/><line class="cls-7" x1="489.7" y1="-121" x2="98.7" y2="270"/><line class="cls-7" x1="485.4" y1="-124.3" x2="94.4" y2="266.7"/><line class="cls-7" x1="481" y1="-127.6" x2="90" y2="263.4"/><line class="cls-7" x1="476.6" y1="-130.9" x2="85.6" y2="260.1"/><line class="cls-7" x1="472.2" y1="-134.2" x2="81.2" y2="256.8"/><line class="cls-7" x1="467.8" y1="-137.5" x2="76.8" y2="253.5"/><line class="cls-7" x1="463.4" y1="-140.7" x2="72.4" y2="250.3"/><line class="cls-7" x1="459.1" y1="-144" x2="68.1" y2="247"/><line class="cls-7" x1="454.7" y1="-147.3" x2="63.7" y2="243.7"/><line class="cls-7" x1="450.3" y1="-150.6" x2="59.3" y2="240.4"/><line class="cls-7" x1="445.9" y1="-153.9" x2="54.9" y2="237.1"/><line class="cls-7" x1="441.5" y1="-157.2" x2="50.5" y2="233.8"/><line class="cls-7" x1="437.1" y1="-160.5" x2="46.1" y2="230.5"/><line class="cls-7" x1="432.8" y1="-163.8" x2="41.8" y2="227.2"/><line class="cls-7" x1="428.4" y1="-167" x2="37.4" y2="224"/><line class="cls-7" x1="424" y1="-170.3" x2="33" y2="220.7"/><line class="cls-7" x1="33" y1="161.7" x2="424" y2="552.7"/><line class="cls-7" x1="37.4" y1="158.4" x2="428.4" y2="549.4"/><line class="cls-7" x1="41.8" y1="155.1" x2="432.8" y2="546.1"/><line class="cls-7" x1="46.1" y1="151.8" x2="437.1" y2="542.8"/><line class="cls-7" x1="50.5" y1="148.5" x2="441.5" y2="539.5"/><line class="cls-7" x1="54.9" y1="145.2" x2="445.9" y2="536.2"/><line class="cls-7" x1="59.3" y1="141.9" x2="450.3" y2="532.9"/><line class="cls-7" x1="63.7" y1="138.7" x2="454.7" y2="529.7"/><line class="cls-7" x1="68.1" y1="135.4" x2="459.1" y2="526.4"/><line class="cls-7" x1="72.4" y1="132.1" x2="463.4" y2="523.1"/><line class="cls-7" x1="76.8" y1="128.8" x2="467.8" y2="519.8"/><line class="cls-7" x1="81.2" y1="125.5" x2="472.2" y2="516.5"/><line class="cls-7" x1="85.6" y1="122.2" x2="476.6" y2="513.2"/><line class="cls-7" x1="90" y1="118.9" x2="481" y2="509.9"/><line class="cls-7" x1="94.4" y1="115.6" x2="485.4" y2="506.6"/><line class="cls-7" x1="98.7" y1="112.4" x2="489.7" y2="503.4"/><line class="cls-7" x1="103.1" y1="109.1" x2="494.1" y2="500.1"/><line class="cls-7" x1="107.5" y1="105.8" x2="498.5" y2="496.8"/><line class="cls-7" x1="111.9" y1="102.5" x2="502.9" y2="493.5"/><line class="cls-7" x1="116.3" y1="99.2" x2="507.3" y2="490.2"/><line class="cls-7" x1="120.7" y1="95.9" x2="511.7" y2="486.9"/><line class="cls-7" x1="125" y1="92.6" x2="516" y2="483.6"/><line class="cls-7" x1="129.4" y1="89.3" x2="520.4" y2="480.3"/><line class="cls-7" x1="133.8" y1="86.1" x2="524.8" y2="477.1"/><line class="cls-7" x1="138.2" y1="82.8" x2="529.2" y2="473.8"/><line class="cls-7" x1="142.6" y1="79.5" x2="533.6" y2="470.5"/><line class="cls-7" x1="147" y1="76.2" x2="538" y2="467.2"/><line class="cls-7" x1="151.3" y1="72.9" x2="542.3" y2="463.9"/><line class="cls-7" x1="155.7" y1="69.6" x2="546.7" y2="460.6"/><line class="cls-7" x1="160.1" y1="66.3" x2="551.1" y2="457.3"/><line class="cls-7" x1="164.5" y1="63.1" x2="555.5" y2="454.1"/><line class="cls-7" x1="168.9" y1="59.8" x2="559.9" y2="450.8"/><line class="cls-7" x1="173.3" y1="56.5" x2="564.3" y2="447.5"/><line class="cls-7" x1="177.6" y1="53.2" x2="568.6" y2="444.2"/><line class="cls-7" x1="182" y1="49.9" x2="573" y2="440.9"/><line class="cls-7" x1="186.4" y1="46.6" x2="577.4" y2="437.6"/><line class="cls-7" x1="190.8" y1="43.3" x2="581.8" y2="434.3"/><line class="cls-7" x1="195.2" y1="40" x2="586.2" y2="431"/><line class="cls-7" x1="199.5" y1="36.8" x2="590.5" y2="427.8"/><line class="cls-7" x1="203.9" y1="33.5" x2="594.9" y2="424.5"/><line class="cls-7" x1="208.3" y1="30.2" x2="599.3" y2="421.2"/><line class="cls-7" x1="212.7" y1="26.9" x2="603.7" y2="417.9"/><line class="cls-7" x1="217.1" y1="23.6" x2="608.1" y2="414.6"/><line class="cls-7" x1="221.5" y1="20.3" x2="612.5" y2="411.3"/><line class="cls-7" x1="225.8" y1="17" x2="616.8" y2="408"/><line class="cls-7" x1="230.2" y1="13.7" x2="621.2" y2="404.7"/><line class="cls-7" x1="234.6" y1="10.5" x2="625.6" y2="401.5"/><line class="cls-7" x1="239" y1="7.2" x2="630" y2="398.2"/><line class="cls-7" x1="243.4" y1="3.9" x2="634.4" y2="394.9"/><line class="cls-7" x1="247.8" y1="0.6" x2="638.8" y2="391.6"/><line class="cls-7" x1="252.1" y1="-2.7" x2="643.1" y2="388.3"/><line class="cls-7" x1="256.5" y1="-6" x2="647.5" y2="385"/><line class="cls-7" x1="260.9" y1="-9.3" x2="651.9" y2="381.7"/><line class="cls-7" x1="265.3" y1="-12.6" x2="656.3" y2="378.4"/><line class="cls-7" x1="269.7" y1="-15.8" x2="660.7" y2="375.2"/><line class="cls-7" x1="274.1" y1="-19.1" x2="665.1" y2="371.9"/><line class="cls-7" x1="278.4" y1="-22.4" x2="669.4" y2="368.6"/><line class="cls-7" x1="282.8" y1="-25.7" x2="673.8" y2="365.3"/><line class="cls-7" x1="287.2" y1="-29" x2="678.2" y2="362"/><line class="cls-7" x1="291.6" y1="-32.3" x2="682.6" y2="358.7"/><line class="cls-7" x1="296" y1="-35.6" x2="687" y2="355.4"/><line class="cls-7" x1="300.4" y1="-38.8" x2="691.4" y2="352.2"/><line class="cls-7" x1="304.7" y1="-42.1" x2="695.7" y2="348.9"/><line class="cls-7" x1="309.1" y1="-45.4" x2="700.1" y2="345.6"/><line class="cls-7" x1="313.5" y1="-48.7" x2="704.5" y2="342.3"/><line class="cls-7" x1="317.9" y1="-52" x2="708.9" y2="339"/><line class="cls-7" x1="322.3" y1="-55.3" x2="713.3" y2="335.7"/><line class="cls-7" x1="326.7" y1="-58.6" x2="717.7" y2="332.4"/><line class="cls-7" x1="331" y1="-61.9" x2="722" y2="329.1"/><line class="cls-7" x1="335.4" y1="-65.1" x2="726.4" y2="325.9"/><line class="cls-7" x1="339.8" y1="-68.4" x2="730.8" y2="322.6"/><line class="cls-7" x1="344.2" y1="-71.7" x2="735.2" y2="319.3"/><line class="cls-7" x1="348.6" y1="-75" x2="739.6" y2="316"/><line class="cls-7" x1="352.9" y1="-78.3" x2="743.9" y2="312.7"/><line class="cls-7" x1="357.3" y1="-81.6" x2="748.3" y2="309.4"/><line class="cls-7" x1="361.7" y1="-84.9" x2="752.7" y2="306.1"/><line class="cls-7" x1="366.1" y1="-88.2" x2="757.1" y2="302.8"/><line class="cls-7" x1="370.5" y1="-91.4" x2="761.5" y2="299.6"/><line class="cls-7" x1="374.9" y1="-94.7" x2="765.9" y2="296.3"/><line class="cls-7" x1="379.2" y1="-98" x2="770.2" y2="293"/><line class="cls-7" x1="383.6" y1="-101.3" x2="774.6" y2="289.7"/><line class="cls-7" x1="388" y1="-104.6" x2="779" y2="286.4"/><line class="cls-7" x1="392.4" y1="-107.9" x2="783.4" y2="283.1"/><line class="cls-7" x1="396.8" y1="-111.2" x2="787.8" y2="279.8"/><line class="cls-7" x1="401.2" y1="-114.5" x2="792.2" y2="276.5"/><line class="cls-7" x1="405.5" y1="-117.7" x2="796.5" y2="273.3"/><line class="cls-7" x1="409.9" y1="-121" x2="800.9" y2="270"/><line class="cls-7" x1="414.3" y1="-124.3" x2="805.3" y2="266.7"/><line class="cls-7" x1="418.7" y1="-127.6" x2="809.7" y2="263.4"/><line class="cls-7" x1="423.1" y1="-130.9" x2="814.1" y2="260.1"/><line class="cls-7" x1="427.5" y1="-134.2" x2="818.5" y2="256.8"/><line class="cls-7" x1="431.8" y1="-137.5" x2="822.8" y2="253.5"/><line class="cls-7" x1="436.2" y1="-140.7" x2="827.2" y2="250.3"/><line class="cls-7" x1="440.6" y1="-144" x2="831.6" y2="247"/><line class="cls-7" x1="445" y1="-147.3" x2="836" y2="243.7"/><line class="cls-7" x1="449.4" y1="-150.6" x2="840.4" y2="240.4"/><line class="cls-7" x1="453.8" y1="-153.9" x2="844.8" y2="237.1"/><line class="cls-7" x1="458.1" y1="-157.2" x2="849.1" y2="233.8"/><line class="cls-7" x1="462.5" y1="-160.5" x2="853.5" y2="230.5"/><line class="cls-7" x1="466.9" y1="-163.8" x2="857.9" y2="227.2"/><line class="cls-7" x1="471.3" y1="-167" x2="862.3" y2="224"/><line class="cls-7" x1="475.7" y1="-170.3" x2="866.7" y2="220.7"/></g><line class="cls-8" x1="359.3" y1="272.7" x2="359.3" y2="272.7"/><polyline class="cls-9" points="354.3 271.5 350.7 270.7 339 271.3 327.7 267.3 316.9 269.2"/><line class="cls-8" x1="314.3" y1="269.7" x2="314.3" y2="269.7"/><line class="cls-8" x1="313.7" y1="274" x2="313.7" y2="274"/><polyline class="cls-10" points="308.4 275 304.7 275.7 300.3 277 292.7 287.7 290.4 288.6"/><line class="cls-8" x1="288" y1="289.7" x2="288" y2="289.7"/><line class="cls-8" x1="287.3" y1="293" x2="287.3" y2="293"/><line class="cls-11" x1="283.1" y1="293.9" x2="277.5" y2="297.7"/><line class="cls-8" x1="275.7" y1="299" x2="275.7" y2="299"/><line class="cls-12" x1="275" y1="303.2" x2="274" y2="309.6"/><line class="cls-8" x1="273.7" y1="311.7" x2="273.7" y2="311.7"/><polyline class="cls-13" points="268.7 314.6 267 315.7 266.8 316.5"/><line class="cls-8" x1="266" y1="319.3" x2="266" y2="319.3"/><line class="cls-14" x1="260" y1="320.3" x2="257" y2="320.8"/><line class="cls-8" x1="254" y1="321.3" x2="254" y2="321.3"/><polyline class="cls-15" points="254 326.4 254 327 248 340.7 244.3 343 241.2 342.4"/><line class="cls-8" x1="238.7" y1="342" x2="238.7" y2="342"/><line class="cls-8" x1="235.3" y1="345.3" x2="235.3" y2="345.3"/><polyline class="cls-16" points="230.7 344.4 229 344 222 338 216.8 335.6"/><line class="cls-8" x1="214.7" y1="334.7" x2="214.7" y2="334.7"/><line class="cls-17" x1="211" y1="336.7" x2="209.2" y2="337.7"/><line class="cls-8" x1="207.3" y1="338.7" x2="207.3" y2="338.7"/><polyline class="cls-18" points="206 343.7 204 351 195.3 358 192.3 361.7"/><line class="cls-8" x1="190.7" y1="363.7" x2="190.7" y2="363.7"/><line class="cls-8" x1="186.7" y1="364" x2="186.7" y2="364"/><line class="cls-8" x1="185.7" y1="368" x2="185.7" y2="368"/><polyline class="cls-19" points="181.1 367.6 171 366.7 170 367.2"/><line class="cls-8" x1="168" y1="368.3" x2="168" y2="368.3"/><polyline class="cls-20" points="167.1 363.5 167 362.7 170.7 352 167.7 337 163.3 329.3 158.9 325.6"/><line class="cls-8" x1="157" y1="324" x2="157" y2="324"/><line class="cls-8" x1="375" y1="367.3" x2="375" y2="367.3"/><line class="cls-8" x1="371.7" y1="365.7" x2="371.7" y2="365.7"/><line class="cls-21" x1="371.7" y1="371.2" x2="371.7" y2="373.9"/><line class="cls-8" x1="371.7" y1="376.7" x2="371.7" y2="376.7"/><polyline class="cls-22" points="366.7 376.5 361.3 376.3 354.7 373 352 367.7 349 364.7 348.6 360.2"/><line class="cls-8" x1="348.3" y1="357.7" x2="348.3" y2="357.7"/><polyline class="cls-23" points="351.9 354.6 353.7 353 355 348.7 357.7 344.6"/><line class="cls-8" x1="359" y1="342.7" x2="359" y2="342.7"/><polyline class="cls-24" points="363 343.9 363.3 344 368.3 347.5"/><line class="cls-8" x1="370" y1="348.7" x2="370" y2="348.7"/><line class="cls-8" x1="371" y1="347.7" x2="371" y2="347.7"/><line class="cls-8" x1="321.5" y1="268.5" x2="321.5" y2="268.5"/><line class="cls-25" x1="318.5" y1="266.3" x2="317" y2="265.1"/><line class="cls-8" x1="315.5" y1="264" x2="315.5" y2="264"/><line class="cls-8" x1="316" y1="260.5" x2="316" y2="260.5"/><polyline class="cls-26" points="311.3 258.1 309 257 305.5 257.5 302.5 256.5 298.6 256.2"/><line class="cls-8" x1="296" y1="256" x2="296" y2="256"/><polyline class="cls-27" points="294.6 251.9 294 250 290.6 247"/><line class="cls-8" x1="289" y1="245.5" x2="289" y2="245.5"/><line class="cls-28" x1="289.7" y1="239.7" x2="290.3" y2="236.8"/><line class="cls-8" x1="291" y1="234" x2="291" y2="234"/><line class="cls-29" x1="286.3" y1="233.8" x2="283.9" y2="233.6"/><line class="cls-8" x1="281.5" y1="233.5" x2="281.5" y2="233.5"/><line class="cls-30" x1="281.7" y1="229.1" x2="280.8" y2="227.1"/><line class="cls-8" x1="280" y1="225" x2="280" y2="225"/><polyline class="cls-31" points="275.3 223.6 271.5 222.5 261.5 215 256.5 208 256 203 249 192.5 243.5 185"/><line class="cls-8" x1="242" y1="183" x2="242" y2="183"/><line class="cls-8" x1="243" y1="179" x2="243" y2="179"/><polyline class="cls-32" points="238.3 179 235.5 179 228.5 183.5 225.8 188.3"/><line class="cls-8" x1="224.7" y1="190.3" x2="224.7" y2="190.3"/><polyline class="cls-33" points="221.4 186.4 219 183.7 210.7 182.3 184.7 187.7 179.9 188.3"/><line class="cls-8" x1="177.3" y1="188.7" x2="177.3" y2="188.7"/><line class="cls-34" x1="177.3" y1="193.8" x2="177.3" y2="263.4"/><line class="cls-8" x1="177.3" y1="266" x2="177.3" y2="266"/><line class="cls-35" x1="172.8" y1="266" x2="161.3" y2="266"/><line class="cls-8" x1="159" y1="266" x2="159" y2="266"/><line class="cls-36" x1="158.8" y1="271" x2="154.7" y2="398.2"/><line class="cls-8" x1="397.5" y1="105" x2="397.5" y2="105"/><line class="cls-37" x1="394.8" y1="101.9" x2="392.9" y2="101.2"/><line class="cls-8" x1="391" y1="100.5" x2="391" y2="100.5"/><polyline class="cls-38" points="389.1 95.8 388.5 94.5 392.5 84.5 392 80.5 392.2 79"/><line class="cls-8" x1="392.5" y1="76.5" x2="392.5" y2="76.5"/><polyline class="cls-39" points="396.9 75.5 399 75 402.3 72"/><line class="cls-8" x1="404" y1="70.5" x2="404" y2="70.5"/><line class="cls-8" x1="399.5" y1="70" x2="399.5" y2="70"/><line class="cls-40" x1="397.6" y1="64.3" x2="398.5" y2="61.4"/><line class="cls-8" x1="399.5" y1="58.5" x2="399.5" y2="58.5"/><line class="cls-41" x1="398" y1="56" x2="397.3" y2="54.8"/><line class="cls-8" x1="396.5" y1="53.5" x2="396.5" y2="53.5"/><line class="cls-42" x1="398.3" y1="50.3" x2="399.1" y2="48.6"/><line class="cls-8" x1="400" y1="47" x2="400" y2="47"/><line class="cls-43" x1="398.5" y1="44" x2="397.8" y2="42.5"/><line class="cls-8" x1="397" y1="41" x2="397" y2="41"/><line class="cls-44" x1="399.5" y1="40.8" x2="400.8" y2="40.6"/><line class="cls-8" x1="402" y1="40.5" x2="402" y2="40.5"/><line class="cls-45" x1="404" y1="38" x2="405" y2="36.8"/><line class="cls-8" x1="406" y1="35.5" x2="406" y2="35.5"/><line class="cls-46" x1="404.4" y1="31.7" x2="404.2" y2="29.6"/><line class="cls-8" x1="404" y1="27.5" x2="404" y2="27.5"/><line class="cls-47" x1="401.3" y1="26.8" x2="399.9" y2="26.4"/><line class="cls-8" x1="398.5" y1="26" x2="398.5" y2="26"/><polyline class="cls-48" points="398.8 21.8 399 20 398.7 15.6"/><line class="cls-8" x1="398.5" y1="13.5" x2="398.5" y2="13.5"/><line class="cls-49" x1="394.3" y1="11.8" x2="392.1" y2="10.9"/><line class="cls-8" x1="390" y1="10" x2="390" y2="10"/><line class="cls-8" x1="392" y1="5.5" x2="392" y2="5.5"/><polyline class="cls-50" points="312.4 -4.7 312 -2.5 303.9 5.2"/><line class="cls-8" x1="302" y1="7" x2="302" y2="7"/><polyline class="cls-51" points="305.9 10.4 306 10.5 309 19.5 308 22.5 307 28 307.5 34.5 306 44.5 302 52.5 303 57.9"/><line class="cls-8" x1="303.5" y1="60.5" x2="303.5" y2="60.5"/><polyline class="cls-52" points="308.2 63.5 310.5 65 314.2 69.4"/><line class="cls-8" x1="316" y1="71.5" x2="316" y2="71.5"/><line class="cls-53" x1="320.8" y1="70.7" x2="323.1" y2="71.4"/><line class="cls-8" x1="325.5" y1="72" x2="325.5" y2="72"/><line class="cls-8" x1="323" y1="68" x2="323" y2="68"/><line class="cls-54" x1="326.8" y1="67.1" x2="328.6" y2="66.6"/><line class="cls-8" x1="330.5" y1="66" x2="330.5" y2="66"/><line class="cls-55" x1="330.5" y1="71.2" x2="330.5" y2="89.4"/><line class="cls-8" x1="330.5" y1="92" x2="330.5" y2="92"/><line class="cls-8" x1="328" y1="91" x2="328" y2="91"/><line class="cls-8" x1="328" y1="88" x2="328" y2="88"/><line class="cls-8" x1="326" y1="87" x2="326" y2="87"/><polyline class="cls-56" points="322.3 89.6 319.5 91.5 316.2 90.9"/><line class="cls-8" x1="314" y1="90.5" x2="314" y2="90.5"/><line class="cls-57" x1="313" y1="84.9" x2="311" y2="82.7"/><line class="cls-8" x1="309" y1="80.5" x2="309" y2="80.5"/><line class="cls-8" x1="306.5" y1="81.5" x2="306.5" y2="81.5"/><line class="cls-58" x1="305.4" y1="76.6" x2="304.4" y2="74.3"/><line class="cls-8" x1="303.5" y1="72" x2="303.5" y2="72"/><polyline class="cls-59" points="297.9 70.7 293.5 68.5 291 69 289.9 68.9"/><line class="cls-8" x1="287" y1="68.5" x2="287" y2="68.5"/><line class="cls-60" x1="286.5" y1="65.5" x2="286.3" y2="64"/><line class="cls-8" x1="286" y1="62.5" x2="286" y2="62.5"/><line class="cls-61" x1="283.8" y1="61.3" x2="282.6" y2="60.6"/><line class="cls-8" x1="281.5" y1="60" x2="281.5" y2="60"/><line class="cls-8" x1="280.5" y1="56" x2="280.5" y2="56"/><line class="cls-8" x1="276" y1="55" x2="276" y2="55"/><polyline class="cls-62" points="276 59.5 276 60 275.1 61.5"/><line class="cls-8" x1="274" y1="63.5" x2="274" y2="63.5"/><polyline class="cls-63" points="269.5 62.4 266 61.5 256.5 61 249.5 58.5 245.4 55.4"/><line class="cls-8" x1="243.5" y1="54" x2="243.5" y2="54"/><line class="cls-64" x1="243.3" y1="50.8" x2="243.1" y2="49.1"/><line class="cls-8" x1="243" y1="47.5" x2="243" y2="47.5"/><line class="cls-65" x1="238" y1="49" x2="230.5" y2="51.3"/><line class="cls-8" x1="228" y1="52" x2="228" y2="52"/><polyline class="cls-66" points="226 47.1 225.3 45.7 220.6 41.4"/><line class="cls-8" x1="218.7" y1="39.7" x2="218.7" y2="39.7"/><line class="cls-8" x1="216.7" y1="43.7" x2="216.7" y2="43.7"/><polyline class="cls-67" points="211.6 43.7 204.7 43.7 194 44.3 189.6 46.5"/><line class="cls-8" x1="187.3" y1="47.7" x2="187.3" y2="47.7"/><polyline class="cls-68" points="185.5 42.9 185.3 42.3 188.7 29.7 182.7 16.3 179.3 0 180.6 -8.7"/><polygon class="cls-69" points="409.7 17.7 411.7 25.7 416 31.3 416 34.7 416.7 40.7 415.7 47.3 418.7 54 418.3 58 414.7 62 412 67.7 413.3 71.7 415.7 72.3 416.3 77 419 82 418 86 417.3 90.7 419.3 95.7 423.7 96.7 423.7 100.7 421.7 103.7 425.3 108.7 428.3 107.7 428.7 103 433.3 108 436 111.3 437 110 435.3 106 433 98.7 428.3 97.3 427.7 92 427.7 77.7 432 55.7 429.7 51.3 425.3 46.7 423.3 43 425.7 37.7 423.3 29.3 421.3 23 418 14.3 412.8 8.3 409.5 9.8 409.7 17.7"/><polyline class="cls-70" points="432.7 153.3 430.3 151.3 427 142.7 427 133.7 432.7 129 435.3 125.7 437 120 435.7 115.3 436 111.3"/><line class="cls-8" x1="340" y1="135.5" x2="340" y2="135.5"/><polyline class="cls-71" points="335 135.5 324.5 135.5 314.6 142.1"/><line class="cls-8" x1="312.5" y1="143.5" x2="312.5" y2="143.5"/><line class="cls-72" x1="312.3" y1="148.8" x2="312.1" y2="151.4"/><line class="cls-8" x1="312" y1="154" x2="312" y2="154"/><polyline class="cls-73" points="307.1 154.8 305.5 155 292 161.5 288.5 170.5 277 182 269 182.5 262 181 257.4 182"/><line class="cls-8" x1="255" y1="182.5" x2="255" y2="182.5"/><polyline class="cls-74" points="251.8 179.3 251.5 179 243 179 239.5 176.5 238 174.7"/><line class="cls-8" x1="236.5" y1="173" x2="236.5" y2="173"/><polyline class="cls-75" points="231.5 172.7 228.5 172.5 223.3 170.3 208 173 184.7 179 170 179.7 162 180.3 143.3 177.7 126.7 175.7 118 167.7 40.7 168.3 27.4 159.7"/><line class="cls-8" x1="25.3" y1="158.3" x2="25.3" y2="158.3"/><line class="cls-76" x1="21.3" y1="161" x2="15.3" y2="165"/><line class="cls-8" x1="13.3" y1="166.3" x2="13.3" y2="166.3"/><line class="cls-8" x1="10.3" y1="165.2" x2="10.3" y2="165.2"/><polyline class="cls-77" points="453.7 202 453 197 452.5 191.5 446.5 186 439.5 180 433 175.5 430.5 169 428.5 162 410 154 403.5 146.5 391.5 135 384.5 134 374.5 136.5 361.5 136.5 357 137.5 352.5 136 340 135.5"/><line class="cls-8" x1="204.3" y1="173.8" x2="204.3" y2="173.8"/><polyline class="cls-78" points="200.8 170 190.7 159 183.3 148.3 185.9 82.9"/><line class="cls-8" x1="186" y1="80.3" x2="186" y2="80.3"/><polyline class="cls-79" points="191.3 81 213.3 83.7 220.1 82.2"/><line class="cls-8" x1="222.7" y1="81.7" x2="222.7" y2="81.7"/><polyline class="cls-80" points="220.5 77.4 220 76.3 222 69 222.6 46.7"/><line class="cls-8" x1="222.7" y1="44.3" x2="222.7" y2="44.3"/><line class="cls-8" x1="409.7" y1="9.9" x2="409.7" y2="9.9"/><polyline class="cls-81" points="404.5 9.4 401 9 388 4 384 3 376 -2 373.6 -3.9"/><polygon class="cls-82" points="432 55.7 443.7 55.7 448 51.7 455.3 57 464 58.7 469 55 476.7 58 486 54.7 488.7 49.3 495 50.7 499 52.7 508.7 46.7 514 47.7 521.3 43.3 537.7 35 539.7 41.7 538 51.3 536.7 57.3 537.7 73.3 540.3 79.7 539.7 84 538 90.7 539.3 101 540.3 107.7 543.7 116.7 541.7 122 538 126.7 540.7 129.3 535.3 137 527 148.7 519.3 156 509.7 163 498.3 165.7 486.3 170.7 473 179.3 467.3 185.7 459.3 194.7 456 199.7 453.7 202 451.7 201 447 203.7 441 211 431.3 218.7 426.3 218.7 423.3 216 426.3 224 424 231 427 237 432.3 242.3 432.3 246.3 431.7 251 435.7 258.7 436.7 264.3 436 272 437.3 275.7 438 273.7 438.7 267.3 440.3 267 441 271.7 440.3 275.3 439.3 279.3 440 283.7 441.3 285.3 438.7 290.3 437.3 298.7 436 302.7 438.3 306.7 438 311 432.7 319 423.3 324.3 405 330 392.3 336.3 385.7 344 385.3 351.7 388 355 389.7 350.7 391 352.7 389.3 358.7 388.7 367 375 367.3 373.3 361.7 373.3 355.3 374 350.7 371 347.7 370.7 344.3 372.3 339.7 372.3 314.3 370 309.3 370 305.3 367.3 302 366 298 362.7 295 364.7 289.3 359.3 272.7 371.5 261 380.7 250.7 380 246.7 382 243.7 381.3 238.3 382 234.3 385.7 234 390.3 227.7 392.7 218.7 390.3 216 388 211 389.7 204.3 386.7 202 387.3 198 390.3 198 390 193.7 393.7 190.7 390.7 181.3 393.7 174 390 161 392 157.3 387.7 157 381 152 372 151.7 365.7 146 360.3 146 358.3 143.7 342.7 143.7 342 131.3 337.7 122.3 345.7 120.3 363.7 115 395.7 104.3 401.3 110 405.3 115 419 111 423.3 118.7 422.7 126.3 422.3 128.7 420 134 418.7 137.3 416 140 419.7 144.7 420.7 148 428 155.3 431 160 434.3 160 434.3 162.3 432.7 163.3 433 166.3 437.3 165.7 436.7 161 436 156.7 433.7 154 436 152 437.7 146 440.3 145.7 444.7 145.7 447 142.3 448.3 131.3 445.7 126.7 449.3 121.7 448.7 115.3 438.3 102.3 431 95.3 427.7 92 427 88.3 427 83 427.7 77.7 425.7 71.3 426.3 65.3 430 63 432 55.7"/><polygon class="cls-83" points="572.4 77.4 540.6 77.4 534.7 82.7 534.7 67.4 572.4 67.4 572.4 77.4"/><polygon class="cls-83" points="466.3 120.6 509.3 120.6 515.2 125.8 515.2 110.6 466.3 110.6 466.3 120.6"/><polygon class="cls-84" points="453.7 221.9 424.5 221.9 418.6 216.7 418.6 231.9 453.7 231.9 453.7 221.9"/><path class="cls-5" d="M540.5,75.2v-6h2.3a1.8,1.8,0,1,1,0,3.5H541v2.5h-0.5Zm3.5-4.2a1.2,1.2,0,0,0-1.3-1.3H541v2.6h1.7A1.2,1.2,0,0,0,544,70.9Z"/><path class="cls-5" d="M545.6,75.2v-6h3.8v0.5h-3.3v2.2h3.2v0.5h-3.2v2.4h3.3v0.5h-3.8Z"/><path class="cls-5" d="M555.8,75.2V69.9l-2.2,5.3h-0.2l-2.2-5.3v5.3h-0.5v-6h0.8l2,5,2-5h0.8v6h-0.5Z"/><path class="cls-5" d="M557.8,75.2v-6h2.5a1.5,1.5,0,0,1,1.7,1.5,1.4,1.4,0,0,1-1.1,1.4,1.5,1.5,0,0,1,1.2,1.5,1.5,1.5,0,0,1-1.7,1.6h-2.5Zm3.6-4.4a1.1,1.1,0,0,0-1.2-1.1h-1.9v2.2h1.9A1.1,1.1,0,0,0,561.4,70.7Zm0.1,2.8a1.2,1.2,0,0,0-1.3-1.2h-1.9v2.4h1.9A1.1,1.1,0,0,0,561.5,73.5Z"/><path class="cls-5" d="M567.7,75.2l-0.6-1.5h-3.2l-0.6,1.5h-0.6l2.5-6h0.6l2.5,6h-0.6Zm-2.2-5.5-1.4,3.5h2.8Z"/><path class="cls-5" d="M475,118.6l-3.8-5.2v5.2h-0.5v-6h0.5l3.8,5.1v-5.1h0.5v6H475Z"/><path class="cls-5" d="M481.4,118.6l-0.6-1.5h-3.2l-0.6,1.5h-0.6l2.5-6h0.6l2.5,6h-0.6Zm-2.2-5.5-1.4,3.5h2.8Z"/><path class="cls-5" d="M488,118.6v-5.3l-2.2,5.3h-0.2l-2.2-5.3v5.3h-0.5v-6h0.8l2,5,2-5h0.8v6H488Z"/><path class="cls-5" d="M490,118.6v-6h2.3a1.8,1.8,0,1,1,0,3.5h-1.7v2.5H490Zm3.5-4.2a1.2,1.2,0,0,0-1.3-1.3h-1.7v2.6h1.7A1.2,1.2,0,0,0,493.5,114.3Z"/><path class="cls-5" d="M495.1,116.3v-3.7h0.5v3.7a1.8,1.8,0,1,0,3.6,0v-3.7h0.5v3.7A2.3,2.3,0,1,1,495.1,116.3Z"/><path class="cls-5" d="M501.3,118.6v-6h0.5v5.5h2.9v0.5h-3.4Z"/><path class="cls-5" d="M510.2,118.6l-0.6-1.5h-3.2l-0.6,1.5h-0.6l2.5-6h0.6l2.5,6h-0.6Zm-2.2-5.5-1.4,3.5h2.8Z"/><polygon class="cls-85" points="452 67.9 503.3 67.9 509.2 82.7 509.2 57.9 452 57.9 452 67.9"/><path class="cls-83" d="M460,65.9V61.4l-1.8,4.5h-0.5l-1.8-4.5v4.5h-1.1v-6h1.5l1.6,4,1.6-4H461v6H460Z"/><path class="cls-83" d="M462.1,62.9a3.1,3.1,0,1,1,3.1,3.1A3,3,0,0,1,462.1,62.9Zm5.1,0a2,2,0,1,0-2,2.2A2,2,0,0,0,467.1,62.9Z"/><path class="cls-83" d="M473.4,65.9l-3.1-4.3v4.3h-1.1v-6h1.1l3.1,4.2V59.9h1.1v6h-1Z"/><path class="cls-83" d="M477.1,65.9V60.8h-1.8V59.9H480v0.9h-1.8v5.1h-1.1Z"/><path class="cls-83" d="M480.9,65.9v-6H485v0.9h-3.1v1.6h3v0.9h-3v1.7H485v0.9h-4.1Z"/><path class="cls-83" d="M486.1,65.9v-6h2.6a1.9,1.9,0,1,1,0,3.8h-1.6v2.2h-1.1Zm3.5-4.1a0.9,0.9,0,0,0-1-1h-1.4v1.9h1.4A0.9,0.9,0,0,0,489.6,61.8Z"/><path class="cls-83" d="M491.5,63.5V59.9h1.1v3.6a1.5,1.5,0,1,0,3.1,0V59.9h1.1v3.6A2.6,2.6,0,0,1,491.5,63.5Z"/><path class="cls-83" d="M498,65.9v-6h4.1v0.9h-3.1v1.6h3v0.9h-3v1.7h3.1v0.9H498Z"/><path class="cls-83" d="M503,65.9V65l3.1-4.2H503V59.9h4.4v0.9l-3.1,4.2h3.1v0.9H503Z"/><polygon class="cls-85" points="461.8 82.3 499.6 82.3 505.5 87.6 505.5 72.3 461.8 72.3 461.8 82.3"/><polygon class="cls-85" points="590 84.5 532.8 84.5 526.9 82.7 526.9 94.5 590 94.5 590 84.5"/><path class="cls-83" d="M467.1,80.3v-6h3a1.5,1.5,0,0,1,1.7,1.5,1.3,1.3,0,0,1-1,1.4,1.5,1.5,0,0,1,1.2,1.5,1.6,1.6,0,0,1-1.7,1.6h-3Zm3.6-4.3a0.8,0.8,0,0,0-.8-0.8h-1.7v1.6h1.7A0.8,0.8,0,0,0,470.7,76Zm0.1,2.5a0.8,0.8,0,0,0-.9-0.8h-1.7v1.7h1.7A0.8,0.8,0,0,0,470.8,78.6Z"/><path class="cls-83" d="M477.2,80.3l-0.4-1.2H474l-0.4,1.2h-1.2l2.4-6H476l2.4,6h-1.2Zm-1.8-4.9-1.1,2.9h2.2Z"/><path class="cls-83" d="M479,80.3v-6h1.1v5.1h2.6v0.9H479Z"/><path class="cls-83" d="M487.9,80.3l-0.4-1.2h-2.8l-0.4,1.2h-1.2l2.4-6h1.3l2.4,6h-1.2Zm-1.8-4.9L485,78.3h2.2Z"/><path class="cls-83" d="M494.9,80.3V75.9l-1.8,4.5h-0.5l-1.8-4.5v4.5h-1.1v-6h1.5l1.6,4,1.6-4H496v6h-1.1Z"/><path class="cls-83" d="M501.5,80.3L501,79.2h-2.8l-0.4,1.2h-1.2l2.4-6h1.3l2.4,6h-1.2Zm-1.8-4.9-1.1,2.9h2.2Z"/><polygon class="cls-85" points="481.6 89.3 519.4 89.3 525.3 82.7 525.3 99.3 481.6 99.3 481.6 89.3"/><path class="cls-83" d="M491,97.3V92.8l-1.8,4.5h-0.5l-1.8-4.5v4.5h-1.1v-6h1.5l1.6,4,1.6-4H492v6H491Z"/><path class="cls-83" d="M493.3,97.3v-6h4.1v0.9h-3.1v1.6h3v0.9h-3v1.7h3.1v0.9h-4.1Z"/><path class="cls-83" d="M499.9,97.3V92.2h-1.8V91.2h4.7v0.9H501v5.1h-1.1Z"/><path class="cls-83" d="M503.2,94.3a3.1,3.1,0,1,1,3.1,3.1A3,3,0,0,1,503.2,94.3Zm5.1,0a2,2,0,1,0-2,2.2A2,2,0,0,0,508.3,94.3Z"/><path class="cls-83" d="M513.8,97.3L512.5,95h-1v2.2h-1.1v-6H513a1.8,1.8,0,0,1,2,1.9,1.7,1.7,0,0,1-1.4,1.8l1.5,2.4h-1.2Zm0.1-4.1a0.9,0.9,0,0,0-1-1h-1.4v1.9h1.4A0.9,0.9,0,0,0,513.9,93.1Z"/><path class="cls-83" d="M515.7,94.3a3.1,3.1,0,1,1,3.1,3.1A3,3,0,0,1,515.7,94.3Zm5.1,0a2,2,0,1,0-2,2.2A2,2,0,0,0,520.8,94.3Z"/><polygon class="cls-85" points="558.8 108.5 532.8 108.5 526.9 113.8 526.9 98.5 558.8 98.5 558.8 108.5"/><path class="cls-83" d="M536.5,106.5l-3.1-4.3v4.3h-1.1v-6h1.1l3.1,4.2v-4.2h1.1v6h-1Z"/><path class="cls-83" d="M538.8,106.5v-6h4.1v0.9h-3.1V103h3v0.9h-3v1.7h3.1v0.9h-4.1Z"/><path class="cls-83" d="M545.4,106.5v-5.1h-1.8v-0.9h4.7v0.9h-1.8v5.1h-1.1Z"/><path class="cls-83" d="M549.2,106.5v-6h1.1v6h-1.1Z"/><path class="cls-83" d="M555.7,106.5l-0.4-1.2h-2.8l-0.4,1.2h-1.2l2.4-6h1.3l2.4,6h-1.2Zm-1.8-4.9-1.1,2.9H555Z"/><path class="cls-83" d="M530.6,91.7l0.6-.8a2.6,2.6,0,0,0,1.9.8,1,1,0,0,0,1.2-.8c0-.5-0.6-0.7-1.4-0.9s-2.1-.5-2.1-1.8a1.9,1.9,0,0,1,2.2-1.8,3.1,3.1,0,0,1,2.3.8l-0.6.8a2.4,2.4,0,0,0-1.7-.7,0.9,0.9,0,0,0-1,.7c0,0.5.6,0.6,1.3,0.8s2.2,0.6,2.2,1.9-0.7,1.9-2.3,1.9A3.2,3.2,0,0,1,530.6,91.7Z"/><path class="cls-83" d="M536.3,92.5v-6h1.1v6h-1.1Z"/><path class="cls-83" d="M538.6,92.5v-6h1.1v5.1h2.6v0.9h-3.7Z"/><path class="cls-83" d="M544.2,92.5l-2.4-6h1.2l1.8,4.9,1.8-4.9h1.2l-2.4,6h-1.3Z"/><path class="cls-83" d="M552.3,92.5l-0.4-1.2h-2.8l-0.4,1.2h-1.2l2.4-6h1.3l2.4,6h-1.2Zm-1.8-4.9-1.1,2.9h2.2Z"/><path class="cls-83" d="M561.7,92.5V88l-1.8,4.5h-0.5L557.5,88v4.5h-1.1v-6H558l1.6,4,1.6-4h1.5v6h-1.1Z"/><path class="cls-83" d="M568.2,92.5l-0.4-1.2H565l-0.4,1.2h-1.2l2.4-6H567l2.4,6h-1.2Zm-1.8-4.9-1.1,2.9h2.2Z"/><path class="cls-83" d="M569.5,89.5a3,3,0,0,1,3.2-3.1,2.7,2.7,0,0,1,2.4,1.4l-0.9.5a1.8,1.8,0,0,0-1.5-.9,2.2,2.2,0,0,0,0,4.3,1.8,1.8,0,0,0,1.5-.9l0.9,0.5a2.7,2.7,0,0,1-2.4,1.4A3,3,0,0,1,569.5,89.5Z"/><path class="cls-83" d="M575.9,90.1V86.5h1.1v3.6a1.5,1.5,0,1,0,3.1,0V86.5h1.1v3.6A2.6,2.6,0,0,1,575.9,90.1Z"/><path class="cls-83" d="M586.3,92.5l-0.4-1.2h-2.8l-0.4,1.2h-1.2l2.4-6h1.3l2.4,6h-1.2Zm-1.8-4.9-1.1,2.9h2.2Z"/><polygon class="cls-85" points="634.3 41.9 540.6 41.9 534.7 47.1 534.7 31.9 634.3 31.9 634.3 41.9"/><path class="cls-83" d="M545.5,39.9V35.4l-1.8,4.5h-0.5l-1.8-4.5v4.5h-1.1v-6h1.5l1.6,4,1.6-4h1.5v6h-1.1Z"/><path class="cls-83" d="M547.6,36.9a3.1,3.1,0,1,1,3.1,3.1A3,3,0,0,1,547.6,36.9Zm5.1,0a2,2,0,1,0-2,2.2A2,2,0,0,0,552.7,36.9Z"/><path class="cls-83" d="M554.5,36.9a3,3,0,0,1,3.2-3.1,2.7,2.7,0,0,1,2.4,1.4l-0.9.5a1.8,1.8,0,0,0-1.5-.9,2.2,2.2,0,0,0,0,4.3,1.8,1.8,0,0,0,1.5-.9l0.9,0.5a2.7,2.7,0,0,1-2.4,1.4A3,3,0,0,1,554.5,36.9Z"/><path class="cls-83" d="M560.9,39.9v-6h1.1v6h-1.1Z"/><path class="cls-83" d="M568.4,39.9V35.4l-1.8,4.5h-0.5l-1.8-4.5v4.5h-1.1v-6h1.5l1.6,4,1.6-4h1.5v6h-1.1Z"/><path class="cls-83" d="M570.7,39.9v-6h3a1.5,1.5,0,0,1,1.7,1.5,1.3,1.3,0,0,1-1,1.4,1.5,1.5,0,0,1,1.2,1.5,1.6,1.6,0,0,1-1.7,1.6h-3Zm3.6-4.3a0.8,0.8,0,0,0-.8-0.8h-1.7v1.6h1.7A0.8,0.8,0,0,0,574.3,35.6Zm0.1,2.5a0.8,0.8,0,0,0-.9-0.8h-1.7v1.7h1.7A0.8,0.8,0,0,0,574.4,38.1Z"/><path class="cls-83" d="M576.3,36.9a3.1,3.1,0,1,1,3.1,3.1A3,3,0,0,1,576.3,36.9Zm5.1,0a2,2,0,1,0-2,2.2A2,2,0,0,0,581.4,36.9Z"/><path class="cls-83" d="M587.3,39.9l-0.4-1.2h-2.8l-0.4,1.2h-1.2l2.4-6h1.3l2.4,6h-1.2Zm-1.8-4.9-1.1,2.9h2.2Z"/><path class="cls-83" d="M591.5,39.9v-6h2.2a3,3,0,1,1,0,6h-2.2Zm4.3-3a1.9,1.9,0,0,0-2.1-2.1h-1.2v4.2h1.2A2,2,0,0,0,595.8,36.9Z"/><path class="cls-83" d="M601.8,39.9l-0.4-1.2h-2.8l-0.4,1.2H597l2.4-6h1.3l2.4,6h-1.2ZM600,34.9l-1.1,2.9H601Z"/><path class="cls-83" d="M606,39.9v-6h2.6a1.9,1.9,0,1,1,0,3.8H607v2.2H606Zm3.5-4.1a0.9,0.9,0,0,0-1-1H607v1.9h1.4A0.9,0.9,0,0,0,609.5,35.8Z"/><path class="cls-83" d="M614.9,39.9l-1.3-2.2h-1v2.2h-1.1v-6h2.6a1.8,1.8,0,0,1,2,1.9,1.7,1.7,0,0,1-1.4,1.8l1.5,2.4h-1.2Zm0.1-4.1a0.9,0.9,0,0,0-1-1h-1.4v1.9h1.4A0.9,0.9,0,0,0,614.9,35.8Z"/><path class="cls-83" d="M621.3,39.9l-0.4-1.2h-2.8l-0.4,1.2h-1.2l2.4-6h1.3l2.4,6h-1.2Zm-1.8-4.9-1.1,2.9h2.2Z"/><path class="cls-83" d="M623.1,39.9v-6h1.1v6h-1.1Z"/><path class="cls-83" d="M629.7,39.9l-0.4-1.2h-2.8L626,39.9h-1.2l2.4-6h1.3l2.4,6h-1.2Zm-1.8-4.9-1.1,2.9h2.2Z"/><polygon class="cls-85" points="601.3 63.8 544.3 63.8 544.3 59 538.3 53.8 544.6 53.8 601.3 53.8 601.3 63.8"/><path class="cls-83" d="M547.3,61.8v-6h1.1v6h-1.1Z"/><path class="cls-83" d="M549.7,61.8v-6h1.1v5.1h2.6v0.9h-3.7Z"/><path class="cls-83" d="M558.5,61.8V59.2h-3.1v2.6h-1.1v-6h1.1v2.5h3.1V55.8h1.1v6h-1.1Z"/><path class="cls-83" d="M565,61.8l-0.4-1.2h-2.8l-0.4,1.2h-1.2l2.4-6h1.3l2.4,6H565Zm-1.8-4.9-1.1,2.9h2.2Z"/><path class="cls-83" d="M569.2,61.8v-6h2.2a3,3,0,1,1,0,6h-2.2Zm4.3-3a1.9,1.9,0,0,0-2.1-2.1h-1.2v4.2h1.2A2,2,0,0,0,573.5,58.8Z"/><path class="cls-83" d="M575.3,58.8a3.1,3.1,0,1,1,3.1,3.1A3,3,0,0,1,575.3,58.8Zm5.1,0a2,2,0,1,0-2,2.2A2,2,0,0,0,580.4,58.8Z"/><path class="cls-83" d="M584.8,61.8v-6h1.1v6h-1.1Z"/><path class="cls-83" d="M587.1,61.8v-6h3a1.5,1.5,0,0,1,1.7,1.5,1.3,1.3,0,0,1-1,1.4,1.5,1.5,0,0,1,1.2,1.5,1.6,1.6,0,0,1-1.7,1.6h-3Zm3.6-4.3a0.8,0.8,0,0,0-.8-0.8h-1.7v1.6h1.7A0.8,0.8,0,0,0,590.7,57.5Zm0.1,2.5a0.8,0.8,0,0,0-.9-0.8h-1.7v1.7h1.7A0.8,0.8,0,0,0,590.8,60Z"/><path class="cls-83" d="M592.7,58.8a3.1,3.1,0,1,1,3.1,3.1A3,3,0,0,1,592.7,58.8Zm5.1,0a2,2,0,1,0-2,2.2A2,2,0,0,0,597.7,58.8Z"/><path class="cls-2" d="M425.7,229.5v-6h2.7a1.5,1.5,0,0,1,1.7,1.5,1.4,1.4,0,0,1-1.1,1.4,1.5,1.5,0,0,1,1.2,1.5,1.6,1.6,0,0,1-1.7,1.6h-2.7Zm3.6-4.4a0.9,0.9,0,0,0-1-1h-1.8v1.9h1.8A0.9,0.9,0,0,0,429.3,225.1Zm0.1,2.7a1,1,0,0,0-1.1-1h-1.8v2.1h1.8A1,1,0,0,0,429.4,227.8Z"/><path class="cls-2" d="M431.4,229.5v-6h3.9v0.7h-3.2v1.9h3.1v0.7h-3.1v2.1h3.2v0.7h-3.9Z"/><path class="cls-2" d="M436.5,229.5v-6h0.7v6h-0.7Z"/><path class="cls-2" d="M442.1,229.5l-1.5-2.4h-1.2v2.4h-0.7v-6H441a1.7,1.7,0,0,1,1.9,1.8,1.7,1.7,0,0,1-1.6,1.7l1.6,2.4h-0.9Zm0-4.2a1.1,1.1,0,0,0-1.2-1.1h-1.6v2.3H441A1.1,1.1,0,0,0,442.2,225.3Z"/><path class="cls-2" d="M448.4,229.5l-0.5-1.3h-3l-0.5,1.3h-0.9l2.4-6h0.9l2.4,6h-0.9Zm-2-5.2-1.3,3.2h2.5Z"/><polygon class="cls-84" points="426.1 340.9 387.9 340.9 382 346.2 382 330.9 426.1 330.9 426.1 340.9"/><path class="cls-2" d="M392.3,338.9V334l-2,4.9H390l-2-4.9v4.9h-0.7v-6h1.1l1.9,4.5,1.9-4.5h1.1v6h-0.7Z"/><path class="cls-2" d="M398.8,338.9l-0.5-1.3h-3l-0.5,1.3h-0.9l2.4-6h0.9l2.4,6h-0.9Zm-2-5.2-1.3,3.2H398Z"/><path class="cls-2" d="M400.4,338.9v-6h2.4a1.8,1.8,0,1,1,0,3.6h-1.7v2.4h-0.7Zm3.5-4.2a1.1,1.1,0,0,0-1.2-1.1h-1.6v2.3h1.6A1.1,1.1,0,0,0,403.9,334.7Z"/><path class="cls-2" d="M405.7,336.6v-3.7h0.7v3.7a1.7,1.7,0,1,0,3.4,0v-3.7h0.7v3.7A2.4,2.4,0,0,1,405.7,336.6Z"/><path class="cls-2" d="M413.5,338.9v-5.3h-1.9v-0.7h4.6v0.7h-1.9v5.3h-0.7Z"/><path class="cls-2" d="M416.6,335.9a3,3,0,1,1,3,3.1A2.9,2.9,0,0,1,416.6,335.9Zm5.2,0a2.2,2.2,0,1,0-2.2,2.4A2.2,2.2,0,0,0,421.8,335.9Z"/><path class="cls-5" d="M318,182.2l2.4-4.5H318v-0.8h3.4v0.7l-2.4,4.5h2.5v0.8H318v-0.7Z"/><path class="cls-5" d="M322.5,176.9h0.9v6h-0.9v-6Z"/><path class="cls-5" d="M328.8,178.3l-1.5,4.6h-0.3l-1.5-4.6v4.6h-0.9v-6h1.2l1.4,4.1,1.4-4.1h1.2v6h-0.8v-4.6Z"/><path class="cls-5" d="M330.8,176.9H333a1.4,1.4,0,0,1,1.5,1.5,1.3,1.3,0,0,1-.9,1.4,1.4,1.4,0,0,1,1,1.5,1.5,1.5,0,0,1-1.5,1.6h-2.2v-6Zm2,2.6a0.9,0.9,0,0,0,0-1.8h-1.1v1.8h1.1Zm0,2.7a0.8,0.8,0,0,0,.9-1,0.9,0.9,0,0,0-.9-1h-1.1v1.9h1.1Z"/><path class="cls-5" d="M338.4,181.7h-2.1l-0.4,1.3H335l1.8-6h1l1.8,6h-0.9Zm-2-.8h1.8l-0.9-3.2Z"/><path class="cls-5" d="M340.3,176.9h2.1a1.4,1.4,0,0,1,1.5,1.5,1.3,1.3,0,0,1-.9,1.4,1.4,1.4,0,0,1,1,1.5,1.5,1.5,0,0,1-1.5,1.6h-2.2v-6Zm2,2.6a0.9,0.9,0,0,0,0-1.8h-1.1v1.8h1.1Zm0,2.7a0.8,0.8,0,0,0,.9-1,0.9,0.9,0,0,0-.9-1h-1.1v1.9h1.1Z"/><path class="cls-5" d="M345,176.9h0.9v4a1.2,1.2,0,1,0,2.3,0v-4h0.9v4a2,2,0,1,1-4,0v-4Z"/><path class="cls-5" d="M350.3,176.9h3.2v0.8h-2.3v1.8h2.3v0.8h-2.3v1.9h2.3v0.8h-3.2v-6Zm1.4-.5,1-1.3h0.7l-1.2,1.3h-0.5Z"/><path class="cls-5" d="M277.4,115.8l2.4-4.5h-2.4v-0.8h3.4v0.7l-2.4,4.5h2.5v0.8h-3.5v-0.7Z"/><path class="cls-5" d="M284.6,115.2h-2.1l-0.4,1.3h-0.9l1.8-6h1l1.8,6H285Zm-1.1-6.1-0.6.9h-0.5l0.7-1.3h0.7l0.7,1.3h-0.5Zm-0.9,5.4h1.8l-0.9-3.2Z"/><path class="cls-5" d="M290.8,111.9l-1.5,4.6h-0.3l-1.5-4.6v4.6h-0.9v-6h1.2l1.4,4.1,1.4-4.1h1.2v6h-0.8v-4.6Z"/><path class="cls-5" d="M292.8,110.5h2.1a1.4,1.4,0,0,1,1.5,1.5,1.3,1.3,0,0,1-.9,1.4,1.4,1.4,0,0,1,1,1.5,1.5,1.5,0,0,1-1.5,1.6h-2.2v-6Zm2,2.6a0.9,0.9,0,0,0,0-1.8h-1.1v1.8h1.1Zm0,2.7a0.8,0.8,0,0,0,.9-1,0.9,0.9,0,0,0-.9-1h-1.1v1.9h1.1Z"/><path class="cls-5" d="M297.6,110.5h0.9v6h-0.9v-6Z"/><path class="cls-5" d="M302.4,115.2h-2.1l-0.4,1.3h-0.9l1.8-6h1l1.8,6h-0.9Zm-2-.8h1.8l-0.9-3.2Z"/><path class="cls-5" d="M398.8,89.9l-1.5,4.6H397l-1.5-4.6v4.6h-0.9v-6h1.2l1.4,4.1,1.4-4.1h1.2v6h-0.8V89.9Z"/><path class="cls-5" d="M403.7,93.2h-2.1l-0.4,1.3h-0.9l1.8-6h1l1.8,6h-0.9Zm-2-.8h1.8l-0.9-3.2Z"/><path class="cls-5" d="M405.6,88.5h0.9v5.2h2.1v0.8h-3v-6Z"/><path class="cls-5" d="M412.3,93.2h-2.1l-0.4,1.3h-0.9l1.8-6h1l1.8,6h-0.9Zm-2-.8h1.8l-0.9-3.2Z"/><path class="cls-5" d="M416.6,90l-0.9,4.5h-0.9l-1.4-6h0.9l0.9,4.7,1-4.7h0.7l1,4.7,0.9-4.7h0.9l-1.3,6h-0.9Z"/><path class="cls-5" d="M420.5,88.5h0.9v6h-0.9v-6Z"/><path class="cls-5" d="M458.1,34.3h-1.4V33.5h3.7v0.8H459v5.2h-0.9V34.3Z"/><path class="cls-5" d="M463.6,38.2h-2.1l-0.4,1.3h-0.9l1.8-6h1l1.8,6h-0.9Zm-2-.8h1.8l-0.9-3.2Z"/><path class="cls-5" d="M466.3,35.1v4.4h-0.9v-6h0.9l2.3,4.3V33.5h0.9v6h-0.8Z"/><path class="cls-5" d="M470.5,38.8l2.4-4.5h-2.4V33.5h3.4v0.7l-2.4,4.5H474v0.8h-3.5V38.8Z"/><path class="cls-5" d="M477.7,38.2h-2.1l-0.4,1.3h-0.9l1.8-6h1l1.8,6h-0.9Zm-1.1-6.1-0.6.9h-0.5l0.7-1.3H477l0.7,1.3h-0.5Zm-0.9,5.4h1.8l-0.9-3.2Z"/><path class="cls-5" d="M480.5,35.1v4.4h-0.9v-6h0.9l2.3,4.3V33.5h0.9v6h-0.8Z"/><path class="cls-5" d="M484.9,33.5h0.9v6h-0.9v-6Z"/><path class="cls-5" d="M489.7,38.2h-2.1l-0.4,1.3h-0.9l1.8-6h1l1.8,6h-0.9Zm-2-.8h1.8l-0.9-3.2Z"/><path class="cls-5" d="M620.8,213.1l-1.5,4.6H619l-1.5-4.6v4.6h-0.9v-6h1.2l1.4,4.1,1.4-4.1h1.2v6h-0.8v-4.6Z"/><path class="cls-5" d="M625.7,216.5h-2.1l-0.4,1.3h-0.9l1.8-6h1l1.8,6h-0.9Zm-2-.8h1.8l-0.9-3.2Z"/><path class="cls-5" d="M627.6,211.7h1.7c1.6,0,2.5,1.3,2.5,3s-0.9,3-2.5,3h-1.7v-6Zm1.7,5.2c1.1,0,1.6-1,1.6-2.2s-0.5-2.3-1.6-2.3h-0.8V217h0.8Z"/><path class="cls-5" d="M635.4,216.5h-2.1l-0.4,1.3H632l1.8-6h1l1.8,6h-0.9Zm-2-.8h1.8l-0.9-3.2Z"/><path class="cls-5" d="M639.3,211.6a2,2,0,0,1,1.8,1.2l-0.7.3a1.3,1.3,0,0,0-1.2-.8c-0.9,0-1.5.9-1.5,2.3s0.6,2.3,1.5,2.3a1.4,1.4,0,0,0,1.1-.5v-1.3H639v-0.8h2.2V217a2.3,2.3,0,0,1-1.9.9c-1.4,0-2.4-1.3-2.4-3.1S637.8,211.6,639.3,211.6Z"/><path class="cls-5" d="M645,216.5h-2.1l-0.4,1.3h-0.9l1.8-6h1l1.8,6h-0.9Zm-2-.8h1.8l-0.9-3.2Z"/><path class="cls-5" d="M646.9,216.4a1.9,1.9,0,0,0,1.4.7,0.9,0.9,0,0,0,1-.9,1.4,1.4,0,0,0-1.1-1.1c-0.7-.3-1.6-0.7-1.6-1.8a1.7,1.7,0,0,1,1.8-1.6,2.3,2.3,0,0,1,1.7.6l-0.4.6a1.7,1.7,0,0,0-1.3-.5,0.8,0.8,0,0,0-.9.8,1.4,1.4,0,0,0,1.1,1c0.8,0.4,1.6.8,1.6,1.9a1.7,1.7,0,0,1-1.9,1.7,2.4,2.4,0,0,1-1.9-.8Z"/><path class="cls-5" d="M650.9,214.8c0-1.8.9-3.1,2.4-3.1a2,2,0,0,1,1.9,1.3l-0.7.3a1.3,1.3,0,0,0-1.1-.8c-0.9,0-1.5,1-1.5,2.3s0.6,2.3,1.5,2.3a1.2,1.2,0,0,0,1.1-.9l0.7,0.3a2,2,0,0,1-1.9,1.3C651.9,217.9,650.9,216.6,650.9,214.8Z"/><path class="cls-5" d="M658.8,216.5h-2.1l-0.4,1.3h-0.9l1.8-6h1l1.8,6h-0.9Zm-2-.8h1.8l-0.9-3.2Z"/><path class="cls-5" d="M662.4,215.4h-0.8v2.3h-0.9v-6h2a1.7,1.7,0,0,1,1.7,1.8,1.6,1.6,0,0,1-1.2,1.7l1.2,2.5h-1Zm0.2-2.9h-1v2.2h1A1.1,1.1,0,0,0,662.5,212.5Z"/><path class="cls-5" d="M304.4,316.6h-2.1l-0.4,1.3H301l1.8-6h1l1.8,6h-0.9Zm-2-.8h1.8l-0.9-3.2Zm0.6-4.5,1-1.3h0.7l-1.2,1.3h-0.5Z"/><path class="cls-5" d="M306.3,311.8h3.2v0.8h-2.3v1.8h2.3v0.8h-2.3v2.7h-0.9v-6Z"/><path class="cls-5" d="M312.1,315.5h-0.8v2.3h-0.9v-6h2a1.7,1.7,0,0,1,1.7,1.8,1.6,1.6,0,0,1-1.2,1.7l1.2,2.5h-1Zm0.2-2.9h-1v2.2h1A1.1,1.1,0,0,0,312.3,312.6Z"/><path class="cls-5" d="M315.1,311.8H316v6h-0.9v-6Z"/><path class="cls-5" d="M317,314.8c0-1.8.9-3.1,2.4-3.1a2,2,0,0,1,1.9,1.3l-0.7.3a1.3,1.3,0,0,0-1.1-.8c-0.9,0-1.5,1-1.5,2.3s0.6,2.3,1.5,2.3a1.2,1.2,0,0,0,1.1-.9l0.7,0.3a2,2,0,0,1-1.9,1.3C317.9,317.9,317,316.6,317,314.8Z"/><path class="cls-5" d="M324.8,316.6h-2.1l-0.4,1.3h-0.9l1.8-6h1l1.8,6h-0.9Zm-2-.8h1.8l-0.9-3.2Z"/><path class="cls-5" d="M328.6,311.8h1.7c1.6,0,2.5,1.3,2.5,3s-0.9,3-2.5,3h-1.7v-6Zm1.7,5.2c1.1,0,1.6-1,1.6-2.2s-0.5-2.3-1.6-2.3h-0.8v4.5h0.8Z"/><path class="cls-5" d="M335.9,311.7c1.5,0,2.3,1.4,2.3,3.1s-0.9,3.1-2.3,3.1-2.3-1.3-2.3-3.1S334.4,311.7,335.9,311.7Zm0,0.8c-0.9,0-1.5,1-1.5,2.3s0.5,2.3,1.5,2.3,1.5-1,1.5-2.3S336.9,312.5,335.9,312.5Z"/><path class="cls-5" d="M341.3,316.5a1.9,1.9,0,0,0,1.4.7,0.9,0.9,0,0,0,1-.9,1.4,1.4,0,0,0-1.1-1.1c-0.7-.3-1.6-0.7-1.6-1.8a1.7,1.7,0,0,1,1.8-1.6,2.3,2.3,0,0,1,1.7.6l-0.4.6a1.7,1.7,0,0,0-1.3-.5,0.8,0.8,0,0,0-.9.8,1.4,1.4,0,0,0,1.1,1c0.8,0.4,1.6.8,1.6,1.9a1.7,1.7,0,0,1-1.9,1.7,2.4,2.4,0,0,1-1.9-.8Z"/><path class="cls-5" d="M345.5,311.8h0.9v4a1.2,1.2,0,1,0,2.3,0v-4h0.9v4a2,2,0,1,1-4,0v-4Z"/><path class="cls-5" d="M350.7,311.8h0.9v5.2h2.1v0.8h-3v-6Z"/><path class="cls-5" d="M318.3,361.9a1.9,1.9,0,0,0,1.4.7,0.9,0.9,0,0,0,1-.9,1.4,1.4,0,0,0-1.1-1.1c-0.7-.3-1.6-0.7-1.6-1.8a1.7,1.7,0,0,1,1.8-1.6,2.3,2.3,0,0,1,1.7.6l-0.4.6a1.7,1.7,0,0,0-1.3-.5,0.8,0.8,0,0,0-.9.8,1.4,1.4,0,0,0,1.1,1c0.8,0.4,1.6.8,1.6,1.9a1.7,1.7,0,0,1-1.9,1.7,2.4,2.4,0,0,1-1.9-.8Z"/><path class="cls-5" d="M322.6,357.2h0.9v4a1.2,1.2,0,1,0,2.3,0v-4h0.9v4a2,2,0,1,1-4,0v-4Z"/><path class="cls-5" d="M330.5,361.9h-2.1l-0.4,1.3h-0.9l1.8-6h1l1.8,6h-0.9Zm-2-.8h1.8l-0.9-3.2Z"/><path class="cls-5" d="M332.1,362.4l2.4-4.5h-2.4v-0.8h3.4v0.7l-2.4,4.5h2.5v0.8h-3.5v-0.7Z"/><path class="cls-5" d="M336.6,357.2h0.9v6h-0.9v-6Z"/><path class="cls-5" d="M338.6,357.2h0.9v5.2h2.1v0.8h-3v-6Z"/><path class="cls-5" d="M345.3,361.9h-2.1l-0.4,1.3h-0.9l1.8-6h1l1.8,6h-0.9Zm-1.1-6.1-0.6.9h-0.5l0.7-1.3h0.7l0.7,1.3h-0.5Zm-0.9,5.4h1.8l-0.9-3.2Z"/><path class="cls-5" d="M348,358.8v4.4h-0.9v-6h0.9l2.3,4.3v-4.3h0.9v6h-0.8Z"/><path class="cls-5" d="M352.4,357.2h1.7c1.6,0,2.5,1.3,2.5,3s-0.9,3-2.5,3h-1.7v-6Zm1.7,5.2c1.1,0,1.6-1,1.6-2.2s-0.5-2.3-1.6-2.3h-0.8v4.5h0.8Z"/><path class="cls-5" d="M357.6,357.2h0.9v6h-0.9v-6Z"/><path class="cls-5" d="M362.5,361.9h-2.1l-0.4,1.3h-0.9l1.8-6h1l1.8,6h-0.9Zm-2-.8h1.8l-0.9-3.2Z"/><polygon class="cls-86" points="403 165 405.1 166.3 464.6 166.3 464.6 157.3 463.3 154.5 403 165"/><rect class="cls-87" x="403" y="154.6" width="60.4" height="10.45"/><path class="cls-2" d="M412.9,157.8l-1.5,4.6h-0.3l-1.5-4.6v4.6h-0.9v-6h1.2l1.4,4.1,1.4-4.1h1.2v6h-0.8v-4.6Z"/><path class="cls-2" d="M417.1,156.4c1.5,0,2.3,1.4,2.3,3.1s-0.9,3.1-2.3,3.1-2.3-1.4-2.3-3.1S415.6,156.4,417.1,156.4Zm0,0.8c-0.9,0-1.5,1-1.5,2.3s0.5,2.3,1.5,2.3,1.5-1,1.5-2.3S418.1,157.1,417.1,157.1Z"/><path class="cls-2" d="M422.8,162.6l-0.2.4h0.3a0.6,0.6,0,0,1,.5.6,0.8,0.8,0,0,1-.9.7,1.4,1.4,0,0,1-.8-0.3l0.2-.4,0.6,0.3a0.4,0.4,0,0,0,.5-0.4,0.3,0.3,0,0,0-.3-0.3h-0.3l-0.3-.2,0.2-.6c-1.3-.1-2.1-1.4-2.1-3.1s0.9-3.1,2.4-3.1a2,2,0,0,1,1.9,1.3l-0.7.3a1.3,1.3,0,0,0-1.1-.8c-0.9,0-1.5,1-1.5,2.3s0.6,2.3,1.5,2.3a1.2,1.2,0,0,0,1.1-.9l0.7,0.3A2,2,0,0,1,422.8,162.6Z"/><path class="cls-2" d="M428.1,161.2H426l-0.4,1.3h-0.9l1.8-6h1l1.8,6h-0.9Zm-2-.8h1.8l-0.9-3.2Z"/><path class="cls-2" d="M434.2,157.8l-1.5,4.6h-0.3l-1.5-4.6v4.6H430v-6h1.2l1.4,4.1,1.4-4.1h1.2v6h-0.8v-4.6Z"/><path class="cls-2" d="M436.3,156.5h2.1a1.4,1.4,0,0,1,1.5,1.5,1.3,1.3,0,0,1-.9,1.4,1.4,1.4,0,0,1,1,1.5,1.5,1.5,0,0,1-1.5,1.6h-2.2v-6Zm2,2.6a0.9,0.9,0,0,0,0-1.8h-1.1V159h1.1Zm0,2.7a0.8,0.8,0,0,0,.9-1,0.9,0.9,0,0,0-.9-1h-1.1v1.9h1.1Z"/><path class="cls-2" d="M441,156.5h0.9v6H441v-6Z"/><path class="cls-2" d="M446.8,161.8l0.4,0.5-0.6.4-0.3-.5a2.1,2.1,0,0,1-1.1.3c-1.5,0-2.3-1.4-2.3-3.1s0.8-3.1,2.3-3.1,2.3,1.4,2.3,3.1A3.6,3.6,0,0,1,446.8,161.8Zm-1-.2-0.6-1,0.6-.4,0.5,0.9a3.4,3.4,0,0,0,.4-1.6c0-1.3-.5-2.3-1.5-2.3s-1.5,1-1.5,2.3,0.5,2.3,1.5,2.3Z"/><path class="cls-2" d="M448.5,156.5h0.9v4a1.2,1.2,0,1,0,2.3,0v-4h0.9v4a2,2,0,1,1-4,0v-4Z"/><path class="cls-2" d="M453.8,156.5H457v0.8h-2.3V159h2.3v0.8h-2.3v1.9H457v0.8h-3.2v-6Z"/></svg>