<svg id="other_countries" data-name="other countries" xmlns="http://www.w3.org/2000/svg" xmlns:xlink="http://www.w3.org/1999/xlink" viewBox="0 0 1621.49 758.15"><defs><style>.cls-1,.cls-10,.cls-11,.cls-4,.cls-7,.cls-8{fill:none;}.cls-17,.cls-2{fill:#c1272d;}.cls-3{clip-path:url(#clip-path);}.cls-10,.cls-11,.cls-4,.cls-8,.cls-9{stroke:#fff;}.cls-10,.cls-11,.cls-4,.cls-7{stroke-miterlimit:10;}.cls-14,.cls-5,.cls-9{fill:#fff;}.cls-6{clip-path:url(#clip-path-2);}.cls-7{stroke:#c1272d;stroke-width:0.75px;}.cls-8,.cls-9{stroke-linejoin:bevel;}.cls-10,.cls-8,.cls-9{stroke-width:2px;}.cls-11{stroke-width:3px;}.cls-12,.cls-16{fill:#231f20;}.cls-13{fill:#d1d3d4;}.cls-14,.cls-16,.cls-17{font-size:9px;font-family:Proxima Nova;}.cls-15{fill:#bcbec0;}.cls-16{font-weight:700;}</style><clipPath id="clip-path" transform="translate(535.03 157.6)"><path class="cls-1" d="M336.6,463.75l-13.24,13.69-19.2,18.41L284,512.67l-18.33,9.67-10.2-.15-4.76,5.89-5-1.41-11.67,4-15.33-4.33-7.33,2.33-8.33-.33-12.33.67-7.37,6.87L170,535.82l-13.9,5.57-7.37,2.17-6-5.22L134.69,534l-4.66-4.5-3-.82-2-11.33-6.66-12,7-3.38,0.94-6-1.4-13.43-8.54-16.22L111.5,457l-8.83-17.63-4-16.7L86.67,408l-10-14.67L68,368l-0.67-27.33-8-15.33,2-28-2-11.33L44,257.33,24.67,214.67l-12-15.33L10,178l1.33-30.67,8-20L24,100.67,33.33,90,36,80.67l6-1.33,8-28.67-10-22L34.67,7.33l6-7.33h475L519,11.33l4,14.33L532,31l6,8.33-1.67,8.33,1.3,0.35-16.3,8.32L514,60.67l-5.33-1-9.67,6-4-2-6.33-1.33L486,67.67,476.67,71,469,68l-5,3.67L455.33,70,448,64.67l-4.33,4H432L430,76l-3.67,2.33-0.67,6,2,6.33L427,96v5.33l0.67,3.67,3.33,3.33,7.33,7,10.33,13,0.67,6.33-3.67,5,2.67,4.67-1.33,11-2.33,3.33h-4.33l-2.67.33L436,165l-2.33,2,2.33,2.67,0.67,4.33,0.67,4.67-4.33.67-0.33-3,1.67-1V173H431l-3-4.67L420.67,161l-1-3.33L416,153l2.67-2.67L420,147l2.33-5.33,0.33-2.33,0.67-7.67L419,124l-13.67,4-4-5-5.67-5.67-32,10.67-18,5.33-8,2,4.33,9,0.67,12.33h15.67l2,2.33h5.33l6.33,5.67,9,0.33,6.67,5,4.33,0.33L390,174l3.67,13-3,7.33,3,9.33-3.67,3,0.33,4.33h-3l-0.67,4,3,2.33L388,224l2.33,5,2.33,2.67-2.33,9L385.67,247l-3.67.33-0.67,4,0.67,5.33-2,3,0.67,4L371.5,274l-12.17,11.67,5.33,16.67-2,5.67,3.33,3,1.33,4,2.67,3.33v4l2.33,5v25.33l-1.67,4.67,0.33,3.33,3,3-0.67,4.67v6.33l1.67,5.67,11.81-.29L383,391l-10.5,29-8,1.5L355,433l-4,6.37ZM626.71,154.91c-2.71-3.28-3.1.74-4.68,1.5l-2.37-2.75c-2.92,3.6-6.24,5.58-10.93,4.6-2.3-.48-2.86,1.52-2.7,3.51a18.45,18.45,0,0,1-3.38,12.45c-1.59,2.26-3.28,4.45-4.8,6.76-1.72,2.61-1.59,5.3-1.37,8.49,0.56,7.86,1.21,15.61,3.53,23.18a88.72,88.72,0,0,1,2.35,10.49,30.53,30.53,0,0,1,.27,5.87c0,1.1-.91,2.47-0.51,3.25,2.15,4.25-.57,7.09-2.51,10.26-3.51,5.73-8.18,10.86-9,18a4.84,4.84,0,0,1-2.81,3.18c-2.95,1-4.71,2.57-4.75,5.88a5.85,5.85,0,0,1-1.1,3.16c-4.4,6-3.09,13-3,19.63,0,1.64,1,3.29,1.71,4.89,1.7,4,3.56,8,5.16,12a3.82,3.82,0,0,1-.55,2.77c-3.13,5.51-2.44,11.09-.34,16.66,1.14,3,2,6.39,3.87,8.91a47.3,47.3,0,0,0,9.08,8.89c2.47,1.89,5.92,2.47,8.45,4.31,3.13,2.27,6.15,2.83,9.44,1.07,3-1.59,5.67-3.75,8.7-5.23,2.39-1.17,5.11-2.42,7.66-2.37,5.34,0.12,10.66-2.4,12.69-7.34,2.86-6.94,5.73-13.89,8.16-21,9.7-28.35,19.22-56.75,28.84-85.13,2.69-7.94,5.41-15.87,8.32-23.73,3.09-8.37,6.24-16.63,5-25.91a9.83,9.83,0,0,1,4.52-9.72c3-2.08,4.93-10.13,2.93-12.9-3.08-4.28-2.18-8.82-1.9-13.33,0.08-1.28,1.49-2.47,2.29-3.71,1.17,1,2.69,1.73,3.42,3,0.94,1.57,1.13,3.56,1.86,5.28s2.1,2.49,3.78.86c3-2.86,4.11-10.93,2.7-14.81a45.49,45.49,0,0,1-2.69-11.23c-1.22-13.54-.25-27.47-9.42-39.21-2.48-3.18-1.06-9-5.83-9.89L691,81.16c-0.21,2.77,0,5.78-.74,8.54-0.92,3.44-1.77,7.7-4.21,9.72-3.22,2.67-6.86,4.57-7.68,9.33l-1.7.92-4.06-6.86-1.32.89c0.44,2.28.87,4.56,1.32,6.83,0.58,3,2,6.13-2.7,7.28-1.08.26-2.67,1.94-2.55,2.75,0.17,1.18,1.51,2.43,2.66,3.17,1.69,1.09,3.12,2,1.9,4.34-2.67-2.64-4.25-2.43-6.09.73a22.34,22.34,0,0,1-1.76,3.31,22.49,22.49,0,0,1-3.22,2.67l-0.95-.88,1.36-4.88a60.3,60.3,0,0,0-4.49,5.45,4.9,4.9,0,0,0-.73,3.67c1.59,4.86,1.18,5.66-4.24,6.51l0.7-5.35-1.05-.9c-2.07,1.55-4.16,3.08-6.19,4.67-5.09,4-5.21,4.61-2,9.88-4.11,1.76-4.88-1.81-6.45-4.51l-2,2.86C630.42,149.24,630,149.42,626.71,154.91Z"/></clipPath><clipPath id="clip-path-2" transform="translate(535.03 157.6)"><polygon class="cls-1" points="432 68.67 443.67 68.67 448 64.67 455.33 70 464 71.67 469 68 476.67 71 486 67.67 488.67 62.33 495 63.67 499 65.67 508.67 59.67 514 60.67 521.33 56.33 537.67 48 539.67 54.67 538 64.33 536.67 70.33 537.67 86.33 540.33 92.67 539.67 97 538 103.67 539.33 114 540.33 120.67 543.67 129.67 541.67 135 538 139.67 540.67 142.33 535.33 150 527 161.67 519.33 169 509.67 176 498.33 178.67 486.33 183.67 473 192.33 467.33 198.67 459.33 207.67 456 212.67 453.67 215 451.67 214 447 216.67 441 224 431.33 231.67 426.33 231.67 423.25 229 426.33 237 424 244 427 250 432.33 255.33 432.33 259.33 431.67 264 435.67 271.67 436.67 277.33 436 285 437.33 288.67 438 286.67 438.67 280.33 440.33 280 441 284.67 440.33 288.33 439.33 292.33 440 296.67 441.33 298.33 438.67 303.33 437.33 311.67 436 315.67 438.33 319.67 438 324 432.67 332 423.33 337.33 405 343 392.33 349.33 385.67 357 385.33 364.67 388 368 389.67 363.67 391 365.67 389.33 371.67 388.67 380 375 380.33 373.33 374.67 373.33 368.33 374 363.67 371 360.67 370.67 357.33 372.33 352.67 372.33 327.33 370 322.33 370 318.33 367.33 315 366 311 362.67 308 364.67 302.33 359.33 285.67 371.5 274 380.67 263.67 380 259.67 382 256.67 381.33 251.33 382 247.33 385.67 247 390.33 240.67 392.67 231.67 390.33 229 388 224 389.67 217.33 386.67 215 387.33 211 390.33 211 390 206.67 393.67 203.67 390.67 194.33 393.67 187 390 174 392 170.33 387.67 170 381 165 372 164.67 365.67 159 360.33 159 358.33 156.67 342.67 156.67 342 144.33 337.67 135.33 345.67 133.33 363.67 128 395.67 117.33 401.33 123 405.33 128 419 124 423.33 131.67 422.67 139.33 422.33 141.67 420 147 418.67 150.33 416 153 419.67 157.67 420.67 161 428 168.33 431 173 434.33 173 434.33 175.33 432.67 176.33 433 179.33 437.33 178.67 436.67 174 436 169.67 433.67 167 436 165 437.67 159 440.33 158.67 444.67 158.67 447 155.33 448.33 144.33 445.67 139.67 449.33 134.67 448.67 128.33 438.33 115.33 431 108.33 427.67 105 427 101.33 427 96 427.67 90.67 425.67 84.33 426.33 78.33 430 76 432 68.67"/></clipPath></defs><title>mapa_obras</title><rect class="cls-2" x="535.03" y="157.6" width="726" height="549"/><g class="cls-3"><line class="cls-4" x1="1621.13" y1="115.57" x2="978.91" y2="757.79"/><line class="cls-4" x1="1614.27" y1="115.03" x2="972.43" y2="756.87"/><line class="cls-4" x1="1607.4" y1="114.5" x2="965.95" y2="755.95"/><line class="cls-4" x1="1600.53" y1="113.96" x2="959.47" y2="755.03"/><line class="cls-4" x1="1593.67" y1="113.43" x2="952.99" y2="754.11"/><line class="cls-4" x1="1586.8" y1="112.89" x2="946.51" y2="753.19"/><line class="cls-4" x1="1579.93" y1="112.36" x2="940.02" y2="752.27"/><line class="cls-4" x1="1573.07" y1="111.82" x2="933.54" y2="751.34"/><line class="cls-4" x1="1566.2" y1="111.29" x2="927.06" y2="750.42"/><line class="cls-4" x1="1559.33" y1="110.75" x2="920.58" y2="749.5"/><line class="cls-4" x1="1552.47" y1="110.22" x2="914.1" y2="748.58"/><line class="cls-4" x1="1545.6" y1="109.68" x2="907.62" y2="747.66"/><line class="cls-4" x1="1538.73" y1="109.15" x2="901.14" y2="746.74"/><line class="cls-4" x1="1531.86" y1="108.61" x2="894.66" y2="745.82"/><line class="cls-4" x1="1525" y1="108.08" x2="888.18" y2="744.9"/><line class="cls-4" x1="1518.13" y1="107.54" x2="881.7" y2="743.97"/><line class="cls-4" x1="1511.26" y1="107.01" x2="875.22" y2="743.05"/><line class="cls-4" x1="1504.4" y1="106.47" x2="868.74" y2="742.13"/><line class="cls-4" x1="1497.53" y1="105.94" x2="862.26" y2="741.21"/><line class="cls-4" x1="1490.66" y1="105.4" x2="855.78" y2="740.29"/><line class="cls-4" x1="1483.8" y1="104.87" x2="849.3" y2="739.37"/><line class="cls-4" x1="1476.93" y1="104.33" x2="842.82" y2="738.45"/><line class="cls-4" x1="1470.06" y1="103.8" x2="836.34" y2="737.52"/><line class="cls-4" x1="1463.2" y1="103.26" x2="829.86" y2="736.6"/><line class="cls-4" x1="1456.33" y1="102.73" x2="823.38" y2="735.68"/><line class="cls-4" x1="1449.46" y1="102.19" x2="816.9" y2="734.76"/><line class="cls-4" x1="1442.6" y1="101.66" x2="810.42" y2="733.84"/><line class="cls-4" x1="1435.73" y1="101.12" x2="803.93" y2="732.92"/><line class="cls-4" x1="1428.86" y1="100.59" x2="797.45" y2="732"/><line class="cls-4" x1="1422" y1="100.05" x2="790.97" y2="731.08"/><line class="cls-4" x1="1415.13" y1="99.52" x2="784.49" y2="730.15"/><line class="cls-4" x1="1408.26" y1="98.98" x2="778.01" y2="729.23"/><line class="cls-4" x1="1401.39" y1="98.45" x2="771.53" y2="728.31"/><line class="cls-4" x1="1394.53" y1="97.91" x2="765.05" y2="727.39"/><line class="cls-4" x1="1387.66" y1="97.38" x2="758.57" y2="726.47"/><line class="cls-4" x1="1380.79" y1="96.84" x2="752.09" y2="725.55"/><line class="cls-4" x1="1373.93" y1="96.31" x2="745.61" y2="724.63"/><line class="cls-4" x1="1367.06" y1="95.77" x2="739.13" y2="723.71"/><line class="cls-4" x1="1360.19" y1="95.24" x2="732.65" y2="722.78"/><line class="cls-4" x1="1353.33" y1="94.7" x2="726.17" y2="721.86"/><line class="cls-4" x1="1346.46" y1="94.17" x2="719.69" y2="720.94"/><line class="cls-4" x1="1339.59" y1="93.63" x2="713.21" y2="720.02"/><line class="cls-4" x1="1332.73" y1="93.1" x2="706.73" y2="719.1"/><line class="cls-4" x1="1325.86" y1="92.57" x2="700.25" y2="718.18"/><line class="cls-4" x1="1318.99" y1="92.03" x2="693.77" y2="717.26"/><line class="cls-4" x1="1312.13" y1="91.5" x2="687.29" y2="716.34"/><line class="cls-4" x1="1305.26" y1="90.96" x2="680.81" y2="715.41"/><line class="cls-4" x1="1298.39" y1="90.43" x2="674.32" y2="714.49"/><line class="cls-4" x1="1291.53" y1="89.89" x2="667.84" y2="713.57"/><line class="cls-4" x1="1284.66" y1="89.36" x2="661.36" y2="712.65"/><line class="cls-4" x1="1277.79" y1="88.82" x2="654.88" y2="711.73"/><line class="cls-4" x1="1270.93" y1="88.29" x2="648.4" y2="710.81"/><line class="cls-4" x1="1264.06" y1="87.75" x2="641.92" y2="709.89"/><line class="cls-4" x1="1257.19" y1="87.22" x2="635.44" y2="708.97"/><line class="cls-4" x1="1250.32" y1="86.68" x2="628.96" y2="708.04"/><line class="cls-4" x1="1243.46" y1="86.15" x2="622.48" y2="707.12"/><line class="cls-4" x1="1236.59" y1="85.61" x2="616" y2="706.2"/><line class="cls-4" x1="1229.72" y1="85.08" x2="609.52" y2="705.28"/><line class="cls-4" x1="1222.86" y1="84.54" x2="603.04" y2="704.36"/><line class="cls-4" x1="1215.99" y1="84.01" x2="596.56" y2="703.44"/><line class="cls-4" x1="1209.12" y1="83.47" x2="590.08" y2="702.52"/><line class="cls-4" x1="1202.26" y1="82.94" x2="583.6" y2="701.6"/><line class="cls-4" x1="1195.39" y1="82.4" x2="577.12" y2="700.67"/><line class="cls-4" x1="1188.52" y1="81.87" x2="570.64" y2="699.75"/><line class="cls-4" x1="1181.66" y1="81.33" x2="564.16" y2="698.83"/><line class="cls-4" x1="1174.79" y1="80.8" x2="557.68" y2="697.91"/><line class="cls-4" x1="1167.92" y1="80.26" x2="551.2" y2="696.99"/><line class="cls-4" x1="1161.06" y1="79.73" x2="544.71" y2="696.07"/><line class="cls-4" x1="1154.19" y1="79.19" x2="538.23" y2="695.15"/><line class="cls-4" x1="1147.32" y1="78.66" x2="531.75" y2="694.23"/><line class="cls-4" x1="1140.46" y1="78.12" x2="525.27" y2="693.3"/><line class="cls-4" x1="1133.59" y1="77.59" x2="518.79" y2="692.38"/><line class="cls-4" x1="1126.72" y1="77.05" x2="512.31" y2="691.46"/><line class="cls-4" x1="1119.85" y1="76.52" x2="505.83" y2="690.54"/><line class="cls-4" x1="1112.99" y1="75.98" x2="499.35" y2="689.62"/><line class="cls-4" x1="1106.12" y1="75.45" x2="492.87" y2="688.7"/><line class="cls-4" x1="1099.25" y1="74.91" x2="486.39" y2="687.78"/><line class="cls-4" x1="1092.39" y1="74.38" x2="479.91" y2="686.85"/><line class="cls-4" x1="1085.52" y1="73.84" x2="473.43" y2="685.93"/><line class="cls-4" x1="1078.65" y1="73.31" x2="466.95" y2="685.01"/><line class="cls-4" x1="1071.79" y1="72.77" x2="460.47" y2="684.09"/><line class="cls-4" x1="1064.92" y1="72.24" x2="453.99" y2="683.17"/><line class="cls-4" x1="1058.05" y1="71.7" x2="447.51" y2="682.25"/><line class="cls-4" x1="1051.19" y1="71.17" x2="441.03" y2="681.33"/><line class="cls-4" x1="1044.32" y1="70.63" x2="434.55" y2="680.41"/><line class="cls-4" x1="1037.45" y1="70.1" x2="428.07" y2="679.48"/><line class="cls-4" x1="1030.59" y1="69.56" x2="421.59" y2="678.56"/><line class="cls-4" x1="1023.72" y1="69.03" x2="415.11" y2="677.64"/><line class="cls-4" x1="1016.85" y1="68.49" x2="408.62" y2="676.72"/><line class="cls-4" x1="1009.99" y1="67.96" x2="402.14" y2="675.8"/><line class="cls-4" x1="1003.12" y1="67.42" x2="395.66" y2="674.88"/><line class="cls-4" x1="996.25" y1="66.89" x2="389.18" y2="673.96"/><line class="cls-4" x1="989.38" y1="66.35" x2="382.7" y2="673.04"/><line class="cls-4" x1="982.52" y1="65.82" x2="376.22" y2="672.11"/><line class="cls-4" x1="975.65" y1="65.28" x2="369.74" y2="671.19"/><line class="cls-4" x1="968.78" y1="64.75" x2="363.26" y2="670.27"/><line class="cls-4" x1="961.92" y1="64.21" x2="356.78" y2="669.35"/><line class="cls-4" x1="955.05" y1="63.68" x2="350.3" y2="668.43"/><line class="cls-4" x1="948.18" y1="63.14" x2="343.82" y2="667.51"/><line class="cls-4" x1="941.32" y1="62.61" x2="337.34" y2="666.59"/><line class="cls-4" x1="934.45" y1="62.07" x2="330.86" y2="665.67"/><line class="cls-4" x1="927.58" y1="61.54" x2="324.38" y2="664.74"/><line class="cls-4" x1="920.72" y1="61" x2="317.9" y2="663.82"/><line class="cls-4" x1="913.85" y1="60.47" x2="311.42" y2="662.9"/><line class="cls-4" x1="906.98" y1="59.93" x2="304.94" y2="661.98"/><line class="cls-4" x1="900.12" y1="59.4" x2="298.46" y2="661.06"/><line class="cls-4" x1="893.25" y1="58.86" x2="291.98" y2="660.14"/><line class="cls-4" x1="886.38" y1="58.33" x2="285.5" y2="659.22"/><line class="cls-4" x1="879.52" y1="57.79" x2="279.01" y2="658.3"/><line class="cls-4" x1="872.65" y1="57.26" x2="272.53" y2="657.37"/><line class="cls-4" x1="865.78" y1="56.72" x2="266.05" y2="656.45"/><line class="cls-4" x1="858.91" y1="56.19" x2="259.57" y2="655.53"/><line class="cls-4" x1="852.05" y1="55.66" x2="253.09" y2="654.61"/><line class="cls-4" x1="845.18" y1="55.12" x2="246.61" y2="653.69"/><line class="cls-4" x1="838.31" y1="54.59" x2="240.13" y2="652.77"/><line class="cls-4" x1="831.45" y1="54.05" x2="233.65" y2="651.85"/><line class="cls-4" x1="824.58" y1="53.52" x2="227.17" y2="650.93"/><line class="cls-4" x1="817.71" y1="52.98" x2="220.69" y2="650"/><line class="cls-4" x1="810.85" y1="52.45" x2="214.21" y2="649.08"/><line class="cls-4" x1="803.98" y1="51.91" x2="207.73" y2="648.16"/><line class="cls-4" x1="797.11" y1="51.38" x2="201.25" y2="647.24"/><line class="cls-4" x1="790.25" y1="50.84" x2="194.77" y2="646.32"/><line class="cls-4" x1="783.38" y1="50.31" x2="188.29" y2="645.4"/><line class="cls-4" x1="776.51" y1="49.77" x2="181.81" y2="644.48"/><line class="cls-4" x1="769.65" y1="49.24" x2="175.33" y2="643.55"/><line class="cls-4" x1="762.78" y1="48.7" x2="168.85" y2="642.63"/><line class="cls-4" x1="755.91" y1="48.17" x2="162.37" y2="641.71"/><line class="cls-4" x1="749.05" y1="47.63" x2="155.89" y2="640.79"/><line class="cls-4" x1="742.18" y1="47.1" x2="149.4" y2="639.87"/><line class="cls-4" x1="735.31" y1="46.56" x2="142.92" y2="638.95"/><line class="cls-4" x1="728.44" y1="46.03" x2="136.44" y2="638.03"/><line class="cls-4" x1="721.58" y1="45.49" x2="129.96" y2="637.11"/><line class="cls-4" x1="714.71" y1="44.96" x2="123.48" y2="636.18"/><line class="cls-4" x1="707.84" y1="44.42" x2="117" y2="635.26"/><line class="cls-4" x1="700.98" y1="43.89" x2="110.52" y2="634.34"/><line class="cls-4" x1="694.11" y1="43.35" x2="104.04" y2="633.42"/><line class="cls-4" x1="687.24" y1="42.82" x2="97.56" y2="632.5"/><line class="cls-4" x1="680.38" y1="42.28" x2="91.08" y2="631.58"/><line class="cls-4" x1="673.51" y1="41.75" x2="84.6" y2="630.66"/><line class="cls-4" x1="666.64" y1="41.21" x2="78.12" y2="629.74"/><line class="cls-4" x1="659.78" y1="40.68" x2="71.64" y2="628.81"/><line class="cls-4" x1="652.91" y1="40.14" x2="65.16" y2="627.89"/><line class="cls-4" x1="646.04" y1="39.61" x2="58.68" y2="626.97"/><line class="cls-4" x1="639.18" y1="39.07" x2="52.2" y2="626.05"/><line class="cls-4" x1="632.31" y1="38.54" x2="45.72" y2="625.13"/><line class="cls-4" x1="625.44" y1="38" x2="39.24" y2="624.21"/><line class="cls-4" x1="618.58" y1="37.47" x2="32.76" y2="623.29"/><line class="cls-4" x1="611.71" y1="36.93" x2="26.28" y2="622.37"/><line class="cls-4" x1="604.84" y1="36.4" x2="19.8" y2="621.44"/><line class="cls-4" x1="597.97" y1="35.86" x2="13.31" y2="620.52"/><line class="cls-4" x1="591.11" y1="35.33" x2="6.83" y2="619.6"/><line class="cls-4" x1="584.24" y1="34.79" x2="0.35" y2="618.68"/></g><polygon class="cls-5" points="967.03 226.26 978.7 226.26 983.03 222.26 990.37 227.6 999.03 229.26 1004.03 225.6 1011.7 228.6 1021.03 225.26 1023.7 219.93 1030.03 221.26 1034.03 223.26 1043.7 217.26 1049.03 218.26 1056.37 213.93 1072.7 205.6 1074.7 212.26 1073.03 221.93 1071.7 227.93 1072.7 243.93 1075.37 250.26 1074.7 254.6 1073.03 261.26 1074.37 271.6 1075.37 278.26 1078.7 287.26 1076.7 292.6 1073.03 297.26 1075.7 299.93 1070.37 307.6 1062.03 319.26 1054.37 326.6 1044.7 333.6 1033.37 336.26 1021.37 341.26 1008.03 349.93 1002.37 356.26 994.37 365.26 991.03 370.26 988.7 372.6 986.7 371.6 982.03 374.26 976.03 381.6 966.37 389.26 961.37 389.26 958.28 386.6 961.37 394.6 959.03 401.6 962.03 407.6 967.37 412.93 967.37 416.93 966.7 421.6 970.7 429.26 971.7 434.93 971.03 442.6 972.37 446.26 973.03 444.26 973.7 437.93 975.37 437.6 976.03 442.26 975.37 445.93 974.37 449.93 975.03 454.26 976.37 455.93 973.7 460.93 972.37 469.26 971.03 473.26 973.37 477.26 973.03 481.6 967.7 489.6 958.37 494.93 940.03 500.6 927.37 506.93 920.7 514.6 920.37 522.26 923.03 525.6 924.7 521.26 926.03 523.26 924.37 529.26 923.7 537.6 910.03 537.93 908.37 532.26 908.37 525.93 909.03 521.26 906.03 518.26 905.7 514.93 907.37 510.26 907.37 484.93 905.03 479.93 905.03 475.93 902.37 472.6 901.03 468.6 897.7 465.6 899.7 459.93 894.37 443.26 906.53 431.6 915.7 421.26 915.03 417.26 917.03 414.26 916.37 408.93 917.03 404.93 920.7 404.6 925.37 398.26 927.7 389.26 925.37 386.6 923.03 381.6 924.7 374.93 921.7 372.6 922.37 368.6 925.37 368.6 925.03 364.26 928.7 361.26 925.7 351.93 928.7 344.6 925.03 331.6 927.03 327.93 922.7 327.6 916.03 322.6 907.03 322.26 900.7 316.6 895.37 316.6 893.37 314.26 877.7 314.26 877.03 301.93 872.7 292.93 880.7 290.93 898.7 285.6 930.7 274.93 936.37 280.6 940.37 285.6 954.03 281.6 958.37 289.26 957.7 296.93 957.37 299.26 955.03 304.6 953.7 307.93 951.03 310.6 954.7 315.26 955.7 318.6 963.03 325.93 966.03 330.6 969.37 330.6 969.37 332.93 967.7 333.93 968.03 336.93 972.37 336.26 971.7 331.6 971.03 327.26 968.7 324.6 971.03 322.6 972.7 316.6 975.37 316.26 979.7 316.26 982.03 312.93 983.37 301.93 980.7 297.26 984.37 292.26 983.7 285.93 973.37 272.93 966.03 265.93 962.7 262.6 962.03 258.93 962.03 253.6 962.7 248.26 960.7 241.93 961.37 235.93 965.03 233.6 967.03 226.26"/><g class="cls-6"><line class="cls-7" x1="1401.7" y1="332.27" x2="1010.7" y2="723.27"/><line class="cls-7" x1="1397.32" y1="328.98" x2="1006.32" y2="719.98"/><line class="cls-7" x1="1392.93" y1="325.69" x2="1001.93" y2="716.69"/><line class="cls-7" x1="1388.55" y1="322.4" x2="997.55" y2="713.4"/><line class="cls-7" x1="1384.17" y1="319.12" x2="993.17" y2="710.12"/><line class="cls-7" x1="1379.79" y1="315.83" x2="988.79" y2="706.83"/><line class="cls-7" x1="1375.4" y1="312.54" x2="984.4" y2="703.54"/><line class="cls-7" x1="1371.02" y1="309.26" x2="980.02" y2="700.26"/><line class="cls-7" x1="1366.64" y1="305.97" x2="975.64" y2="696.97"/><line class="cls-7" x1="1362.25" y1="302.68" x2="971.25" y2="693.68"/><line class="cls-7" x1="1357.87" y1="299.39" x2="966.87" y2="690.39"/><line class="cls-7" x1="1353.49" y1="296.11" x2="962.49" y2="687.11"/><line class="cls-7" x1="1349.11" y1="292.82" x2="958.11" y2="683.82"/><line class="cls-7" x1="1344.72" y1="289.53" x2="953.72" y2="680.53"/><line class="cls-7" x1="1340.34" y1="286.25" x2="949.34" y2="677.25"/><line class="cls-7" x1="1335.96" y1="282.96" x2="944.96" y2="673.96"/><line class="cls-7" x1="1331.57" y1="279.67" x2="940.57" y2="670.67"/><line class="cls-7" x1="1327.19" y1="276.38" x2="936.19" y2="667.38"/><line class="cls-7" x1="1322.81" y1="273.1" x2="931.81" y2="664.1"/><line class="cls-7" x1="1318.43" y1="269.81" x2="927.43" y2="660.81"/><line class="cls-7" x1="1314.04" y1="266.52" x2="923.04" y2="657.52"/><line class="cls-7" x1="1309.66" y1="263.24" x2="918.66" y2="654.24"/><line class="cls-7" x1="1305.28" y1="259.95" x2="914.28" y2="650.95"/><line class="cls-7" x1="1300.9" y1="256.66" x2="909.9" y2="647.66"/><line class="cls-7" x1="1296.51" y1="253.37" x2="905.51" y2="644.37"/><line class="cls-7" x1="1292.13" y1="250.09" x2="901.13" y2="641.09"/><line class="cls-7" x1="1287.75" y1="246.8" x2="896.75" y2="637.8"/><line class="cls-7" x1="1283.36" y1="243.51" x2="892.36" y2="634.51"/><line class="cls-7" x1="1278.98" y1="240.23" x2="887.98" y2="631.23"/><line class="cls-7" x1="1274.6" y1="236.94" x2="883.6" y2="627.94"/><line class="cls-7" x1="1270.22" y1="233.65" x2="879.22" y2="624.65"/><line class="cls-7" x1="1265.83" y1="230.36" x2="874.83" y2="621.36"/><line class="cls-7" x1="1261.45" y1="227.08" x2="870.45" y2="618.08"/><line class="cls-7" x1="1257.07" y1="223.79" x2="866.07" y2="614.79"/><line class="cls-7" x1="1252.68" y1="220.5" x2="861.68" y2="611.5"/><line class="cls-7" x1="1248.3" y1="217.22" x2="857.3" y2="608.22"/><line class="cls-7" x1="1243.92" y1="213.93" x2="852.92" y2="604.93"/><line class="cls-7" x1="1239.54" y1="210.64" x2="848.54" y2="601.64"/><line class="cls-7" x1="1235.15" y1="207.35" x2="844.15" y2="598.35"/><line class="cls-7" x1="1230.77" y1="204.07" x2="839.77" y2="595.07"/><line class="cls-7" x1="1226.39" y1="200.78" x2="835.39" y2="591.78"/><line class="cls-7" x1="1222" y1="197.49" x2="831" y2="588.49"/><line class="cls-7" x1="1217.62" y1="194.21" x2="826.62" y2="585.21"/><line class="cls-7" x1="1213.24" y1="190.92" x2="822.24" y2="581.92"/><line class="cls-7" x1="1208.86" y1="187.63" x2="817.86" y2="578.63"/><line class="cls-7" x1="1204.47" y1="184.34" x2="813.47" y2="575.34"/><line class="cls-7" x1="1200.09" y1="181.06" x2="809.09" y2="572.06"/><line class="cls-7" x1="1195.71" y1="177.77" x2="804.71" y2="568.77"/><line class="cls-7" x1="1191.32" y1="174.48" x2="800.32" y2="565.48"/><line class="cls-7" x1="1186.94" y1="171.2" x2="795.94" y2="562.2"/><line class="cls-7" x1="1182.56" y1="167.91" x2="791.56" y2="558.91"/><line class="cls-7" x1="1178.18" y1="164.62" x2="787.18" y2="555.62"/><line class="cls-7" x1="1173.79" y1="161.33" x2="782.79" y2="552.33"/><line class="cls-7" x1="1169.41" y1="158.05" x2="778.41" y2="549.05"/><line class="cls-7" x1="1165.03" y1="154.76" x2="774.03" y2="545.76"/><line class="cls-7" x1="1160.64" y1="151.47" x2="769.64" y2="542.47"/><line class="cls-7" x1="1156.26" y1="148.19" x2="765.26" y2="539.19"/><line class="cls-7" x1="1151.88" y1="144.9" x2="760.88" y2="535.9"/><line class="cls-7" x1="1147.5" y1="141.61" x2="756.5" y2="532.61"/><line class="cls-7" x1="1143.11" y1="138.32" x2="752.11" y2="529.32"/><line class="cls-7" x1="1138.73" y1="135.04" x2="747.73" y2="526.04"/><line class="cls-7" x1="1134.35" y1="131.75" x2="743.35" y2="522.75"/><line class="cls-7" x1="1129.96" y1="128.46" x2="738.96" y2="519.46"/><line class="cls-7" x1="1125.58" y1="125.18" x2="734.58" y2="516.18"/><line class="cls-7" x1="1121.2" y1="121.89" x2="730.2" y2="512.89"/><line class="cls-7" x1="1116.82" y1="118.6" x2="725.82" y2="509.6"/><line class="cls-7" x1="1112.43" y1="115.31" x2="721.43" y2="506.31"/><line class="cls-7" x1="1108.05" y1="112.03" x2="717.05" y2="503.03"/><line class="cls-7" x1="1103.67" y1="108.74" x2="712.67" y2="499.74"/><line class="cls-7" x1="1099.28" y1="105.45" x2="708.28" y2="496.45"/><line class="cls-7" x1="1094.9" y1="102.17" x2="703.9" y2="493.17"/><line class="cls-7" x1="1090.52" y1="98.88" x2="699.52" y2="489.88"/><line class="cls-7" x1="1086.14" y1="95.59" x2="695.14" y2="486.59"/><line class="cls-7" x1="1081.75" y1="92.3" x2="690.75" y2="483.3"/><line class="cls-7" x1="1077.37" y1="89.02" x2="686.37" y2="480.02"/><line class="cls-7" x1="1072.99" y1="85.73" x2="681.99" y2="476.73"/><line class="cls-7" x1="1068.6" y1="82.44" x2="677.6" y2="473.44"/><line class="cls-7" x1="1064.22" y1="79.16" x2="673.22" y2="470.16"/><line class="cls-7" x1="1059.84" y1="75.87" x2="668.84" y2="466.87"/><line class="cls-7" x1="1055.46" y1="72.58" x2="664.46" y2="463.58"/><line class="cls-7" x1="1051.07" y1="69.29" x2="660.07" y2="460.29"/><line class="cls-7" x1="1046.69" y1="66.01" x2="655.69" y2="457.01"/><line class="cls-7" x1="1042.31" y1="62.72" x2="651.31" y2="453.72"/><line class="cls-7" x1="1037.92" y1="59.43" x2="646.92" y2="450.43"/><line class="cls-7" x1="1033.54" y1="56.15" x2="642.54" y2="447.15"/><line class="cls-7" x1="1029.16" y1="52.86" x2="638.16" y2="443.86"/><line class="cls-7" x1="1024.78" y1="49.57" x2="633.78" y2="440.57"/><line class="cls-7" x1="1020.39" y1="46.28" x2="629.39" y2="437.28"/><line class="cls-7" x1="1016.01" y1="43" x2="625.01" y2="434"/><line class="cls-7" x1="1011.63" y1="39.71" x2="620.63" y2="430.71"/><line class="cls-7" x1="1007.24" y1="36.42" x2="616.24" y2="427.42"/><line class="cls-7" x1="1002.86" y1="33.14" x2="611.86" y2="424.14"/><line class="cls-7" x1="998.48" y1="29.85" x2="607.48" y2="420.85"/><line class="cls-7" x1="994.1" y1="26.56" x2="603.1" y2="417.56"/><line class="cls-7" x1="989.71" y1="23.28" x2="598.71" y2="414.28"/><line class="cls-7" x1="985.33" y1="19.99" x2="594.33" y2="410.99"/><line class="cls-7" x1="980.95" y1="16.7" x2="589.95" y2="407.7"/><line class="cls-7" x1="976.57" y1="13.41" x2="585.57" y2="404.41"/><line class="cls-7" x1="972.18" y1="10.13" x2="581.18" y2="401.13"/><line class="cls-7" x1="967.8" y1="6.84" x2="576.8" y2="397.84"/><line class="cls-7" x1="963.42" y1="3.55" x2="572.42" y2="394.55"/><line class="cls-7" x1="959.03" y1="0.27" x2="568.03" y2="391.27"/><line class="cls-7" x1="568.03" y1="332.27" x2="959.03" y2="723.27"/><line class="cls-7" x1="572.42" y1="328.98" x2="963.42" y2="719.98"/><line class="cls-7" x1="576.8" y1="325.69" x2="967.8" y2="716.69"/><line class="cls-7" x1="581.18" y1="322.4" x2="972.18" y2="713.4"/><line class="cls-7" x1="585.57" y1="319.12" x2="976.57" y2="710.12"/><line class="cls-7" x1="589.95" y1="315.83" x2="980.95" y2="706.83"/><line class="cls-7" x1="594.33" y1="312.54" x2="985.33" y2="703.54"/><line class="cls-7" x1="598.71" y1="309.26" x2="989.71" y2="700.26"/><line class="cls-7" x1="603.1" y1="305.97" x2="994.1" y2="696.97"/><line class="cls-7" x1="607.48" y1="302.68" x2="998.48" y2="693.68"/><line class="cls-7" x1="611.86" y1="299.39" x2="1002.86" y2="690.39"/><line class="cls-7" x1="616.24" y1="296.11" x2="1007.24" y2="687.11"/><line class="cls-7" x1="620.63" y1="292.82" x2="1011.63" y2="683.82"/><line class="cls-7" x1="625.01" y1="289.53" x2="1016.01" y2="680.53"/><line class="cls-7" x1="629.39" y1="286.25" x2="1020.39" y2="677.25"/><line class="cls-7" x1="633.78" y1="282.96" x2="1024.78" y2="673.96"/><line class="cls-7" x1="638.16" y1="279.67" x2="1029.16" y2="670.67"/><line class="cls-7" x1="642.54" y1="276.38" x2="1033.54" y2="667.38"/><line class="cls-7" x1="646.92" y1="273.1" x2="1037.92" y2="664.1"/><line class="cls-7" x1="651.31" y1="269.81" x2="1042.31" y2="660.81"/><line class="cls-7" x1="655.69" y1="266.52" x2="1046.69" y2="657.52"/><line class="cls-7" x1="660.07" y1="263.24" x2="1051.07" y2="654.24"/><line class="cls-7" x1="664.46" y1="259.95" x2="1055.46" y2="650.95"/><line class="cls-7" x1="668.84" y1="256.66" x2="1059.84" y2="647.66"/><line class="cls-7" x1="673.22" y1="253.37" x2="1064.22" y2="644.37"/><line class="cls-7" x1="677.6" y1="250.09" x2="1068.6" y2="641.09"/><line class="cls-7" x1="681.99" y1="246.8" x2="1072.99" y2="637.8"/><line class="cls-7" x1="686.37" y1="243.51" x2="1077.37" y2="634.51"/><line class="cls-7" x1="690.75" y1="240.23" x2="1081.75" y2="631.23"/><line class="cls-7" x1="695.14" y1="236.94" x2="1086.14" y2="627.94"/><line class="cls-7" x1="699.52" y1="233.65" x2="1090.52" y2="624.65"/><line class="cls-7" x1="703.9" y1="230.36" x2="1094.9" y2="621.36"/><line class="cls-7" x1="708.28" y1="227.08" x2="1099.28" y2="618.08"/><line class="cls-7" x1="712.67" y1="223.79" x2="1103.67" y2="614.79"/><line class="cls-7" x1="717.05" y1="220.5" x2="1108.05" y2="611.5"/><line class="cls-7" x1="721.43" y1="217.22" x2="1112.43" y2="608.22"/><line class="cls-7" x1="725.82" y1="213.93" x2="1116.82" y2="604.93"/><line class="cls-7" x1="730.2" y1="210.64" x2="1121.2" y2="601.64"/><line class="cls-7" x1="734.58" y1="207.35" x2="1125.58" y2="598.35"/><line class="cls-7" x1="738.96" y1="204.07" x2="1129.96" y2="595.07"/><line class="cls-7" x1="743.35" y1="200.78" x2="1134.35" y2="591.78"/><line class="cls-7" x1="747.73" y1="197.49" x2="1138.73" y2="588.49"/><line class="cls-7" x1="752.11" y1="194.21" x2="1143.11" y2="585.21"/><line class="cls-7" x1="756.5" y1="190.92" x2="1147.5" y2="581.92"/><line class="cls-7" x1="760.88" y1="187.63" x2="1151.88" y2="578.63"/><line class="cls-7" x1="765.26" y1="184.34" x2="1156.26" y2="575.34"/><line class="cls-7" x1="769.64" y1="181.06" x2="1160.64" y2="572.06"/><line class="cls-7" x1="774.03" y1="177.77" x2="1165.03" y2="568.77"/><line class="cls-7" x1="778.41" y1="174.48" x2="1169.41" y2="565.48"/><line class="cls-7" x1="782.79" y1="171.2" x2="1173.79" y2="562.2"/><line class="cls-7" x1="787.18" y1="167.91" x2="1178.18" y2="558.91"/><line class="cls-7" x1="791.56" y1="164.62" x2="1182.56" y2="555.62"/><line class="cls-7" x1="795.94" y1="161.33" x2="1186.94" y2="552.33"/><line class="cls-7" x1="800.32" y1="158.05" x2="1191.32" y2="549.05"/><line class="cls-7" x1="804.71" y1="154.76" x2="1195.71" y2="545.76"/><line class="cls-7" x1="809.09" y1="151.47" x2="1200.09" y2="542.47"/><line class="cls-7" x1="813.47" y1="148.19" x2="1204.47" y2="539.19"/><line class="cls-7" x1="817.86" y1="144.9" x2="1208.86" y2="535.9"/><line class="cls-7" x1="822.24" y1="141.61" x2="1213.24" y2="532.61"/><line class="cls-7" x1="826.62" y1="138.32" x2="1217.62" y2="529.32"/><line class="cls-7" x1="831" y1="135.04" x2="1222" y2="526.04"/><line class="cls-7" x1="835.39" y1="131.75" x2="1226.39" y2="522.75"/><line class="cls-7" x1="839.77" y1="128.46" x2="1230.77" y2="519.46"/><line class="cls-7" x1="844.15" y1="125.18" x2="1235.15" y2="516.18"/><line class="cls-7" x1="848.54" y1="121.89" x2="1239.54" y2="512.89"/><line class="cls-7" x1="852.92" y1="118.6" x2="1243.92" y2="509.6"/><line class="cls-7" x1="857.3" y1="115.31" x2="1248.3" y2="506.31"/><line class="cls-7" x1="861.68" y1="112.03" x2="1252.68" y2="503.03"/><line class="cls-7" x1="866.07" y1="108.74" x2="1257.07" y2="499.74"/><line class="cls-7" x1="870.45" y1="105.45" x2="1261.45" y2="496.45"/><line class="cls-7" x1="874.83" y1="102.17" x2="1265.83" y2="493.17"/><line class="cls-7" x1="879.22" y1="98.88" x2="1270.22" y2="489.88"/><line class="cls-7" x1="883.6" y1="95.59" x2="1274.6" y2="486.59"/><line class="cls-7" x1="887.98" y1="92.3" x2="1278.98" y2="483.3"/><line class="cls-7" x1="892.36" y1="89.02" x2="1283.36" y2="480.02"/><line class="cls-7" x1="896.75" y1="85.73" x2="1287.75" y2="476.73"/><line class="cls-7" x1="901.13" y1="82.44" x2="1292.13" y2="473.44"/><line class="cls-7" x1="905.51" y1="79.16" x2="1296.51" y2="470.16"/><line class="cls-7" x1="909.9" y1="75.87" x2="1300.9" y2="466.87"/><line class="cls-7" x1="914.28" y1="72.58" x2="1305.28" y2="463.58"/><line class="cls-7" x1="918.66" y1="69.29" x2="1309.66" y2="460.29"/><line class="cls-7" x1="923.04" y1="66.01" x2="1314.04" y2="457.01"/><line class="cls-7" x1="927.43" y1="62.72" x2="1318.43" y2="453.72"/><line class="cls-7" x1="931.81" y1="59.43" x2="1322.81" y2="450.43"/><line class="cls-7" x1="936.19" y1="56.15" x2="1327.19" y2="447.15"/><line class="cls-7" x1="940.57" y1="52.86" x2="1331.57" y2="443.86"/><line class="cls-7" x1="944.96" y1="49.57" x2="1335.96" y2="440.57"/><line class="cls-7" x1="949.34" y1="46.28" x2="1340.34" y2="437.28"/><line class="cls-7" x1="953.72" y1="43" x2="1344.72" y2="434"/><line class="cls-7" x1="958.11" y1="39.71" x2="1349.11" y2="430.71"/><line class="cls-7" x1="962.49" y1="36.42" x2="1353.49" y2="427.42"/><line class="cls-7" x1="966.87" y1="33.14" x2="1357.87" y2="424.14"/><line class="cls-7" x1="971.25" y1="29.85" x2="1362.25" y2="420.85"/><line class="cls-7" x1="975.64" y1="26.56" x2="1366.64" y2="417.56"/><line class="cls-7" x1="980.02" y1="23.28" x2="1371.02" y2="414.28"/><line class="cls-7" x1="984.4" y1="19.99" x2="1375.4" y2="410.99"/><line class="cls-7" x1="988.79" y1="16.7" x2="1379.79" y2="407.7"/><line class="cls-7" x1="993.17" y1="13.41" x2="1384.17" y2="404.41"/><line class="cls-7" x1="997.55" y1="10.13" x2="1388.55" y2="401.13"/><line class="cls-7" x1="1001.93" y1="6.84" x2="1392.93" y2="397.84"/><line class="cls-7" x1="1006.32" y1="3.55" x2="1397.32" y2="394.55"/><line class="cls-7" x1="1010.7" y1="0.27" x2="1401.7" y2="391.27"/></g><polyline class="cls-8" points="894.37 443.26 885.7 441.26 874.03 441.93 862.7 437.93 849.37 440.26 848.7 444.6 839.7 446.26 835.37 447.6 827.7 458.26 823.03 460.26 822.37 463.6 819.37 463.6 810.7 469.6 808.7 482.26 802.03 486.26 801.03 489.93 789.03 491.93 789.03 497.6 783.03 511.26 779.37 513.6 773.7 512.6 770.37 515.93 764.03 514.6 757.03 508.6 749.7 505.26 742.37 509.26 739.03 521.6 730.37 528.6 725.7 534.26 721.7 534.6 720.7 538.6 706.03 537.26 703.03 538.93 702.03 533.26 705.7 522.6 702.7 507.6 698.37 499.93 692.03 494.6"/><polyline class="cls-8" points="910.03 537.93 906.7 536.26 906.7 547.26 896.37 546.93 889.7 543.6 887.03 538.26 884.03 535.26 883.37 528.26 888.7 523.6 890.03 519.26 894.03 513.26 898.37 514.6 905.03 519.26 906.03 518.26"/><polyline class="cls-8" points="856.53 439.1 854.53 437.6 850.53 434.6 851.03 431.1 844.03 427.6 840.53 428.1 837.53 427.1 831.03 426.6 829.03 420.6 824.03 416.1 824.53 411.1 826.03 404.6 816.53 404.1 817.03 400.6 815.03 395.6 806.53 393.1 796.53 385.6 791.53 378.6 791.03 373.6 784.03 363.1 777.03 353.6 778.03 349.6 770.53 349.6 763.53 354.1 759.7 360.93 754.03 354.26 745.7 352.93 719.7 358.26 712.37 359.26 712.37 436.6 694.03 436.6 689.7 571.26 683.7 572.6 681.7 576.26 675.7 578.6 677.7 582.26 672.03 580.93 665.7 579.6 647.7 578.6 642.7 572.6 642.7 568.6 639.37 565.6 637.03 562.93 633.03 567.6 631.03 572.26 626.7 575.6"/><polyline class="cls-8" points="932.53 275.6 930.03 272.6 926.03 271.1 923.53 265.1 927.53 255.1 927.03 251.1 927.53 247.1 934.03 245.6 939.03 241.1 934.53 240.6 932.53 235.1 934.53 229.1 931.53 224.1 935.03 217.6 932.03 211.6 937.03 211.1 941.03 206.1 939.53 203.1 939.03 198.1 933.53 196.6 934.03 190.6 933.53 184.1 925.03 180.6 927.03 176.1"/><polyline class="cls-8" points="878.03 155.6 847.53 160.6 848.03 163.1 847.03 168.1 837.03 177.6 841.03 181.1 844.03 190.1 843.03 193.1 842.03 198.6 842.53 205.1 841.03 215.1 837.03 223.1 838.53 231.1 845.53 235.6 851.03 242.1 855.03 241.1 860.53 242.6 858.03 238.6 860.53 238.1 865.53 236.6 865.53 262.6 863.03 261.6 863.03 258.6 861.03 257.6 854.53 262.1 849.03 261.1 849.03 256.6 844.03 251.1 841.53 252.1 840.53 247.6 838.53 242.6 834.53 242.1 828.53 239.1 826.03 239.6 822.03 239.1 821.03 233.1 816.53 230.6 815.53 226.6 811.03 225.6 811.03 230.6 809.03 234.1 801.03 232.1 791.53 231.6 784.53 229.1 778.53 224.6 778.03 218.1 763.03 222.6 760.37 216.26 753.7 210.26 751.7 214.26 739.7 214.26 729.03 214.93 722.37 218.26 720.37 212.93 723.7 200.26 717.7 186.93 714.37 170.6 716.37 156.93 712.37 148.26 715.03 136.93 692.37 136.93 693.7 128.26 687.03 127.6 683.7 131.6 671.7 130.93 673.7 140.26 669.7 144.26 670.37 152.93 655.7 149.6 645.03 152.93 637.03 152.26 628.37 138.26 625.03 128.93 622.37 112.93 615.03 106.93 554.37 108.27 543.03 111.6 541.7 116.27"/><polygon class="cls-9" points="944.7 188.26 946.7 196.26 951.03 201.85 951.03 205.26 951.7 211.26 950.7 217.93 953.7 224.6 953.37 228.6 949.7 232.6 947.03 238.26 948.37 242.26 950.7 242.93 951.37 247.6 954.03 252.6 953.03 256.6 952.37 261.26 954.37 266.26 958.7 267.26 958.7 271.26 956.7 274.26 960.37 279.26 963.37 278.26 963.7 273.6 968.37 278.6 971.03 281.93 972.03 280.6 970.37 276.6 968.03 269.26 963.37 267.93 962.7 262.6 962.7 248.26 967.03 226.26 964.7 221.93 960.37 217.26 958.37 213.6 960.7 208.26 958.37 199.93 956.37 193.6 953.03 184.93 947.78 178.85 944.53 180.35 944.7 188.26"/><polyline class="cls-8" points="967.7 323.93 965.37 321.93 962.03 313.26 962.03 304.26 967.7 299.6 970.37 296.26 972.03 290.6 970.7 285.93 971.03 281.93"/><polyline class="cls-8" points="988.7 372.6 988.03 367.6 987.53 362.1 981.53 356.6 974.53 350.6 968.03 346.1 965.53 339.6 963.53 332.6 945.03 324.6 938.53 317.1 926.53 305.6 919.53 304.6 909.53 307.1 896.53 307.1 892.03 308.1 887.53 306.6 875.03 306.1 859.53 306.1 847.53 314.1 847.03 324.6 840.53 325.6 827.03 332.1 823.53 341.1 812.03 352.6 804.03 353.1 797.03 351.6 790.03 353.1 786.53 349.6 778.03 349.6 774.53 347.1 771.53 343.6 763.53 343.1 758.37 340.93 743.03 343.6 719.7 349.6 705.03 350.26 697.03 350.93 678.37 348.26 661.7 346.26 653.03 338.26 575.7 338.93 560.37 328.93 548.37 336.93 545.35 335.77"/><polyline class="cls-8" points="739.28 344.35 725.7 329.6 718.37 318.93 721.03 250.93 748.37 254.26 757.7 252.26 755.03 246.93 757.03 239.6 757.7 214.93"/><polygon class="cls-10" points="814.37 594.26 823.03 587.6 825.7 579.6 844.37 572.93 857.7 586.26 854.37 594.26 852.37 600.93 839.7 605.6 834.37 613.6 829.03 617.6 819.03 605.6 814.37 594.26"/><polyline class="cls-8" points="944.76 180.55 936.03 179.6 923.03 174.6 919.03 173.6 911.03 168.6 906.53 165.1 903.53 166.1 898.03 160.6 888.88 155.99"/><polygon class="cls-11" points="967.03 226.26 978.7 226.26 983.03 222.26 990.37 227.6 999.03 229.26 1004.03 225.6 1011.7 228.6 1021.03 225.26 1023.7 219.93 1030.03 221.26 1034.03 223.26 1043.7 217.26 1049.03 218.26 1056.37 213.93 1072.7 205.6 1074.7 212.26 1073.03 221.93 1071.7 227.93 1072.7 243.93 1075.37 250.26 1074.7 254.6 1073.03 261.26 1074.37 271.6 1075.37 278.26 1078.7 287.26 1076.7 292.6 1073.03 297.26 1075.7 299.93 1070.37 307.6 1062.03 319.26 1054.37 326.6 1044.7 333.6 1033.37 336.26 1021.37 341.26 1008.03 349.93 1002.37 356.26 994.37 365.26 991.03 370.26 988.7 372.6 986.7 371.6 982.03 374.26 976.03 381.6 966.37 389.26 961.37 389.26 958.28 386.6 961.37 394.6 959.03 401.6 962.03 407.6 967.37 412.93 967.37 416.93 966.7 421.6 970.7 429.26 971.7 434.93 971.03 442.6 972.37 446.26 973.03 444.26 973.7 437.93 975.37 437.6 976.03 442.26 975.37 445.93 974.37 449.93 975.03 454.26 976.37 455.93 973.7 460.93 972.37 469.26 971.03 473.26 973.37 477.26 973.03 481.6 967.7 489.6 958.37 494.93 940.03 500.6 927.37 506.93 920.7 514.6 920.37 522.26 923.03 525.6 924.7 521.26 926.03 523.26 924.37 529.26 923.7 537.6 910.03 537.93 908.37 532.26 908.37 525.93 909.03 521.26 906.03 518.26 905.7 514.93 907.37 510.26 907.37 484.93 905.03 479.93 905.03 475.93 902.37 472.6 901.03 468.6 897.7 465.6 899.7 459.93 894.37 443.26 906.53 431.6 915.7 421.26 915.03 417.26 917.03 414.26 916.37 408.93 917.03 404.93 920.7 404.6 925.37 398.26 927.7 389.26 925.37 386.6 923.03 381.6 924.7 374.93 921.7 372.6 922.37 368.6 925.37 368.6 925.03 364.26 928.7 361.26 925.7 351.93 928.7 344.6 925.03 331.6 927.03 327.93 922.7 327.6 916.03 322.6 907.03 322.26 900.7 316.6 895.37 316.6 893.37 314.26 877.7 314.26 877.03 301.93 872.7 292.93 880.7 290.93 898.7 285.6 930.7 274.93 936.37 280.6 940.37 285.6 954.03 281.6 958.37 289.26 957.7 296.93 957.37 299.26 955.03 304.6 953.7 307.93 951.03 310.6 954.7 315.26 955.7 318.6 963.03 325.93 966.03 330.6 969.37 330.6 969.37 332.93 967.7 333.93 968.03 336.93 972.37 336.26 971.7 331.6 971.03 327.26 968.7 324.6 971.03 322.6 972.7 316.6 975.37 316.26 979.7 316.26 982.03 312.93 983.37 301.93 980.7 297.26 984.37 292.26 983.7 285.93 973.37 272.93 966.03 265.93 962.7 262.6 962.03 258.93 962.03 253.6 962.7 248.26 960.7 241.93 961.37 235.93 965.03 233.6 967.03 226.26"/><polygon class="cls-12" points="1107.44 248.01 1075.61 248.01 1069.69 253.26 1069.69 238.01 1107.44 238.01 1107.44 248.01"/><polygon class="cls-12" points="1001.28 291.16 1044.28 291.16 1050.2 296.41 1050.2 281.16 1001.28 281.16 1001.28 291.16"/><polygon class="cls-13" points="988.7 392.51 959.53 392.51 953.62 387.26 953.62 402.51 988.7 402.51 988.7 392.51"/><text class="cls-14" transform="translate(1074.75 245.77)">PEMBA</text><text class="cls-14" transform="translate(1005.03 289.16)">NAMPULA</text><polygon class="cls-15" points="987.03 238.47 1038.28 238.47 1044.2 253.26 1044.2 228.47 987.03 228.47 987.03 238.47"/><text class="cls-16" transform="translate(989.2 236.47)">MONTEPUEZ</text><polygon class="cls-15" points="996.78 252.93 1034.62 252.93 1040.53 258.18 1040.53 242.93 996.78 242.93 996.78 252.93"/><polygon class="cls-15" points="1125.03 255.1 1067.87 255.1 1061.95 253.26 1061.95 265.1 1125.03 265.1 1125.03 255.1"/><text class="cls-16" transform="translate(1001.53 250.93)">BALAMA</text><polygon class="cls-15" points="1016.62 259.93 1054.45 259.93 1060.37 253.26 1060.37 269.93 1016.62 269.93 1016.62 259.93"/><text class="cls-16" transform="translate(1020.2 267.85)">ME<tspan x="12.71" y="0">T</tspan><tspan x="17.68" y="0">ORO</tspan></text><polygon class="cls-15" points="1093.78 279.1 1067.87 279.1 1061.95 284.35 1061.95 269.1 1093.78 269.1 1093.78 279.1"/><text class="cls-16" transform="translate(1066.7 277.1)">NETIA</text><text class="cls-16" transform="translate(1065.37 263.1)">SI<tspan x="7.68" y="0">L</tspan><tspan x="11.52" y="0">V</tspan><tspan x="17.13" y="0">A M</tspan><tspan x="33.01" y="0">A</tspan><tspan x="38.75" y="0">C</tspan><tspan x="44.89" y="0">U</tspan><tspan x="51.09" y="0">A</tspan></text><polygon class="cls-15" points="1169.37 212.47 1075.61 212.47 1069.69 217.72 1069.69 202.47 1169.37 202.47 1169.37 212.47"/><text class="cls-16" transform="translate(1074.74 210.47)">MOCIMB<tspan x="36.22" y="0">O</tspan><tspan x="42.79" y="0">A </tspan><tspan x="51.16" y="0">D</tspan><tspan x="57.23" y="0">A PRAIA</tspan></text><polygon class="cls-15" points="1136.37 234.41 1079.33 234.41 1079.28 229.57 1073.37 224.41 1079.62 224.41 1136.37 224.41 1136.37 234.41"/><text class="cls-16" transform="translate(1081.72 232.41)">ILHA DO IBO</text><text class="cls-17" transform="translate(960.03 400.1)">BEIRA</text><polygon class="cls-13" points="961.16 511.51 922.95 511.51 917.03 516.76 917.03 501.51 961.16 501.51 961.16 511.51"/><text class="cls-17" transform="translate(921.53 509.52)">MAPU<tspan x="24.79" y="0">T</tspan><tspan x="29.67" y="0">O</tspan></text></svg>