<svg id="Layer_2" data-name="Layer 2" xmlns="http://www.w3.org/2000/svg" viewBox="0 0 515.1 265.1"><defs><style>.cls-1,.cls-3{fill:#231f20;}.cls-1,.cls-2{stroke:#231f20;stroke-width:0.66px;}.cls-1{stroke-linejoin:bevel;}.cls-2{fill:#b0b4c6;}.cls-10,.cls-11,.cls-12,.cls-2,.cls-4,.cls-5,.cls-6,.cls-7,.cls-8,.cls-9{stroke-miterlimit:10;}.cls-10,.cls-11,.cls-12,.cls-4,.cls-5,.cls-6,.cls-7,.cls-8,.cls-9{fill:none;stroke:#6f7b92;stroke-linecap:round;stroke-width:2px;}.cls-5{stroke-dasharray:0 3.71;}.cls-6{stroke-dasharray:0 3.98;}.cls-7{stroke-dasharray:0 3.8;}.cls-8{stroke-dasharray:0 3.97;}.cls-9{stroke-dasharray:0 4.1;}.cls-10{stroke-dasharray:0 4.28;}.cls-11{stroke-dasharray:0 3.79;}.cls-12{stroke-dasharray:0 4;}</style></defs><title>organigrama</title><polygon class="cls-1" points="227.8 14.1 230.5 15.8 290.6 15.8 290.6 4 288.8 0.3 227.8 14.1"/><rect class="cls-2" x="227.8" y="0.3" width="61.1" height="13.79"/><polygon class="cls-1" points="250.2 65.1 252.9 66.7 313 66.7 313 49.1 311.2 45.5 250.2 65.1"/><rect class="cls-2" x="250.2" y="45.5" width="61.1" height="19.54"/><polygon class="cls-1" points="69.3 65.1 72 66.7 137.9 66.7 137.9 49.1 136.2 45.5 69.3 65.1"/><rect class="cls-2" x="69.3" y="45.5" width="67" height="19.54"/><polygon class="cls-1" points="415.1 65.1 417.9 66.7 477.9 66.7 477.9 49.1 476.1 45.5 415.1 65.1"/><rect class="cls-2" x="415.2" y="45.5" width="61.1" height="19.54"/><polygon class="cls-1" points="215.3 116 218.1 117.7 278.1 117.7 278.1 100.1 276.4 96.5 215.3 116"/><rect class="cls-2" x="215.4" y="96.5" width="61.1" height="19.54"/><polygon class="cls-1" points="136.3 116 139.1 117.7 199.1 117.7 199.1 100.1 197.3 96.5 136.3 116"/><rect class="cls-2" x="136.3" y="96.5" width="61.1" height="19.54"/><polygon class="cls-1" points="68.3 116 71 117.7 131.1 117.7 131.1 100.1 129.3 96.5 68.3 116"/><rect class="cls-2" x="68.3" y="96.5" width="61.1" height="19.54"/><polygon class="cls-1" points="0.3 116 3 117.7 63.1 117.7 63.1 100.1 61.3 96.5 0.3 116"/><rect class="cls-2" x="0.3" y="96.5" width="61.1" height="19.54"/><polygon class="cls-1" points="287.8 116 290.5 117.7 350.5 117.7 350.5 100.1 348.8 96.5 287.8 116"/><rect class="cls-2" x="287.8" y="96.5" width="61.1" height="19.54"/><polygon class="cls-1" points="380.3 116 383 117.7 443.1 117.7 443.1 100.1 441.3 96.5 380.3 116"/><rect class="cls-2" x="380.3" y="96.5" width="61.1" height="19.54"/><polygon class="cls-1" points="403.1 195.7 405.9 197.3 465.9 197.3 465.9 179.8 464.2 176.1 403.1 195.7"/><rect class="cls-2" x="403.2" y="176.2" width="61.1" height="19.54"/><polygon class="cls-1" points="288.6 195.7 291.3 197.3 351.3 197.3 351.3 179.8 349.6 176.1 288.6 195.7"/><rect class="cls-2" x="288.6" y="176.2" width="61.1" height="19.54"/><polygon class="cls-1" points="54.6 263.1 57.3 264.8 465.5 264.8 465.5 247.2 463.8 243.6 54.6 263.1"/><rect class="cls-2" x="54.6" y="243.6" width="409.2" height="19.54"/><polygon class="cls-1" points="169.1 195.7 171.9 197.3 231.9 197.3 231.9 179.8 230.2 176.1 169.1 195.7"/><rect class="cls-2" x="169.2" y="176.2" width="61.1" height="19.54"/><polygon class="cls-1" points="54.2 195.7 56.9 197.3 117 197.3 117 179.8 115.2 176.1 54.2 195.7"/><rect class="cls-2" x="54.2" y="176.2" width="61.1" height="19.54"/><polygon class="cls-1" points="452 116 454.8 117.7 514.8 117.7 514.8 100.1 513.1 96.5 452 116"/><rect class="cls-2" x="452.1" y="96.5" width="61.1" height="19.54"/><path class="cls-3" d="M247.9,19.4h-1.8l-0.3,1.1h-1l1.6-5.3h1.1l1.6,5.3h-1Zm-1.6-.8h1.4L247.1,16Z" transform="translate(-13.4 -11.1)"/><path class="cls-3" d="M249.7,15.1h1.6c1.4,0,2.2,1.1,2.2,2.7s-0.8,2.7-2.2,2.7h-1.6V15.1Zm1.6,4.5c0.9,0,1.3-.8,1.3-1.9s-0.4-1.9-1.3-1.9h-0.7v3.8h0.7Z" transform="translate(-13.4 -11.1)"/><path class="cls-3" d="M258.2,16.8l-1.3,3.7h-0.3l-1.3-3.7v3.7h-0.9V15.1h1.2l1.1,3.2,1.2-3.2h1.2v5.3h-0.9V16.8Z" transform="translate(-13.4 -11.1)"/><path class="cls-3" d="M260.1,15.1H261v5.3h-0.9V15.1Z" transform="translate(-13.4 -11.1)"/><path class="cls-3" d="M262.9,17v3.4H262V15.1h0.9l1.9,3.4V15.1h0.9v5.3h-0.8Z" transform="translate(-13.4 -11.1)"/><path class="cls-3" d="M266.7,15.1h0.9v5.3h-0.9V15.1Z" transform="translate(-13.4 -11.1)"/><path class="cls-3" d="M268.8,19.2a1.7,1.7,0,0,0,1.3.6,0.7,0.7,0,0,0,.8-0.7,1.2,1.2,0,0,0-1-.9,1.8,1.8,0,0,1-1.4-1.6,1.5,1.5,0,0,1,1.7-1.5,2.2,2.2,0,0,1,1.5.6l-0.4.7a1.6,1.6,0,0,0-1.1-.5,0.7,0.7,0,0,0-.7.6,1.2,1.2,0,0,0,.9.8,1.9,1.9,0,0,1,1.5,1.7,1.5,1.5,0,0,1-1.7,1.6,2.3,2.3,0,0,1-1.7-.7Z" transform="translate(-13.4 -11.1)"/><path class="cls-3" d="M273.3,15.9h-1.2V15.1h3.3v0.8h-1.2v4.6h-0.9V15.9Z" transform="translate(-13.4 -11.1)"/><path class="cls-3" d="M277.7,18.4H277v2h-0.9V15.1H278a1.5,1.5,0,0,1,1.6,1.6,1.4,1.4,0,0,1-1,1.5l1,2.2h-1Zm0.2-2.5H277v1.8h0.8a0.8,0.8,0,0,0,.8-0.9A0.8,0.8,0,0,0,277.9,15.9Z" transform="translate(-13.4 -11.1)"/><path class="cls-3" d="M282.9,19.4h-1.8l-0.3,1.1h-1l1.6-5.3h1.1l1.6,5.3h-1Zm-1.6-.8h1.4L282,16Z" transform="translate(-13.4 -11.1)"/><path class="cls-3" d="M284.7,15.1h1.6c1.4,0,2.2,1.1,2.2,2.7s-0.8,2.7-2.2,2.7h-1.6V15.1Zm1.6,4.5c0.9,0,1.3-.8,1.3-1.9s-0.4-1.9-1.3-1.9h-0.7v3.8h0.7Z" transform="translate(-13.4 -11.1)"/><path class="cls-3" d="M291.3,15c1.4,0,2.1,1.2,2.1,2.8s-0.8,2.8-2.1,2.8-2.1-1.2-2.1-2.8S289.9,15,291.3,15Zm0,0.8c-0.8,0-1.2.9-1.2,2s0.4,2,1.2,2,1.2-.9,1.2-2S292.1,15.8,291.3,15.8Z" transform="translate(-13.4 -11.1)"/><path class="cls-3" d="M295.8,18.4h-0.7v2h-0.9V15.1h1.8a1.5,1.5,0,0,1,1.6,1.6,1.4,1.4,0,0,1-1,1.5l1,2.2h-1Zm0.2-2.5h-0.8v1.8H296a0.8,0.8,0,0,0,.8-0.9A0.8,0.8,0,0,0,296,15.9Z" transform="translate(-13.4 -11.1)"/><path class="cls-3" d="M101.2,59.1h1.5c1.4,0,2.2,1.1,2.2,2.7s-0.8,2.7-2.2,2.7h-1.5V59.1Zm1.5,4.5c0.8,0,1.3-.8,1.3-1.9s-0.4-1.9-1.3-1.9h-0.7v3.8h0.7Z" transform="translate(-13.4 -11.1)"/><path class="cls-3" d="M105.7,59.1h0.9v5.3h-0.9V59.1Z" transform="translate(-13.4 -11.1)"/><path class="cls-3" d="M109.1,62.4h-0.6v2h-0.9V59.1h1.8a1.5,1.5,0,0,1,1.5,1.6,1.4,1.4,0,0,1-1,1.5l1,2.2h-1Zm0.2-2.5h-0.8v1.8h0.8A0.9,0.9,0,0,0,109.2,59.8Z" transform="translate(-13.4 -11.1)"/><path class="cls-3" d="M111.7,59.1h2.8v0.8h-2v1.4h1.9v0.8h-1.9v1.5h2v0.8h-2.8V59.1Z" transform="translate(-13.4 -11.1)"/><path class="cls-3" d="M115.2,61.7c0-1.6.8-2.8,2.1-2.8a1.8,1.8,0,0,1,1.6,1.2l-0.7.3a1,1,0,0,0-.9-0.7c-0.8,0-1.2.8-1.2,2s0.5,2,1.2,2a1,1,0,0,0,.9-0.8l0.7,0.3a1.8,1.8,0,0,1-1.6,1.2C116,64.5,115.2,63.3,115.2,61.7Z" transform="translate(-13.4 -11.1)"/><path class="cls-3" d="M120.5,59.8h-1.2V59.1h3.2v0.8h-1.2v4.6h-0.9V59.8Z" transform="translate(-13.4 -11.1)"/><path class="cls-3" d="M124.9,59c1.3,0,2.1,1.2,2.1,2.8s-0.8,2.8-2.1,2.8-2.1-1.2-2.1-2.8S123.6,59,124.9,59Zm0,0.8c-0.8,0-1.2.9-1.2,2s0.4,2,1.2,2,1.2-.9,1.2-2S125.7,59.7,124.9,59.7Z" transform="translate(-13.4 -11.1)"/><path class="cls-3" d="M129.3,62.4h-0.6v2h-0.9V59.1h1.8a1.5,1.5,0,0,1,1.5,1.6,1.4,1.4,0,0,1-1,1.5l1,2.2h-1Zm0.2-2.5h-0.8v1.8h0.8A0.9,0.9,0,0,0,129.4,59.8Z" transform="translate(-13.4 -11.1)"/><path class="cls-3" d="M86.2,67.1h1.5c1.4,0,2.2,1.1,2.2,2.7s-0.8,2.7-2.2,2.7H86.2V67.1Zm1.5,4.5c0.8,0,1.3-.8,1.3-1.9s-0.4-1.9-1.3-1.9H87.1v3.8h0.7Z" transform="translate(-13.4 -11.1)"/><path class="cls-3" d="M90.7,67.1h2.8v0.8h-2v1.4h1.9v0.8H91.6v1.5h2v0.8H90.7V67.1Z" transform="translate(-13.4 -11.1)"/><path class="cls-3" d="M98.5,71.3H96.8l-0.3,1.1H95.6l1.5-5.3h1l1.5,5.3H98.7Zm-1.5-.8h1.3L97.6,68Z" transform="translate(-13.4 -11.1)"/><path class="cls-3" d="M100.2,67.1h1.5c1.4,0,2.2,1.1,2.2,2.7s-0.8,2.7-2.2,2.7h-1.5V67.1Zm1.5,4.5c0.8,0,1.3-.8,1.3-1.9s-0.4-1.9-1.3-1.9h-0.7v3.8h0.7Z" transform="translate(-13.4 -11.1)"/><path class="cls-3" d="M108.4,68.7l-1.3,3.7h-0.3l-1.2-3.7v3.7h-0.9V67.1h1.2l1.1,3.2,1.1-3.2h1.2v5.3h-0.9V68.7Z" transform="translate(-13.4 -11.1)"/><path class="cls-3" d="M110.2,67.1h0.9v5.3h-0.9V67.1Z" transform="translate(-13.4 -11.1)"/><path class="cls-3" d="M113,68.9v3.4h-0.9V67.1H113l1.9,3.4V67.1h0.9v5.3h-0.8Z" transform="translate(-13.4 -11.1)"/><path class="cls-3" d="M116.7,67.1h0.9v5.3h-0.9V67.1Z" transform="translate(-13.4 -11.1)"/><path class="cls-3" d="M118.6,71.1a1.6,1.6,0,0,0,1.2.6,0.7,0.7,0,0,0,.8-0.7,1.2,1.2,0,0,0-.9-0.9,1.8,1.8,0,0,1-1.4-1.6A1.5,1.5,0,0,1,120,67a2.1,2.1,0,0,1,1.5.6l-0.4.7a1.5,1.5,0,0,0-1.1-.5,0.6,0.6,0,0,0-.7.6,1.1,1.1,0,0,0,.9.8,1.9,1.9,0,0,1,1.4,1.7,1.5,1.5,0,0,1-1.7,1.6,2.2,2.2,0,0,1-1.7-.7Z" transform="translate(-13.4 -11.1)"/><path class="cls-3" d="M123.1,67.8h-1.2V67.1h3.2v0.8H124v4.6h-0.9V67.8Z" transform="translate(-13.4 -11.1)"/><path class="cls-3" d="M127.3,70.4h-0.6v2h-0.9V67.1h1.8a1.5,1.5,0,0,1,1.5,1.6,1.4,1.4,0,0,1-1,1.5l1,2.2h-1Zm0.2-2.5h-0.8v1.8h0.8A0.9,0.9,0,0,0,127.5,67.8Z" transform="translate(-13.4 -11.1)"/><path class="cls-3" d="M132.4,71.3h-1.7l-0.3,1.1h-0.9l1.5-5.3h1l1.5,5.3h-0.9Zm-1.5-.8h1.3L131.5,68Z" transform="translate(-13.4 -11.1)"/><path class="cls-3" d="M136,72.5v0.3h0.2a0.5,0.5,0,0,1,.5.5,0.7,0.7,0,0,1-.8.7,1.2,1.2,0,0,1-.7-0.2l0.2-.4,0.6,0.2a0.3,0.3,0,0,0,.4-0.3,0.2,0.2,0,0,0-.2-0.2h-0.2l-0.3-.2,0.2-.5c-1.1-.2-1.8-1.3-1.8-2.7s0.8-2.8,2.1-2.8a1.8,1.8,0,0,1,1.6,1.2l-0.7.3a1,1,0,0,0-.9-0.7c-0.8,0-1.2.8-1.2,2s0.5,2,1.2,2a1,1,0,0,0,.9-0.8l0.7,0.3A1.8,1.8,0,0,1,136,72.5Z" transform="translate(-13.4 -11.1)"/><path class="cls-3" d="M140.6,71.3h-1.7l-0.3,1.1h-0.9l1.5-5.3h1l1.5,5.3h-0.9ZM139.3,66c-0.1,0-.3.2-0.3,0.6h-0.4a0.9,0.9,0,0,1,.7-1.1,0.6,0.6,0,0,1,.5.4,0.4,0.4,0,0,0,.3.2c0.1,0,.3-0.2.3-0.6h0.4a0.9,0.9,0,0,1-.7,1.1,0.6,0.6,0,0,1-.5-0.4A0.4,0.4,0,0,0,139.3,66Zm-0.3,4.6h1.3L139.7,68Z" transform="translate(-13.4 -11.1)"/><path class="cls-3" d="M144,67c1.3,0,2.1,1.2,2.1,2.8s-0.8,2.8-2.1,2.8-2.1-1.2-2.1-2.8S142.7,67,144,67Zm0,0.8c-0.8,0-1.2.9-1.2,2s0.4,2,1.2,2,1.2-.9,1.2-2S144.8,67.7,144,67.7Z" transform="translate(-13.4 -11.1)"/><path class="cls-3" d="M29.1,115H27.4l-0.3,1.1H26.2l1.5-5.3h1l1.5,5.3H29.4Zm-1.5-.8h1.3l-0.7-2.6Z" transform="translate(-13.4 -11.1)"/><path class="cls-3" d="M30.9,114.8a1.6,1.6,0,0,0,1.2.6,0.7,0.7,0,0,0,.8-0.7,1.2,1.2,0,0,0-.9-0.9,1.8,1.8,0,0,1-1.4-1.6,1.5,1.5,0,0,1,1.6-1.5,2.1,2.1,0,0,1,1.5.6l-0.4.7a1.5,1.5,0,0,0-1.1-.5,0.6,0.6,0,0,0-.7.6,1.1,1.1,0,0,0,.9.8,1.9,1.9,0,0,1,1.4,1.7,1.5,1.5,0,0,1-1.7,1.6,2.2,2.2,0,0,1-1.7-.7Z" transform="translate(-13.4 -11.1)"/><path class="cls-3" d="M34.7,114.8a1.6,1.6,0,0,0,1.2.6,0.7,0.7,0,0,0,.8-0.7,1.2,1.2,0,0,0-.9-0.9,1.8,1.8,0,0,1-1.4-1.6,1.5,1.5,0,0,1,1.6-1.5,2.1,2.1,0,0,1,1.5.6l-0.4.7a1.5,1.5,0,0,0-1.1-.5,0.6,0.6,0,0,0-.7.6,1.1,1.1,0,0,0,.9.8,1.9,1.9,0,0,1,1.4,1.7,1.5,1.5,0,0,1-1.7,1.6,2.2,2.2,0,0,1-1.7-.7Z" transform="translate(-13.4 -11.1)"/><path class="cls-3" d="M38.3,110.8h0.9v5.3H38.3v-5.3Z" transform="translate(-13.4 -11.1)"/><path class="cls-3" d="M40.3,114.8a1.6,1.6,0,0,0,1.2.6,0.7,0.7,0,0,0,.8-0.7,1.2,1.2,0,0,0-.9-0.9,1.8,1.8,0,0,1-1.4-1.6,1.5,1.5,0,0,1,1.6-1.5,2.1,2.1,0,0,1,1.5.6l-0.4.7a1.5,1.5,0,0,0-1.1-.5,0.6,0.6,0,0,0-.7.6,1.1,1.1,0,0,0,.9.8,1.9,1.9,0,0,1,1.4,1.7,1.5,1.5,0,0,1-1.7,1.6,2.2,2.2,0,0,1-1.7-.7Z" transform="translate(-13.4 -11.1)"/><path class="cls-3" d="M44.7,111.5H43.5v-0.8h3.2v0.8H45.6v4.6H44.7v-4.6Z" transform="translate(-13.4 -11.1)"/><path class="cls-3" d="M47.4,110.8h2.8v0.8h-2V113h1.9v0.8H48.3v1.5h2v0.8H47.4v-5.3Z" transform="translate(-13.4 -11.1)"/><path class="cls-3" d="M52,112.7v3.4H51.1v-5.3H52l1.9,3.4v-3.4h0.9v5.3H53.9Z" transform="translate(-13.4 -11.1)"/><path class="cls-3" d="M56.6,111.5H55.4v-0.8h3.2v0.8H57.4v4.6H56.6v-4.6Z" transform="translate(-13.4 -11.1)"/><path class="cls-3" d="M59.3,110.8h2.8v0.8h-2V113h1.9v0.8H60.1v1.5h2v0.8H59.3v-5.3Z" transform="translate(-13.4 -11.1)"/><path class="cls-3" d="M22.1,123H20.4l-0.3,1.1H19.2l1.5-5.3h1l1.5,5.3H22.4Zm-1.5-.8h1.3l-0.7-2.6Z" transform="translate(-13.4 -11.1)"/><path class="cls-3" d="M23.8,118.8h1.5c1.4,0,2.2,1.1,2.2,2.7s-0.8,2.7-2.2,2.7H23.8v-5.3Zm1.5,4.5c0.8,0,1.3-.8,1.3-1.9s-0.4-1.9-1.3-1.9H24.7v3.8h0.7Z" transform="translate(-13.4 -11.1)"/><path class="cls-3" d="M32,120.4l-1.3,3.7H30.4l-1.2-3.7v3.7H28.3v-5.3h1.2l1.1,3.2,1.1-3.2h1.2v5.3H32v-3.7Z" transform="translate(-13.4 -11.1)"/><path class="cls-3" d="M33.9,118.8h0.9v5.3H33.9v-5.3Z" transform="translate(-13.4 -11.1)"/><path class="cls-3" d="M36.6,120.7v3.4H35.7v-5.3h0.9l1.9,3.4v-3.4h0.9v5.3H38.5Z" transform="translate(-13.4 -11.1)"/><path class="cls-3" d="M40.3,118.8h0.9v5.3H40.3v-5.3Z" transform="translate(-13.4 -11.1)"/><path class="cls-3" d="M42.3,122.8a1.6,1.6,0,0,0,1.2.6,0.7,0.7,0,0,0,.8-0.7,1.2,1.2,0,0,0-.9-0.9,1.8,1.8,0,0,1-1.4-1.6,1.5,1.5,0,0,1,1.6-1.5,2.1,2.1,0,0,1,1.5.6l-0.4.7a1.5,1.5,0,0,0-1.1-.5,0.6,0.6,0,0,0-.7.6,1.1,1.1,0,0,0,.9.8,1.9,1.9,0,0,1,1.4,1.7,1.5,1.5,0,0,1-1.7,1.6,2.2,2.2,0,0,1-1.7-.7Z" transform="translate(-13.4 -11.1)"/><path class="cls-3" d="M46.7,119.5H45.5v-0.8h3.2v0.8H47.6v4.6H46.7v-4.6Z" transform="translate(-13.4 -11.1)"/><path class="cls-3" d="M50.9,122.1H50.3v2H49.4v-5.3h1.8a1.5,1.5,0,0,1,1.5,1.6,1.4,1.4,0,0,1-1,1.5l1,2.2h-1Zm0.2-2.5H50.3v1.8h0.8A0.9,0.9,0,0,0,51.1,119.5Z" transform="translate(-13.4 -11.1)"/><path class="cls-3" d="M56,123H54.3L54,124.1H53.1l1.5-5.3h1l1.5,5.3H56.3Zm-1.5-.8h1.3l-0.7-2.6Z" transform="translate(-13.4 -11.1)"/><path class="cls-3" d="M58.2,119.5H57v-0.8h3.2v0.8H59.1v4.6H58.2v-4.6Z" transform="translate(-13.4 -11.1)"/><path class="cls-3" d="M60.9,118.8h0.9v5.3H60.9v-5.3Z" transform="translate(-13.4 -11.1)"/><path class="cls-3" d="M62.3,118.8h0.9l1.1,4.3,1.1-4.3h0.9l-1.5,5.3h-1Z" transform="translate(-13.4 -11.1)"/><path class="cls-3" d="M68.7,118.7c1.3,0,2.1,1.2,2.1,2.8s-0.8,2.8-2.1,2.8-2.1-1.2-2.1-2.8S67.4,118.7,68.7,118.7Zm0,0.8c-0.8,0-1.2.9-1.2,2s0.4,2,1.2,2,1.2-.9,1.2-2S69.5,119.5,68.7,119.5Z" transform="translate(-13.4 -11.1)"/><path class="cls-3" d="M163.3,110.8h1.5c1.4,0,2.2,1.1,2.2,2.7s-0.8,2.7-2.2,2.7h-1.5v-5.3Zm1.5,4.5c0.8,0,1.3-.8,1.3-1.9s-0.4-1.9-1.3-1.9h-0.7v3.8h0.7Z" transform="translate(-13.4 -11.1)"/><path class="cls-3" d="M167.8,110.8h2.8v0.8h-2V113h1.9v0.8h-1.9v1.5h2v0.8h-2.8v-5.3Z" transform="translate(-13.4 -11.1)"/><path class="cls-3" d="M171.5,110.8h1.8a1.7,1.7,0,0,1,0,3.3h-0.9v2h-0.9v-5.3Zm1.7,0.8h-0.8v1.8h0.8A0.9,0.9,0,0,0,173.1,111.5Z" transform="translate(-13.4 -11.1)"/><path class="cls-3" d="M177.5,115h-1.7l-0.3,1.1h-0.9l1.5-5.3h1l1.5,5.3h-0.9Zm-1.5-.8h1.3l-0.7-2.6Z" transform="translate(-13.4 -11.1)"/><path class="cls-3" d="M180.7,114.1h-0.6v2h-0.9v-5.3H181a1.5,1.5,0,0,1,1.5,1.6,1.4,1.4,0,0,1-1,1.5l1,2.2h-1Zm0.2-2.5h-0.8v1.8h0.8A0.9,0.9,0,0,0,180.9,111.5Z" transform="translate(-13.4 -11.1)"/><path class="cls-3" d="M184.1,111.5h-1.2v-0.8h3.2v0.8H185v4.6h-0.9v-4.6Z" transform="translate(-13.4 -11.1)"/><path class="cls-3" d="M188.9,115h-1.7l-0.3,1.1H186l1.5-5.3h1l1.5,5.3h-0.9Zm-1.5-.8h1.3l-0.7-2.6Z" transform="translate(-13.4 -11.1)"/><path class="cls-3" d="M194.3,112.4l-1.3,3.7h-0.3l-1.2-3.7v3.7h-0.9v-5.3h1.2l1.1,3.2,1.1-3.2h1.2v5.3h-0.9v-3.7Z" transform="translate(-13.4 -11.1)"/><path class="cls-3" d="M161.6,121.4c0-1.6.8-2.8,2.1-2.8a1.8,1.8,0,0,1,1.6,1.2l-0.7.3a1,1,0,0,0-.9-0.7c-0.8,0-1.2.8-1.2,2s0.5,2,1.2,2a1,1,0,0,0,.9-0.8l0.7,0.3a1.8,1.8,0,0,1-1.6,1.2C162.4,124.2,161.6,123,161.6,121.4Z" transform="translate(-13.4 -11.1)"/><path class="cls-3" d="M167.9,118.7c1.3,0,2.1,1.2,2.1,2.8s-0.8,2.8-2.1,2.8-2.1-1.2-2.1-2.8S166.6,118.7,167.9,118.7Zm0,0.8c-0.8,0-1.2.9-1.2,2s0.4,2,1.2,2,1.2-.9,1.2-2S168.6,119.5,167.9,119.5Z" transform="translate(-13.4 -11.1)"/><path class="cls-3" d="M174.4,120.4l-1.3,3.7h-0.3l-1.2-3.7v3.7h-0.9v-5.3h1.2L173,122l1.1-3.2h1.2v5.3h-0.9v-3.7Z" transform="translate(-13.4 -11.1)"/><path class="cls-3" d="M176.3,118.8h2.8v0.8h-2V121H179v0.8h-1.9v1.5h2v0.8h-2.8v-5.3Z" transform="translate(-13.4 -11.1)"/><path class="cls-3" d="M181.4,122.1h-0.6v2h-0.9v-5.3h1.8a1.5,1.5,0,0,1,1.5,1.6,1.4,1.4,0,0,1-1,1.5l1,2.2h-1Zm0.2-2.5h-0.8v1.8h0.8A0.9,0.9,0,0,0,181.6,119.5Z" transform="translate(-13.4 -11.1)"/><path class="cls-3" d="M183.9,121.4c0-1.6.8-2.8,2.1-2.8a1.8,1.8,0,0,1,1.6,1.2l-0.7.3a1,1,0,0,0-.9-0.7c-0.8,0-1.2.8-1.2,2s0.5,2,1.2,2a1,1,0,0,0,.9-0.8l0.7,0.3a1.8,1.8,0,0,1-1.6,1.2C184.7,124.2,183.9,123,183.9,121.4Z" transform="translate(-13.4 -11.1)"/><path class="cls-3" d="M188.3,118.8h0.9v5.3h-0.9v-5.3Z" transform="translate(-13.4 -11.1)"/><path class="cls-3" d="M192.6,123h-1.7l-0.3,1.1h-0.9l1.5-5.3h1l1.5,5.3h-0.9Zm-1.5-.8h1.3l-0.7-2.6Z" transform="translate(-13.4 -11.1)"/><path class="cls-3" d="M194.3,118.8h0.9v4.5H197v0.8h-2.7v-5.3Z" transform="translate(-13.4 -11.1)"/><path class="cls-3" d="M87.5,113.4c0-1.6.8-2.8,2.1-2.8a1.8,1.8,0,0,1,1.6,1.2l-0.7.3a1,1,0,0,0-.9-0.7c-0.8,0-1.2.8-1.2,2s0.5,2,1.2,2a1,1,0,0,0,.9-0.8l0.7,0.3a1.8,1.8,0,0,1-1.6,1.2C88.3,116.2,87.5,115,87.5,113.4Z" transform="translate(-13.4 -11.1)"/><path class="cls-3" d="M93.8,110.7c1.3,0,2.1,1.2,2.1,2.8s-0.8,2.8-2.1,2.8-2.1-1.2-2.1-2.8S92.5,110.7,93.8,110.7Zm0,0.8c-0.8,0-1.2.9-1.2,2s0.4,2,1.2,2,1.2-.9,1.2-2S94.6,111.5,93.8,111.5Z" transform="translate(-13.4 -11.1)"/><path class="cls-3" d="M97.5,112.7v3.4H96.7v-5.3h0.9l1.9,3.4v-3.4h0.9v5.3H99.5Z" transform="translate(-13.4 -11.1)"/><path class="cls-3" d="M102.1,111.5H101v-0.8h3.2v0.8H103v4.6h-0.9v-4.6Z" transform="translate(-13.4 -11.1)"/><path class="cls-3" d="M106.9,115h-1.7l-0.3,1.1H104l1.5-5.3h1l1.5,5.3h-0.9Zm-1.5-.8h1.3l-0.7-2.6Z" transform="translate(-13.4 -11.1)"/><path class="cls-3" d="M108.6,110.8h2a1.3,1.3,0,0,1,1.3,1.4,1.2,1.2,0,0,1-.8,1.2,1.3,1.3,0,0,1,.9,1.3,1.3,1.3,0,0,1-1.4,1.4h-2v-5.3Zm1.8,2.2a0.6,0.6,0,0,0,.6-0.7,0.6,0.6,0,0,0-.6-0.7h-0.9V113h0.9Zm0,2.3a0.7,0.7,0,0,0,.7-0.8,0.7,0.7,0,0,0-.7-0.8h-0.9v1.5h0.9Z" transform="translate(-13.4 -11.1)"/><path class="cls-3" d="M112.8,110.8h0.9v5.3h-0.9v-5.3Z" transform="translate(-13.4 -11.1)"/><path class="cls-3" d="M114.7,110.8h0.9v4.5h1.8v0.8h-2.7v-5.3Z" transform="translate(-13.4 -11.1)"/><path class="cls-3" d="M118,110.8h0.9v5.3H118v-5.3Z" transform="translate(-13.4 -11.1)"/><path class="cls-3" d="M119.9,110.8h1.5c1.4,0,2.2,1.1,2.2,2.7s-0.8,2.7-2.2,2.7h-1.5v-5.3Zm1.5,4.5c0.8,0,1.3-.8,1.3-1.9s-0.4-1.9-1.3-1.9h-0.7v3.8h0.7Z" transform="translate(-13.4 -11.1)"/><path class="cls-3" d="M126.7,115H125l-0.3,1.1h-0.9l1.5-5.3h1l1.5,5.3H127Zm-1.5-.8h1.3l-0.7-2.6Z" transform="translate(-13.4 -11.1)"/><path class="cls-3" d="M128.4,110.8H130c1.4,0,2.2,1.1,2.2,2.7s-0.8,2.7-2.2,2.7h-1.5v-5.3Zm1.5,4.5c0.8,0,1.3-.8,1.3-1.9s-0.4-1.9-1.3-1.9h-0.7v3.8H130Z" transform="translate(-13.4 -11.1)"/><path class="cls-3" d="M132.9,110.8h2.8v0.8h-2V113h1.9v0.8h-1.9v1.5h2v0.8h-2.8v-5.3Z" transform="translate(-13.4 -11.1)"/><path class="cls-3" d="M231.1,110.8H232v4.5h1.8v0.8h-2.7v-5.3Z" transform="translate(-13.4 -11.1)"/><path class="cls-3" d="M236.1,110.7c1.3,0,2.1,1.2,2.1,2.8s-0.8,2.8-2.1,2.8-2.1-1.2-2.1-2.8S234.8,110.7,236.1,110.7Zm0,0.8c-0.8,0-1.2.9-1.2,2s0.4,2,1.2,2,1.2-.9,1.2-2S236.9,111.5,236.1,111.5Z" transform="translate(-13.4 -11.1)"/><path class="cls-3" d="M240.9,110.7a1.8,1.8,0,0,1,1.6,1.1l-0.7.3a1.1,1.1,0,0,0-.9-0.7c-0.7,0-1.2.8-1.2,2s0.5,2,1.2,2a1.1,1.1,0,0,0,.9-0.4v-1h-1.1v-0.8h1.9v2.1a2.1,2.1,0,0,1-1.7.8c-1.3,0-2.1-1.1-2.1-2.8S239.6,110.7,240.9,110.7Z" transform="translate(-13.4 -11.1)"/><path class="cls-3" d="M243.5,110.8h0.9v5.3h-0.9v-5.3Zm0-.4,0.9-1.2h0.7l-1,1.2h-0.5Z" transform="translate(-13.4 -11.1)"/><path class="cls-3" d="M245.4,114.8a1.6,1.6,0,0,0,1.2.6,0.7,0.7,0,0,0,.8-0.7,1.2,1.2,0,0,0-.9-0.9,1.8,1.8,0,0,1-1.4-1.6,1.5,1.5,0,0,1,1.6-1.5,2.1,2.1,0,0,1,1.5.6l-0.4.7a1.5,1.5,0,0,0-1.1-.5,0.6,0.6,0,0,0-.7.6,1.1,1.1,0,0,0,.9.8,1.9,1.9,0,0,1,1.4,1.7,1.5,1.5,0,0,1-1.7,1.6,2.2,2.2,0,0,1-1.7-.7Z" transform="translate(-13.4 -11.1)"/><path class="cls-3" d="M249.9,111.5h-1.2v-0.8h3.2v0.8h-1.2v4.6h-0.9v-4.6Z" transform="translate(-13.4 -11.1)"/><path class="cls-3" d="M252.6,110.8h0.9v5.3h-0.9v-5.3Z" transform="translate(-13.4 -11.1)"/><path class="cls-3" d="M254.2,113.4c0-1.6.8-2.8,2.1-2.8a1.8,1.8,0,0,1,1.6,1.2l-0.7.3a1,1,0,0,0-.9-0.7c-0.8,0-1.2.8-1.2,2s0.5,2,1.2,2a1,1,0,0,0,.9-0.8L258,115a1.8,1.8,0,0,1-1.6,1.2C255.1,116.2,254.2,115,254.2,113.4Z" transform="translate(-13.4 -11.1)"/><path class="cls-3" d="M261.1,115h-1.7l-0.3,1.1h-0.9l1.5-5.3h1l1.5,5.3h-0.9Zm-1.5-.8h1.3l-0.7-2.6Z" transform="translate(-13.4 -11.1)"/><path class="cls-3" d="M263.8,110.6h0.6l-1.5,5.7h-0.6Z" transform="translate(-13.4 -11.1)"/><path class="cls-3" d="M266.8,110.7a1.8,1.8,0,0,1,1.6,1.1l-0.7.3a1.1,1.1,0,0,0-.9-0.7c-0.7,0-1.2.8-1.2,2s0.5,2,1.2,2a1.1,1.1,0,0,0,.9-0.4v-1h-1.1v-0.8h1.9v2.1a2.1,2.1,0,0,1-1.7.8c-1.3,0-2.1-1.1-2.1-2.8S265.5,110.7,266.8,110.7Z" transform="translate(-13.4 -11.1)"/><path class="cls-3" d="M269.3,110.8h2.8v0.8h-2V113h1.9v0.8h-1.9v1.5h2v0.8h-2.8v-5.3Z" transform="translate(-13.4 -11.1)"/><path class="cls-3" d="M273.1,114.8a1.6,1.6,0,0,0,1.2.6,0.7,0.7,0,0,0,.8-0.7,1.2,1.2,0,0,0-.9-0.9,1.8,1.8,0,0,1-1.4-1.6,1.5,1.5,0,0,1,1.6-1.5,2.1,2.1,0,0,1,1.5.6l-0.4.7a1.5,1.5,0,0,0-1.1-.5,0.6,0.6,0,0,0-.7.6,1.1,1.1,0,0,0,.9.8,1.9,1.9,0,0,1,1.4,1.7,1.5,1.5,0,0,1-1.7,1.6,2.2,2.2,0,0,1-1.7-.7Z" transform="translate(-13.4 -11.1)"/><path class="cls-3" d="M277.6,111.5h-1.2v-0.8h3.2v0.8h-1.2v4.6h-0.9v-4.6Z" transform="translate(-13.4 -11.1)"/><path class="cls-3" d="M282.3,115h-1.7l-0.3,1.1h-0.9l1.5-5.3h1l1.5,5.3h-0.9Zm-1.3-5.4c-0.1,0-.3.2-0.3,0.6h-0.4a0.9,0.9,0,0,1,.7-1.1,0.6,0.6,0,0,1,.5.4,0.4,0.4,0,0,0,.3.2c0.1,0,.3-0.2.3-0.6h0.4a0.9,0.9,0,0,1-.7,1.1,0.6,0.6,0,0,1-.5-0.4A0.4,0.4,0,0,0,281.1,109.7Zm-0.3,4.6h1.3l-0.7-2.6Z" transform="translate(-13.4 -11.1)"/><path class="cls-3" d="M285.8,110.7c1.3,0,2.1,1.2,2.1,2.8s-0.8,2.8-2.1,2.8-2.1-1.2-2.1-2.8S284.5,110.7,285.8,110.7Zm0,0.8c-0.8,0-1.2.9-1.2,2s0.4,2,1.2,2,1.2-.9,1.2-2S286.5,111.5,285.8,111.5Z" transform="translate(-13.4 -11.1)"/><path class="cls-3" d="M243.8,118.8h1.5c1.4,0,2.2,1.1,2.2,2.7s-0.8,2.7-2.2,2.7h-1.5v-5.3Zm1.5,4.5c0.8,0,1.3-.8,1.3-1.9s-0.4-1.9-1.3-1.9h-0.7v3.8h0.7Z" transform="translate(-13.4 -11.1)"/><path class="cls-3" d="M248.3,118.8h2.8v0.8h-2V121h1.9v0.8h-1.9v1.5h2v0.8h-2.8v-5.3Z" transform="translate(-13.4 -11.1)"/><path class="cls-3" d="M253.7,122.8a1.6,1.6,0,0,0,1.2.6,0.7,0.7,0,0,0,.8-0.7,1.2,1.2,0,0,0-.9-0.9,1.8,1.8,0,0,1-1.4-1.6,1.5,1.5,0,0,1,1.6-1.5,2.1,2.1,0,0,1,1.5.6l-0.4.7a1.5,1.5,0,0,0-1.1-.5,0.6,0.6,0,0,0-.7.6,1.1,1.1,0,0,0,.9.8,1.9,1.9,0,0,1,1.4,1.7,1.5,1.5,0,0,1-1.7,1.6,2.2,2.2,0,0,1-1.7-.7Z" transform="translate(-13.4 -11.1)"/><path class="cls-3" d="M258.1,119.5H257v-0.8h3.2v0.8H259v4.6h-0.9v-4.6Z" transform="translate(-13.4 -11.1)"/><path class="cls-3" d="M262.6,118.7c1.3,0,2.1,1.2,2.1,2.8s-0.8,2.8-2.1,2.8-2.1-1.2-2.1-2.8S261.3,118.7,262.6,118.7Zm0,0.8c-0.8,0-1.2.9-1.2,2s0.4,2,1.2,2,1.2-.9,1.2-2S263.4,119.5,262.6,119.5Z" transform="translate(-13.4 -11.1)"/><path class="cls-3" d="M265.3,121.4c0-1.6.8-2.8,2.1-2.8a1.8,1.8,0,0,1,1.6,1.2l-0.7.3a1,1,0,0,0-.9-0.7c-0.8,0-1.2.8-1.2,2s0.5,2,1.2,2a1,1,0,0,0,.9-0.8L269,123a1.8,1.8,0,0,1-1.6,1.2C266.1,124.2,265.3,123,265.3,121.4Z" transform="translate(-13.4 -11.1)"/><path class="cls-3" d="M271,121.9l-0.4.6v1.6h-0.9v-5.3h0.9v2.6l1.6-2.6h1l-1.7,2.5,1.8,2.8h-1Z" transform="translate(-13.4 -11.1)"/><path class="cls-3" d="M274,122.8a1.6,1.6,0,0,0,1.2.6,0.7,0.7,0,0,0,.8-0.7,1.2,1.2,0,0,0-.9-0.9,1.8,1.8,0,0,1-1.4-1.6,1.5,1.5,0,0,1,1.6-1.5,2.1,2.1,0,0,1,1.5.6l-0.4.7a1.5,1.5,0,0,0-1.1-.5,0.6,0.6,0,0,0-.7.6,1.1,1.1,0,0,0,.9.8,1.9,1.9,0,0,1,1.4,1.7,1.5,1.5,0,0,1-1.7,1.6,2.2,2.2,0,0,1-1.7-.7Z" transform="translate(-13.4 -11.1)"/><path class="cls-3" d="M484,111.5h-1.2v-0.8H486v0.8h-1.2v4.6H484v-4.6Z" transform="translate(-13.4 -11.1)"/><path class="cls-3" d="M486.7,110.8h2.8v0.8h-2V113h1.9v0.8h-1.9v1.5h2v0.8h-2.8v-5.3Zm1-.4,0.9-1.2h0.7l-1,1.2h-0.5Z" transform="translate(-13.4 -11.1)"/><path class="cls-3" d="M490.1,113.4c0-1.6.8-2.8,2.1-2.8a1.8,1.8,0,0,1,1.6,1.2l-0.7.3a1,1,0,0,0-.9-0.7c-0.8,0-1.2.8-1.2,2s0.5,2,1.2,2a1,1,0,0,0,.9-0.8l0.7,0.3a1.8,1.8,0,0,1-1.6,1.2C491,116.2,490.1,115,490.1,113.4Z" transform="translate(-13.4 -11.1)"/><path class="cls-3" d="M495.4,112.7v3.4h-0.9v-5.3h0.9l1.9,3.4v-3.4h0.9v5.3h-0.8Z" transform="translate(-13.4 -11.1)"/><path class="cls-3" d="M499.2,110.8H500v5.3h-0.9v-5.3Z" transform="translate(-13.4 -11.1)"/><path class="cls-3" d="M500.8,113.4c0-1.6.8-2.8,2.1-2.8a1.8,1.8,0,0,1,1.6,1.2l-0.7.3a1,1,0,0,0-.9-0.7c-0.8,0-1.2.8-1.2,2s0.5,2,1.2,2a1,1,0,0,0,.9-0.8l0.7,0.3a1.8,1.8,0,0,1-1.6,1.2C501.6,116.2,500.8,115,500.8,113.4Z" transform="translate(-13.4 -11.1)"/><path class="cls-3" d="M507.1,110.7c1.3,0,2.1,1.2,2.1,2.8s-0.8,2.8-2.1,2.8-2.1-1.2-2.1-2.8S505.8,110.7,507.1,110.7Zm0,0.8c-0.8,0-1.2.9-1.2,2s0.4,2,1.2,2,1.2-.9,1.2-2S507.9,111.5,507.1,111.5Z" transform="translate(-13.4 -11.1)"/><path class="cls-3" d="M483.8,118.8h1.5c1.4,0,2.2,1.1,2.2,2.7s-0.8,2.7-2.2,2.7h-1.5v-5.3Zm1.5,4.5c0.8,0,1.3-.8,1.3-1.9s-0.4-1.9-1.3-1.9h-0.7v3.8h0.7Z" transform="translate(-13.4 -11.1)"/><path class="cls-3" d="M488.4,118.8h2.8v0.8h-2V121h1.9v0.8h-1.9v1.5h2v0.8h-2.8v-5.3Z" transform="translate(-13.4 -11.1)"/><path class="cls-3" d="M495.5,118.7c1.3,0,2.1,1.2,2.1,2.8s-0.8,2.8-2.1,2.8-2.1-1.2-2.1-2.8S494.2,118.7,495.5,118.7Zm0,0.8c-0.8,0-1.2.9-1.2,2s0.4,2,1.2,2,1.2-.9,1.2-2S496.3,119.5,495.5,119.5Z" transform="translate(-13.4 -11.1)"/><path class="cls-3" d="M498.4,118.8h2a1.3,1.3,0,0,1,1.3,1.4,1.2,1.2,0,0,1-.8,1.2,1.3,1.3,0,0,1,.9,1.3,1.3,1.3,0,0,1-1.4,1.4h-2v-5.3Zm1.8,2.2a0.6,0.6,0,0,0,.6-0.7,0.6,0.6,0,0,0-.6-0.7h-0.9V121h0.9Zm0,2.3a0.7,0.7,0,0,0,.7-0.8,0.7,0.7,0,0,0-.7-0.8h-0.9v1.5h0.9Z" transform="translate(-13.4 -11.1)"/><path class="cls-3" d="M504.1,122.1h-0.6v2h-0.9v-5.3h1.8a1.5,1.5,0,0,1,1.5,1.6,1.4,1.4,0,0,1-1,1.5l1,2.2h-1Zm0.2-2.5h-0.8v1.8h0.8A0.9,0.9,0,0,0,504.3,119.5Z" transform="translate(-13.4 -11.1)"/><path class="cls-3" d="M509.2,123h-1.7l-0.3,1.1h-0.9l1.5-5.3h1l1.5,5.3h-0.9Zm-1.5-.8H509l-0.7-2.6Z" transform="translate(-13.4 -11.1)"/><path class="cls-3" d="M312.3,110.8h2.8v0.8h-2V113h1.9v0.8h-1.9v1.5h2v0.8h-2.8v-5.3Z" transform="translate(-13.4 -11.1)"/><path class="cls-3" d="M316.8,112.7v3.4H316v-5.3h0.9l1.9,3.4v-3.4h0.9v5.3h-0.8Z" transform="translate(-13.4 -11.1)"/><path class="cls-3" d="M322.5,110.7a1.8,1.8,0,0,1,1.6,1.1l-0.7.3a1.1,1.1,0,0,0-.9-0.7c-0.7,0-1.2.8-1.2,2s0.5,2,1.2,2a1.1,1.1,0,0,0,.9-0.4v-1h-1.1v-0.8h1.9v2.1a2.1,2.1,0,0,1-1.7.8c-1.3,0-2.1-1.1-2.1-2.8S321.2,110.7,322.5,110.7Z" transform="translate(-13.4 -11.1)"/><path class="cls-3" d="M325,110.8h2.8v0.8h-2V113h1.9v0.8h-1.9v1.5h2v0.8H325v-5.3Z" transform="translate(-13.4 -11.1)"/><path class="cls-3" d="M329.5,112.7v3.4h-0.9v-5.3h0.9l1.9,3.4v-3.4h0.9v5.3h-0.8Z" transform="translate(-13.4 -11.1)"/><path class="cls-3" d="M336,113.8h-1.9v2.4h-0.9v-5.3h0.9V113H336v-2.2h0.9v5.3H336v-2.4Z" transform="translate(-13.4 -11.1)"/><path class="cls-3" d="M337.9,110.8h2.8v0.8h-2V113h1.9v0.8h-1.9v1.5h2v0.8h-2.8v-5.3Z" transform="translate(-13.4 -11.1)"/><path class="cls-3" d="M341.5,110.8h0.9v5.3h-0.9v-5.3Z" transform="translate(-13.4 -11.1)"/><path class="cls-3" d="M344.9,114.1h-0.6v2h-0.9v-5.3h1.8a1.5,1.5,0,0,1,1.5,1.6,1.4,1.4,0,0,1-1,1.5l1,2.2h-1Zm0.2-2.5h-0.8v1.8H345A0.9,0.9,0,0,0,345,111.5Z" transform="translate(-13.4 -11.1)"/><path class="cls-3" d="M349.4,110.7c1.3,0,2.1,1.2,2.1,2.8s-0.8,2.8-2.1,2.8-2.1-1.2-2.1-2.8S348.1,110.7,349.4,110.7Zm0,0.8c-0.8,0-1.2.9-1.2,2s0.4,2,1.2,2,1.2-.9,1.2-2S350.2,111.5,349.4,111.5Z" transform="translate(-13.4 -11.1)"/><path class="cls-3" d="M319.6,118.8h1.5c1.4,0,2.2,1.1,2.2,2.7s-0.8,2.7-2.2,2.7h-1.5v-5.3Zm1.5,4.5c0.8,0,1.3-.8,1.3-1.9s-0.4-1.9-1.3-1.9h-0.7v3.8h0.7Z" transform="translate(-13.4 -11.1)"/><path class="cls-3" d="M324.1,118.8h2.8v0.8h-2V121h1.9v0.8H325v1.5h2v0.8h-2.8v-5.3Z" transform="translate(-13.4 -11.1)"/><path class="cls-3" d="M331.3,118.7c1.3,0,2.1,1.2,2.1,2.8s-0.8,2.8-2.1,2.8-2.1-1.2-2.1-2.8S330,118.7,331.3,118.7Zm0,0.8c-0.8,0-1.2.9-1.2,2s0.4,2,1.2,2,1.2-.9,1.2-2S332,119.5,331.3,119.5Z" transform="translate(-13.4 -11.1)"/><path class="cls-3" d="M334.1,118.8h2a1.3,1.3,0,0,1,1.3,1.4,1.2,1.2,0,0,1-.8,1.2,1.3,1.3,0,0,1,.9,1.3,1.3,1.3,0,0,1-1.4,1.4h-2v-5.3Zm1.8,2.2a0.6,0.6,0,0,0,.6-0.7,0.6,0.6,0,0,0-.6-0.7H335V121h0.9Zm0,2.3a0.7,0.7,0,0,0,.7-0.8,0.7,0.7,0,0,0-.7-0.8H335v1.5h0.9Z" transform="translate(-13.4 -11.1)"/><path class="cls-3" d="M339.8,122.1h-0.6v2h-0.9v-5.3h1.8a1.5,1.5,0,0,1,1.5,1.6,1.4,1.4,0,0,1-1,1.5l1,2.2h-1Zm0.2-2.5h-0.8v1.8H340A0.9,0.9,0,0,0,340,119.5Z" transform="translate(-13.4 -11.1)"/><path class="cls-3" d="M344.9,123h-1.7l-0.3,1.1H342l1.5-5.3h1l1.5,5.3h-0.9Zm-1.5-.8h1.3l-0.7-2.6Z" transform="translate(-13.4 -11.1)"/><path class="cls-3" d="M404.8,110.8h2.8v0.8h-2V113h1.9v0.8h-1.9v1.5h2v0.8h-2.8v-5.3Z" transform="translate(-13.4 -11.1)"/><path class="cls-3" d="M409.3,112.7v3.4h-0.9v-5.3h0.9l1.9,3.4v-3.4h0.9v5.3h-0.8Z" transform="translate(-13.4 -11.1)"/><path class="cls-3" d="M415,110.7a1.8,1.8,0,0,1,1.6,1.1l-0.7.3a1.1,1.1,0,0,0-.9-0.7c-0.7,0-1.2.8-1.2,2s0.5,2,1.2,2a1.1,1.1,0,0,0,.9-0.4v-1h-1.1v-0.8h1.9v2.1a2.1,2.1,0,0,1-1.7.8c-1.3,0-2.1-1.1-2.1-2.8S413.7,110.7,415,110.7Z" transform="translate(-13.4 -11.1)"/><path class="cls-3" d="M417.5,110.8h2.8v0.8h-2V113h1.9v0.8h-1.9v1.5h2v0.8h-2.8v-5.3Z" transform="translate(-13.4 -11.1)"/><path class="cls-3" d="M422,112.7v3.4h-0.9v-5.3h0.9l1.9,3.4v-3.4h0.9v5.3H424Z" transform="translate(-13.4 -11.1)"/><path class="cls-3" d="M428.5,113.8h-1.9v2.4h-0.9v-5.3h0.9V113h1.9v-2.2h0.9v5.3h-0.9v-2.4Z" transform="translate(-13.4 -11.1)"/><path class="cls-3" d="M430.4,110.8h2.8v0.8h-2V113h1.9v0.8h-1.9v1.5h2v0.8h-2.8v-5.3Z" transform="translate(-13.4 -11.1)"/><path class="cls-3" d="M434,110.8h0.9v5.3H434v-5.3Z" transform="translate(-13.4 -11.1)"/><path class="cls-3" d="M437.4,114.1h-0.6v2h-0.9v-5.3h1.8a1.5,1.5,0,0,1,1.5,1.6,1.4,1.4,0,0,1-1,1.5l1,2.2h-1Zm0.2-2.5h-0.8v1.8h0.8A0.9,0.9,0,0,0,437.5,111.5Z" transform="translate(-13.4 -11.1)"/><path class="cls-3" d="M441.9,110.7c1.3,0,2.1,1.2,2.1,2.8s-0.8,2.8-2.1,2.8-2.1-1.2-2.1-2.8S440.6,110.7,441.9,110.7Zm0,0.8c-0.8,0-1.2.9-1.2,2s0.4,2,1.2,2,1.2-.9,1.2-2S442.7,111.5,441.9,111.5Z" transform="translate(-13.4 -11.1)"/><path class="cls-3" d="M413,119.5h-1.2v-0.8h3.2v0.8h-1.2v4.6H413v-4.6Z" transform="translate(-13.4 -11.1)"/><path class="cls-3" d="M415.7,118.8h2.8v0.8h-2V121h1.9v0.8h-1.9v1.5h2v0.8h-2.8v-5.3Zm1-.4,0.9-1.2h0.7l-1,1.2h-0.5Z" transform="translate(-13.4 -11.1)"/><path class="cls-3" d="M419.2,121.4c0-1.6.8-2.8,2.1-2.8a1.8,1.8,0,0,1,1.6,1.2l-0.7.3a1,1,0,0,0-.9-0.7c-0.8,0-1.2.8-1.2,2s0.5,2,1.2,2a1,1,0,0,0,.9-0.8l0.7,0.3a1.8,1.8,0,0,1-1.6,1.2C420,124.2,419.2,123,419.2,121.4Z" transform="translate(-13.4 -11.1)"/><path class="cls-3" d="M424.5,120.7v3.4h-0.9v-5.3h0.9l1.9,3.4v-3.4h0.9v5.3h-0.8Z" transform="translate(-13.4 -11.1)"/><path class="cls-3" d="M428.2,118.8h0.9v5.3h-0.9v-5.3Z" transform="translate(-13.4 -11.1)"/><path class="cls-3" d="M429.9,121.4c0-1.6.8-2.8,2.1-2.8a1.8,1.8,0,0,1,1.6,1.2l-0.7.3a1,1,0,0,0-.9-0.7c-0.8,0-1.2.8-1.2,2s0.5,2,1.2,2a1,1,0,0,0,.9-0.8l0.7,0.3a1.8,1.8,0,0,1-1.6,1.2C430.7,124.2,429.9,123,429.9,121.4Z" transform="translate(-13.4 -11.1)"/><path class="cls-3" d="M436.2,118.7c1.3,0,2.1,1.2,2.1,2.8s-0.8,2.8-2.1,2.8-2.1-1.2-2.1-2.8S434.9,118.7,436.2,118.7Zm0,0.8c-0.8,0-1.2.9-1.2,2s0.4,2,1.2,2,1.2-.9,1.2-2S437,119.5,436.2,119.5Z" transform="translate(-13.4 -11.1)"/><path class="cls-3" d="M78.3,193.4H77.7v2H76.8v-5.3h1.8a1.5,1.5,0,0,1,1.5,1.6,1.4,1.4,0,0,1-1,1.5l1,2.2h-1Zm0.2-2.5H77.7v1.8h0.8A0.9,0.9,0,0,0,78.5,190.9Z" transform="translate(-13.4 -11.1)"/><path class="cls-3" d="M81,190.1h2.8v0.8h-2v1.4h1.9v0.8H81.8v1.5h2v0.8H81v-5.3Z" transform="translate(-13.4 -11.1)"/><path class="cls-3" d="M84.7,194.2a1.6,1.6,0,0,0,1.2.6,0.7,0.7,0,0,0,.8-0.7,1.2,1.2,0,0,0-.9-0.9,1.8,1.8,0,0,1-1.4-1.6,1.5,1.5,0,0,1,1.6-1.5,2.1,2.1,0,0,1,1.5.6l-0.4.7a1.5,1.5,0,0,0-1.1-.5,0.6,0.6,0,0,0-.7.6,1.1,1.1,0,0,0,.9.8,1.9,1.9,0,0,1,1.4,1.7,1.5,1.5,0,0,1-1.7,1.6,2.2,2.2,0,0,1-1.7-.7Z" transform="translate(-13.4 -11.1)"/><path class="cls-3" d="M88.4,190.1h1.8a1.7,1.7,0,0,1,0,3.3H89.3v2H88.4v-5.3Zm1.7,0.8H89.3v1.8h0.8A0.9,0.9,0,0,0,90.1,190.9Z" transform="translate(-13.4 -11.1)"/><path class="cls-3" d="M94.3,190c1.3,0,2.1,1.2,2.1,2.8s-0.8,2.8-2.1,2.8-2.1-1.2-2.1-2.8S92.9,190,94.3,190Zm0,0.8c-0.8,0-1.2.9-1.2,2s0.4,2,1.2,2,1.2-.9,1.2-2S95,190.8,94.3,190.8Z" transform="translate(-13.4 -11.1)"/><path class="cls-3" d="M98,192v3.4H97.1v-5.3H98l1.9,3.4v-3.4h0.9v5.3H99.9Z" transform="translate(-13.4 -11.1)"/><path class="cls-3" d="M101.8,194.2a1.6,1.6,0,0,0,1.2.6,0.7,0.7,0,0,0,.8-0.7,1.2,1.2,0,0,0-.9-0.9,1.8,1.8,0,0,1-1.4-1.6,1.5,1.5,0,0,1,1.6-1.5,2.1,2.1,0,0,1,1.5.6l-0.4.7a1.5,1.5,0,0,0-1.1-.5,0.6,0.6,0,0,0-.7.6,1.1,1.1,0,0,0,.9.8,1.9,1.9,0,0,1,1.4,1.7,1.5,1.5,0,0,1-1.7,1.6,2.2,2.2,0,0,1-1.7-.7Z" transform="translate(-13.4 -11.1)"/><path class="cls-3" d="M107.9,194.4h-1.7l-0.3,1.1H105l1.5-5.3h1l1.5,5.3h-0.9Zm-1.5-.8h1.3l-0.7-2.6Z" transform="translate(-13.4 -11.1)"/><path class="cls-3" d="M108.9,190.1h0.9l1.1,4.3,1.1-4.3H113l-1.5,5.3h-1Z" transform="translate(-13.4 -11.1)"/><path class="cls-3" d="M113.5,190.1h2.8v0.8h-2v1.4h1.9v0.8h-1.9v1.5h2v0.8h-2.8v-5.3Z" transform="translate(-13.4 -11.1)"/><path class="cls-3" d="M117.2,190.1H118v4.5h1.8v0.8h-2.7v-5.3Z" transform="translate(-13.4 -11.1)"/><path class="cls-3" d="M86,198.1h1.5c1.4,0,2.2,1.1,2.2,2.7s-0.8,2.7-2.2,2.7H86v-5.3Zm1.5,4.5c0.8,0,1.3-.8,1.3-1.9s-0.4-1.9-1.3-1.9H86.8v3.8h0.7Z" transform="translate(-13.4 -11.1)"/><path class="cls-3" d="M90.5,198.1h2.8v0.8h-2v1.4h1.9v0.8H91.4v1.5h2v0.8H90.5v-5.3Z" transform="translate(-13.4 -11.1)"/><path class="cls-3" d="M97.7,198c1.3,0,2.1,1.2,2.1,2.8s-0.8,2.8-2.1,2.8-2.1-1.2-2.1-2.8S96.4,198,97.7,198Zm0,0.8c-0.8,0-1.2.9-1.2,2s0.4,2,1.2,2,1.2-.9,1.2-2S98.5,198.8,97.7,198.8Z" transform="translate(-13.4 -11.1)"/><path class="cls-3" d="M100.6,198.1h2a1.3,1.3,0,0,1,1.3,1.4,1.2,1.2,0,0,1-.8,1.2,1.3,1.3,0,0,1,.9,1.3,1.3,1.3,0,0,1-1.4,1.4h-2v-5.3Zm1.8,2.2a0.6,0.6,0,0,0,.6-0.7,0.6,0.6,0,0,0-.6-0.7h-0.9v1.4h0.9Zm0,2.3a0.7,0.7,0,0,0,.7-0.8,0.7,0.7,0,0,0-.7-0.8h-0.9v1.5h0.9Z" transform="translate(-13.4 -11.1)"/><path class="cls-3" d="M106.2,201.4h-0.6v2h-0.9v-5.3h1.8a1.5,1.5,0,0,1,1.5,1.6,1.4,1.4,0,0,1-1,1.5l1,2.2h-1Zm0.2-2.5h-0.8v1.8h0.8A0.9,0.9,0,0,0,106.4,198.9Z" transform="translate(-13.4 -11.1)"/><path class="cls-3" d="M111.3,202.4h-1.7l-0.3,1.1h-0.9l1.5-5.3h1l1.5,5.3h-0.9Zm-1.5-.8h1.3l-0.7-2.6Z" transform="translate(-13.4 -11.1)"/><path class="cls-3" d="M193.3,193.4h-0.6v2h-0.9v-5.3h1.8a1.5,1.5,0,0,1,1.5,1.6,1.4,1.4,0,0,1-1,1.5l1,2.2h-1Zm0.2-2.5h-0.8v1.8h0.8A0.9,0.9,0,0,0,193.5,190.9Z" transform="translate(-13.4 -11.1)"/><path class="cls-3" d="M195.9,190.1h2.8v0.8h-2v1.4h1.9v0.8h-1.9v1.5h2v0.8h-2.8v-5.3Z" transform="translate(-13.4 -11.1)"/><path class="cls-3" d="M199.7,194.2a1.6,1.6,0,0,0,1.2.6,0.7,0.7,0,0,0,.8-0.7,1.2,1.2,0,0,0-.9-0.9,1.8,1.8,0,0,1-1.4-1.6A1.5,1.5,0,0,1,201,190a2.1,2.1,0,0,1,1.5.6l-0.4.7a1.5,1.5,0,0,0-1.1-.5,0.6,0.6,0,0,0-.7.6,1.1,1.1,0,0,0,.9.8,1.9,1.9,0,0,1,1.4,1.7,1.5,1.5,0,0,1-1.7,1.6,2.2,2.2,0,0,1-1.7-.7Z" transform="translate(-13.4 -11.1)"/><path class="cls-3" d="M203.4,190.1h1.8a1.7,1.7,0,0,1,0,3.3h-0.9v2h-0.9v-5.3Zm1.7,0.8h-0.8v1.8H205A0.9,0.9,0,0,0,205,190.9Z" transform="translate(-13.4 -11.1)"/><path class="cls-3" d="M209.2,190c1.3,0,2.1,1.2,2.1,2.8s-0.8,2.8-2.1,2.8-2.1-1.2-2.1-2.8S207.9,190,209.2,190Zm0,0.8c-0.8,0-1.2.9-1.2,2s0.4,2,1.2,2,1.2-.9,1.2-2S210,190.8,209.2,190.8Z" transform="translate(-13.4 -11.1)"/><path class="cls-3" d="M213,192v3.4h-0.9v-5.3H213l1.9,3.4v-3.4h0.9v5.3h-0.8Z" transform="translate(-13.4 -11.1)"/><path class="cls-3" d="M216.8,194.2a1.6,1.6,0,0,0,1.2.6,0.7,0.7,0,0,0,.8-0.7,1.2,1.2,0,0,0-.9-0.9,1.8,1.8,0,0,1-1.4-1.6,1.5,1.5,0,0,1,1.6-1.5,2.1,2.1,0,0,1,1.5.6l-0.4.7a1.5,1.5,0,0,0-1.1-.5,0.6,0.6,0,0,0-.7.6,1.1,1.1,0,0,0,.9.8,1.9,1.9,0,0,1,1.4,1.7,1.5,1.5,0,0,1-1.7,1.6,2.2,2.2,0,0,1-1.7-.7Z" transform="translate(-13.4 -11.1)"/><path class="cls-3" d="M222.8,194.4h-1.7l-0.3,1.1h-0.9l1.5-5.3h1l1.5,5.3h-0.9Zm-1.5-.8h1.3l-0.7-2.6Z" transform="translate(-13.4 -11.1)"/><path class="cls-3" d="M223.8,190.1h0.9l1.1,4.3,1.1-4.3H228l-1.5,5.3h-1Z" transform="translate(-13.4 -11.1)"/><path class="cls-3" d="M228.5,190.1h2.8v0.8h-2v1.4h1.9v0.8h-1.9v1.5h2v0.8h-2.8v-5.3Z" transform="translate(-13.4 -11.1)"/><path class="cls-3" d="M232.1,190.1H233v4.5h1.8v0.8h-2.7v-5.3Z" transform="translate(-13.4 -11.1)"/><path class="cls-3" d="M201,198.1h1.5c1.4,0,2.2,1.1,2.2,2.7s-0.8,2.7-2.2,2.7H201v-5.3Zm1.5,4.5c0.8,0,1.3-.8,1.3-1.9s-0.4-1.9-1.3-1.9h-0.7v3.8h0.7Z" transform="translate(-13.4 -11.1)"/><path class="cls-3" d="M205.5,198.1h2.8v0.8h-2v1.4h1.9v0.8h-1.9v1.5h2v0.8h-2.8v-5.3Z" transform="translate(-13.4 -11.1)"/><path class="cls-3" d="M212.7,198c1.3,0,2.1,1.2,2.1,2.8s-0.8,2.8-2.1,2.8-2.1-1.2-2.1-2.8S211.3,198,212.7,198Zm0,0.8c-0.8,0-1.2.9-1.2,2s0.4,2,1.2,2,1.2-.9,1.2-2S213.4,198.8,212.7,198.8Z" transform="translate(-13.4 -11.1)"/><path class="cls-3" d="M215.5,198.1h2a1.3,1.3,0,0,1,1.3,1.4,1.2,1.2,0,0,1-.8,1.2,1.3,1.3,0,0,1,.9,1.3,1.3,1.3,0,0,1-1.4,1.4h-2v-5.3Zm1.8,2.2a0.6,0.6,0,0,0,.6-0.7,0.6,0.6,0,0,0-.6-0.7h-0.9v1.4h0.9Zm0,2.3a0.7,0.7,0,0,0,.7-0.8,0.7,0.7,0,0,0-.7-0.8h-0.9v1.5h0.9Z" transform="translate(-13.4 -11.1)"/><path class="cls-3" d="M221.2,201.4h-0.6v2h-0.9v-5.3h1.8a1.5,1.5,0,0,1,1.5,1.6,1.4,1.4,0,0,1-1,1.5l1,2.2h-1Zm0.2-2.5h-0.8v1.8h0.8A0.9,0.9,0,0,0,221.4,198.9Z" transform="translate(-13.4 -11.1)"/><path class="cls-3" d="M226.3,202.4h-1.7l-0.3,1.1h-0.9l1.5-5.3h1l1.5,5.3h-0.9Zm-1.5-.8h1.3l-0.7-2.6Z" transform="translate(-13.4 -11.1)"/><path class="cls-3" d="M311.2,193.4h-0.6v2h-0.9v-5.3h1.8a1.5,1.5,0,0,1,1.5,1.6,1.4,1.4,0,0,1-1,1.5l1,2.2h-1Zm0.2-2.5h-0.8v1.8h0.8A0.9,0.9,0,0,0,311.3,190.9Z" transform="translate(-13.4 -11.1)"/><path class="cls-3" d="M313.8,190.1h2.8v0.8h-2v1.4h1.9v0.8h-1.9v1.5h2v0.8h-2.8v-5.3Z" transform="translate(-13.4 -11.1)"/><path class="cls-3" d="M317.6,194.2a1.6,1.6,0,0,0,1.2.6,0.7,0.7,0,0,0,.8-0.7,1.2,1.2,0,0,0-.9-0.9,1.8,1.8,0,0,1-1.4-1.6,1.5,1.5,0,0,1,1.6-1.5,2.1,2.1,0,0,1,1.5.6l-0.4.7a1.5,1.5,0,0,0-1.1-.5,0.6,0.6,0,0,0-.7.6,1.1,1.1,0,0,0,.9.8,1.9,1.9,0,0,1,1.4,1.7,1.5,1.5,0,0,1-1.7,1.6,2.2,2.2,0,0,1-1.7-.7Z" transform="translate(-13.4 -11.1)"/><path class="cls-3" d="M321.2,190.1H323a1.7,1.7,0,0,1,0,3.3h-0.9v2h-0.9v-5.3Zm1.7,0.8h-0.8v1.8h0.8A0.9,0.9,0,0,0,322.9,190.9Z" transform="translate(-13.4 -11.1)"/><path class="cls-3" d="M327.1,190c1.3,0,2.1,1.2,2.1,2.8s-0.8,2.8-2.1,2.8-2.1-1.2-2.1-2.8S325.8,190,327.1,190Zm0,0.8c-0.8,0-1.2.9-1.2,2s0.4,2,1.2,2,1.2-.9,1.2-2S327.8,190.8,327.1,190.8Z" transform="translate(-13.4 -11.1)"/><path class="cls-3" d="M330.8,192v3.4h-0.9v-5.3h0.9l1.9,3.4v-3.4h0.9v5.3h-0.8Z" transform="translate(-13.4 -11.1)"/><path class="cls-3" d="M334.6,194.2a1.6,1.6,0,0,0,1.2.6,0.7,0.7,0,0,0,.8-0.7,1.2,1.2,0,0,0-.9-0.9,1.8,1.8,0,0,1-1.4-1.6A1.5,1.5,0,0,1,336,190a2.1,2.1,0,0,1,1.5.6l-0.4.7a1.5,1.5,0,0,0-1.1-.5,0.6,0.6,0,0,0-.7.6,1.1,1.1,0,0,0,.9.8,1.9,1.9,0,0,1,1.4,1.7,1.5,1.5,0,0,1-1.7,1.6,2.2,2.2,0,0,1-1.7-.7Z" transform="translate(-13.4 -11.1)"/><path class="cls-3" d="M340.7,194.4H339l-0.3,1.1h-0.9l1.5-5.3h1l1.5,5.3H341Zm-1.5-.8h1.3l-0.7-2.6Z" transform="translate(-13.4 -11.1)"/><path class="cls-3" d="M341.7,190.1h0.9l1.1,4.3,1.1-4.3h0.9l-1.5,5.3h-1Z" transform="translate(-13.4 -11.1)"/><path class="cls-3" d="M346.3,190.1h2.8v0.8h-2v1.4h1.9v0.8h-1.9v1.5h2v0.8h-2.8v-5.3Z" transform="translate(-13.4 -11.1)"/><path class="cls-3" d="M350,190.1h0.9v4.5h1.8v0.8H350v-5.3Z" transform="translate(-13.4 -11.1)"/><path class="cls-3" d="M318.8,198.1h1.5c1.4,0,2.2,1.1,2.2,2.7s-0.8,2.7-2.2,2.7h-1.5v-5.3Zm1.5,4.5c0.8,0,1.3-.8,1.3-1.9s-0.4-1.9-1.3-1.9h-0.7v3.8h0.7Z" transform="translate(-13.4 -11.1)"/><path class="cls-3" d="M323.3,198.1h2.8v0.8h-2v1.4h1.9v0.8h-1.9v1.5h2v0.8h-2.8v-5.3Z" transform="translate(-13.4 -11.1)"/><path class="cls-3" d="M330.5,198c1.3,0,2.1,1.2,2.1,2.8s-0.8,2.8-2.1,2.8-2.1-1.2-2.1-2.8S329.2,198,330.5,198Zm0,0.8c-0.8,0-1.2.9-1.2,2s0.4,2,1.2,2,1.2-.9,1.2-2S331.3,198.8,330.5,198.8Z" transform="translate(-13.4 -11.1)"/><path class="cls-3" d="M333.4,198.1h2a1.3,1.3,0,0,1,1.3,1.4,1.2,1.2,0,0,1-.8,1.2,1.3,1.3,0,0,1,.9,1.3,1.3,1.3,0,0,1-1.4,1.4h-2v-5.3Zm1.8,2.2a0.6,0.6,0,0,0,.6-0.7,0.6,0.6,0,0,0-.6-0.7h-0.9v1.4h0.9Zm0,2.3a0.7,0.7,0,0,0,.7-0.8,0.7,0.7,0,0,0-.7-0.8h-0.9v1.5h0.9Z" transform="translate(-13.4 -11.1)"/><path class="cls-3" d="M339.1,201.4h-0.6v2h-0.9v-5.3h1.8a1.5,1.5,0,0,1,1.5,1.6,1.4,1.4,0,0,1-1,1.5l1,2.2h-1Zm0.2-2.5h-0.8v1.8h0.8A0.9,0.9,0,0,0,339.2,198.9Z" transform="translate(-13.4 -11.1)"/><path class="cls-3" d="M344.1,202.4h-1.7l-0.3,1.1h-0.9l1.5-5.3h1l1.5,5.3h-0.9Zm-1.5-.8h1.3l-0.7-2.6Z" transform="translate(-13.4 -11.1)"/><path class="cls-3" d="M236.7,263h-1.2v-0.8h3.2V263h-1.2v4.6h-0.9V263Z" transform="translate(-13.4 -11.1)"/><path class="cls-3" d="M240.9,265.5h-0.6v2h-0.9v-5.3h1.8a1.5,1.5,0,0,1,1.5,1.6,1.4,1.4,0,0,1-1,1.5l1,2.2h-1Zm0.2-2.5h-0.8v1.8h0.8A0.9,0.9,0,0,0,241.1,263Z" transform="translate(-13.4 -11.1)"/><path class="cls-3" d="M246,266.5h-1.7l-0.3,1.1h-0.9l1.5-5.3h1l1.5,5.3h-0.9Zm-1.5-.8h1.3l-0.7-2.6Z" transform="translate(-13.4 -11.1)"/><path class="cls-3" d="M247.7,262.2h2a1.3,1.3,0,0,1,1.3,1.4,1.2,1.2,0,0,1-.8,1.2,1.3,1.3,0,0,1,.9,1.3,1.3,1.3,0,0,1-1.4,1.4h-2v-5.3Zm1.8,2.2a0.6,0.6,0,0,0,.6-0.7,0.6,0.6,0,0,0-.6-0.7h-0.9v1.4h0.9Zm0,2.3a0.7,0.7,0,0,0,.7-0.8,0.7,0.7,0,0,0-.7-0.8h-0.9v1.5h0.9Z" transform="translate(-13.4 -11.1)"/><path class="cls-3" d="M254.3,266.5h-1.7l-0.3,1.1h-0.9l1.5-5.3h1l1.5,5.3h-0.9Zm-1.5-.8h1.3l-0.7-2.6Z" transform="translate(-13.4 -11.1)"/><path class="cls-3" d="M256,262.2h0.9v4.5h1.8v0.8H256v-5.3Z" transform="translate(-13.4 -11.1)"/><path class="cls-3" d="M262.1,265.2h-1.9v2.4h-0.9v-5.3h0.9v2.2h1.9v-2.2H263v5.3h-0.9v-2.4Z" transform="translate(-13.4 -11.1)"/><path class="cls-3" d="M266.4,266.5h-1.7l-0.3,1.1h-0.9l1.5-5.3h1l1.5,5.3h-0.9Zm-1.5-.8h1.3l-0.7-2.6Z" transform="translate(-13.4 -11.1)"/><path class="cls-3" d="M268.2,262.2h1.5c1.4,0,2.2,1.1,2.2,2.7s-0.8,2.7-2.2,2.7h-1.5v-5.3Zm1.5,4.5c0.8,0,1.3-.8,1.3-1.9s-0.4-1.9-1.3-1.9H269v3.8h0.7Z" transform="translate(-13.4 -11.1)"/><path class="cls-3" d="M274.5,262.1c1.3,0,2.1,1.2,2.1,2.8s-0.8,2.8-2.1,2.8-2.1-1.2-2.1-2.8S273.2,262.1,274.5,262.1Zm0,0.8c-0.8,0-1.2.9-1.2,2s0.4,2,1.2,2,1.2-.9,1.2-2S275.3,262.9,274.5,262.9Z" transform="translate(-13.4 -11.1)"/><path class="cls-3" d="M278.9,265.5h-0.6v2h-0.9v-5.3h1.8a1.5,1.5,0,0,1,1.5,1.6,1.4,1.4,0,0,1-1,1.5l1,2.2h-1Zm0.2-2.5h-0.8v1.8h0.8A0.9,0.9,0,0,0,279.1,263Z" transform="translate(-13.4 -11.1)"/><path class="cls-3" d="M281.6,262.2h2.8V263h-2v1.4h1.9v0.8h-1.9v1.5h2v0.8h-2.8v-5.3Z" transform="translate(-13.4 -11.1)"/><path class="cls-3" d="M285.3,266.3a1.6,1.6,0,0,0,1.2.6,0.7,0.7,0,0,0,.8-0.7,1.2,1.2,0,0,0-.9-0.9,1.8,1.8,0,0,1-1.4-1.6,1.5,1.5,0,0,1,1.6-1.5,2.1,2.1,0,0,1,1.5.6l-0.4.7a1.5,1.5,0,0,0-1.1-.5,0.6,0.6,0,0,0-.7.6,1.1,1.1,0,0,0,.9.8,1.9,1.9,0,0,1,1.4,1.7,1.5,1.5,0,0,1-1.7,1.6,2.2,2.2,0,0,1-1.7-.7Z" transform="translate(-13.4 -11.1)"/><path class="cls-3" d="M290.6,262.2h1.5c1.4,0,2.2,1.1,2.2,2.7s-0.8,2.7-2.2,2.7h-1.5v-5.3Zm1.5,4.5c0.8,0,1.3-.8,1.3-1.9s-0.4-1.9-1.3-1.9h-0.7v3.8h0.7Z" transform="translate(-13.4 -11.1)"/><path class="cls-3" d="M295.1,262.2H298V263h-2v1.4h1.9v0.8H296v1.5h2v0.8h-2.8v-5.3Z" transform="translate(-13.4 -11.1)"/><path class="cls-3" d="M302.3,262.1c1.3,0,2.1,1.2,2.1,2.8s-0.8,2.8-2.1,2.8-2.1-1.2-2.1-2.8S301,262.1,302.3,262.1Zm0,0.8c-0.8,0-1.2.9-1.2,2s0.4,2,1.2,2,1.2-.9,1.2-2S303.1,262.9,302.3,262.9Z" transform="translate(-13.4 -11.1)"/><path class="cls-3" d="M305.2,262.2h2a1.3,1.3,0,0,1,1.3,1.4,1.2,1.2,0,0,1-.8,1.2,1.3,1.3,0,0,1,.9,1.3,1.3,1.3,0,0,1-1.4,1.4h-2v-5.3Zm1.8,2.2a0.6,0.6,0,0,0,.6-0.7,0.6,0.6,0,0,0-.6-0.7h-0.9v1.4H307Zm0,2.3a0.7,0.7,0,0,0,.7-0.8,0.7,0.7,0,0,0-.7-0.8h-0.9v1.5H307Z" transform="translate(-13.4 -11.1)"/><path class="cls-3" d="M310.9,265.5h-0.6v2h-0.9v-5.3h1.8a1.5,1.5,0,0,1,1.5,1.6,1.4,1.4,0,0,1-1,1.5l1,2.2h-1ZM311,263h-0.8v1.8H311A0.9,0.9,0,0,0,311,263Z" transform="translate(-13.4 -11.1)"/><path class="cls-3" d="M315.9,266.5h-1.7l-0.3,1.1H313l1.5-5.3h1l1.5,5.3h-0.9Zm-1.5-.8h1.3l-0.7-2.6Z" transform="translate(-13.4 -11.1)"/><path class="cls-3" d="M427.3,193.4h-0.6v2h-0.9v-5.3h1.8a1.5,1.5,0,0,1,1.5,1.6,1.4,1.4,0,0,1-1,1.5l1,2.2h-1Zm0.2-2.5h-0.8v1.8h0.8A0.9,0.9,0,0,0,427.5,190.9Z" transform="translate(-13.4 -11.1)"/><path class="cls-3" d="M429.9,190.1h2.8v0.8h-2v1.4h1.9v0.8h-1.9v1.5h2v0.8h-2.8v-5.3Z" transform="translate(-13.4 -11.1)"/><path class="cls-3" d="M433.7,194.2a1.6,1.6,0,0,0,1.2.6,0.7,0.7,0,0,0,.8-0.7,1.2,1.2,0,0,0-.9-0.9,1.8,1.8,0,0,1-1.4-1.6A1.5,1.5,0,0,1,435,190a2.1,2.1,0,0,1,1.5.6l-0.4.7a1.5,1.5,0,0,0-1.1-.5,0.6,0.6,0,0,0-.7.6,1.1,1.1,0,0,0,.9.8,1.9,1.9,0,0,1,1.4,1.7,1.5,1.5,0,0,1-1.7,1.6,2.2,2.2,0,0,1-1.7-.7Z" transform="translate(-13.4 -11.1)"/><path class="cls-3" d="M437.4,190.1h1.8a1.7,1.7,0,0,1,0,3.3h-0.9v2h-0.9v-5.3Zm1.7,0.8h-0.8v1.8H439A0.9,0.9,0,0,0,439,190.9Z" transform="translate(-13.4 -11.1)"/><path class="cls-3" d="M443.2,190c1.3,0,2.1,1.2,2.1,2.8s-0.8,2.8-2.1,2.8-2.1-1.2-2.1-2.8S441.9,190,443.2,190Zm0,0.8c-0.8,0-1.2.9-1.2,2s0.4,2,1.2,2,1.2-.9,1.2-2S444,190.8,443.2,190.8Z" transform="translate(-13.4 -11.1)"/><path class="cls-3" d="M447,192v3.4h-0.9v-5.3H447l1.9,3.4v-3.4h0.9v5.3h-0.8Z" transform="translate(-13.4 -11.1)"/><path class="cls-3" d="M450.8,194.2a1.6,1.6,0,0,0,1.2.6,0.7,0.7,0,0,0,.8-0.7,1.2,1.2,0,0,0-.9-0.9,1.8,1.8,0,0,1-1.4-1.6,1.5,1.5,0,0,1,1.6-1.5,2.1,2.1,0,0,1,1.5.6l-0.4.7a1.5,1.5,0,0,0-1.1-.5,0.6,0.6,0,0,0-.7.6,1.1,1.1,0,0,0,.9.8,1.9,1.9,0,0,1,1.4,1.7,1.5,1.5,0,0,1-1.7,1.6,2.2,2.2,0,0,1-1.7-.7Z" transform="translate(-13.4 -11.1)"/><path class="cls-3" d="M456.8,194.4h-1.7l-0.3,1.1h-0.9l1.5-5.3h1l1.5,5.3h-0.9Zm-1.5-.8h1.3l-0.7-2.6Z" transform="translate(-13.4 -11.1)"/><path class="cls-3" d="M457.8,190.1h0.9l1.1,4.3,1.1-4.3H462l-1.5,5.3h-1Z" transform="translate(-13.4 -11.1)"/><path class="cls-3" d="M462.5,190.1h2.8v0.8h-2v1.4h1.9v0.8h-1.9v1.5h2v0.8h-2.8v-5.3Z" transform="translate(-13.4 -11.1)"/><path class="cls-3" d="M466.1,190.1H467v4.5h1.8v0.8h-2.7v-5.3Z" transform="translate(-13.4 -11.1)"/><path class="cls-3" d="M435,198.1h1.5c1.4,0,2.2,1.1,2.2,2.7s-0.8,2.7-2.2,2.7H435v-5.3Zm1.5,4.5c0.8,0,1.3-.8,1.3-1.9s-0.4-1.9-1.3-1.9h-0.7v3.8h0.7Z" transform="translate(-13.4 -11.1)"/><path class="cls-3" d="M439.5,198.1h2.8v0.8h-2v1.4h1.9v0.8h-1.9v1.5h2v0.8h-2.8v-5.3Z" transform="translate(-13.4 -11.1)"/><path class="cls-3" d="M446.7,198c1.3,0,2.1,1.2,2.1,2.8s-0.8,2.8-2.1,2.8-2.1-1.2-2.1-2.8S445.3,198,446.7,198Zm0,0.8c-0.8,0-1.2.9-1.2,2s0.4,2,1.2,2,1.2-.9,1.2-2S447.4,198.8,446.7,198.8Z" transform="translate(-13.4 -11.1)"/><path class="cls-3" d="M449.5,198.1h2a1.3,1.3,0,0,1,1.3,1.4,1.2,1.2,0,0,1-.8,1.2,1.3,1.3,0,0,1,.9,1.3,1.3,1.3,0,0,1-1.4,1.4h-2v-5.3Zm1.8,2.2a0.6,0.6,0,0,0,.6-0.7,0.6,0.6,0,0,0-.6-0.7h-0.9v1.4h0.9Zm0,2.3a0.7,0.7,0,0,0,.7-0.8,0.7,0.7,0,0,0-.7-0.8h-0.9v1.5h0.9Z" transform="translate(-13.4 -11.1)"/><path class="cls-3" d="M455.2,201.4h-0.6v2h-0.9v-5.3h1.8a1.5,1.5,0,0,1,1.5,1.6,1.4,1.4,0,0,1-1,1.5l1,2.2h-1Zm0.2-2.5h-0.8v1.8h0.8A0.9,0.9,0,0,0,455.4,198.9Z" transform="translate(-13.4 -11.1)"/><path class="cls-3" d="M460.3,202.4h-1.7l-0.3,1.1h-0.9l1.5-5.3h1l1.5,5.3h-0.9Zm-1.5-.8h1.3l-0.7-2.6Z" transform="translate(-13.4 -11.1)"/><path class="cls-3" d="M443.4,59.1h1.5c1.4,0,2.2,1.1,2.2,2.7s-0.8,2.7-2.2,2.7h-1.5V59.1Zm1.5,4.5c0.8,0,1.3-.8,1.3-1.9s-0.4-1.9-1.3-1.9h-0.7v3.8h0.7Z" transform="translate(-13.4 -11.1)"/><path class="cls-3" d="M447.9,59.1h0.9v5.3h-0.9V59.1Z" transform="translate(-13.4 -11.1)"/><path class="cls-3" d="M451.3,62.4h-0.6v2h-0.9V59.1h1.8a1.5,1.5,0,0,1,1.5,1.6,1.4,1.4,0,0,1-1,1.5l1,2.2h-1Zm0.2-2.5h-0.8v1.8h0.8A0.9,0.9,0,0,0,451.4,59.8Z" transform="translate(-13.4 -11.1)"/><path class="cls-3" d="M453.9,59.1h2.8v0.8h-2v1.4h1.9v0.8h-1.9v1.5h2v0.8h-2.8V59.1Z" transform="translate(-13.4 -11.1)"/><path class="cls-3" d="M457.4,61.7c0-1.6.8-2.8,2.1-2.8a1.8,1.8,0,0,1,1.6,1.2l-0.7.3a1,1,0,0,0-.9-0.7c-0.8,0-1.2.8-1.2,2s0.5,2,1.2,2a1,1,0,0,0,.9-0.8l0.7,0.3a1.8,1.8,0,0,1-1.6,1.2C458.2,64.5,457.4,63.3,457.4,61.7Z" transform="translate(-13.4 -11.1)"/><path class="cls-3" d="M462.7,59.8h-1.2V59.1h3.2v0.8h-1.2v4.6h-0.9V59.8Z" transform="translate(-13.4 -11.1)"/><path class="cls-3" d="M467.1,59c1.3,0,2.1,1.2,2.1,2.8s-0.8,2.8-2.1,2.8-2.1-1.2-2.1-2.8S465.8,59,467.1,59Zm0,0.8c-0.8,0-1.2.9-1.2,2s0.4,2,1.2,2,1.2-.9,1.2-2S467.9,59.7,467.1,59.7Z" transform="translate(-13.4 -11.1)"/><path class="cls-3" d="M471.5,62.4h-0.6v2H470V59.1h1.8a1.5,1.5,0,0,1,1.5,1.6,1.4,1.4,0,0,1-1,1.5l1,2.2h-1Zm0.2-2.5h-0.8v1.8h0.8A0.9,0.9,0,0,0,471.6,59.8Z" transform="translate(-13.4 -11.1)"/><path class="cls-3" d="M446.2,67.8H445V67.1h3.2v0.8H447v4.6h-0.9V67.8Z" transform="translate(-13.4 -11.1)"/><path class="cls-3" d="M448.9,67.1h2.8v0.8h-2v1.4h1.9v0.8h-1.9v1.5h2v0.8h-2.8V67.1Zm1-.4,0.9-1.2h0.7l-1,1.2h-0.5Z" transform="translate(-13.4 -11.1)"/><path class="cls-3" d="M452.3,69.7c0-1.6.8-2.8,2.1-2.8a1.8,1.8,0,0,1,1.6,1.2l-0.7.3a1,1,0,0,0-.9-0.7c-0.8,0-1.2.8-1.2,2s0.5,2,1.2,2a1,1,0,0,0,.9-0.8l0.7,0.3a1.8,1.8,0,0,1-1.6,1.2C453.2,72.5,452.3,71.3,452.3,69.7Z" transform="translate(-13.4 -11.1)"/><path class="cls-3" d="M457.6,68.9v3.4h-0.9V67.1h0.9l1.9,3.4V67.1h0.9v5.3h-0.8Z" transform="translate(-13.4 -11.1)"/><path class="cls-3" d="M461.4,67.1h0.9v5.3h-0.9V67.1Z" transform="translate(-13.4 -11.1)"/><path class="cls-3" d="M463,69.7c0-1.6.8-2.8,2.1-2.8a1.8,1.8,0,0,1,1.6,1.2l-0.7.3a1,1,0,0,0-.9-0.7c-0.8,0-1.2.8-1.2,2s0.5,2,1.2,2a1,1,0,0,0,.9-0.8l0.7,0.3a1.8,1.8,0,0,1-1.6,1.2C463.8,72.5,463,71.3,463,69.7Z" transform="translate(-13.4 -11.1)"/><path class="cls-3" d="M469.3,67c1.3,0,2.1,1.2,2.1,2.8s-0.8,2.8-2.1,2.8-2.1-1.2-2.1-2.8S468,67,469.3,67Zm0,0.8c-0.8,0-1.2.9-1.2,2s0.4,2,1.2,2,1.2-.9,1.2-2S470.1,67.7,469.3,67.7Z" transform="translate(-13.4 -11.1)"/><path class="cls-3" d="M279.1,59.1h1.5c1.4,0,2.2,1.1,2.2,2.7s-0.8,2.7-2.2,2.7h-1.5V59.1Zm1.5,4.5c0.8,0,1.3-.8,1.3-1.9s-0.4-1.9-1.3-1.9H280v3.8h0.7Z" transform="translate(-13.4 -11.1)"/><path class="cls-3" d="M283.6,59.1h0.9v5.3h-0.9V59.1Z" transform="translate(-13.4 -11.1)"/><path class="cls-3" d="M287,62.4h-0.6v2h-0.9V59.1h1.8a1.5,1.5,0,0,1,1.5,1.6,1.4,1.4,0,0,1-1,1.5l1,2.2h-1Zm0.2-2.5h-0.8v1.8h0.8A0.9,0.9,0,0,0,287.1,59.8Z" transform="translate(-13.4 -11.1)"/><path class="cls-3" d="M289.6,59.1h2.8v0.8h-2v1.4h1.9v0.8h-1.9v1.5h2v0.8h-2.8V59.1Z" transform="translate(-13.4 -11.1)"/><path class="cls-3" d="M293.1,61.7c0-1.6.8-2.8,2.1-2.8a1.8,1.8,0,0,1,1.6,1.2l-0.7.3a1,1,0,0,0-.9-0.7c-0.8,0-1.2.8-1.2,2s0.5,2,1.2,2a1,1,0,0,0,.9-0.8l0.7,0.3a1.8,1.8,0,0,1-1.6,1.2C293.9,64.5,293.1,63.3,293.1,61.7Z" transform="translate(-13.4 -11.1)"/><path class="cls-3" d="M298.4,59.8h-1.2V59.1h3.2v0.8h-1.2v4.6h-0.9V59.8Z" transform="translate(-13.4 -11.1)"/><path class="cls-3" d="M302.8,59c1.3,0,2.1,1.2,2.1,2.8s-0.8,2.8-2.1,2.8-2.1-1.2-2.1-2.8S301.5,59,302.8,59Zm0,0.8c-0.8,0-1.2.9-1.2,2s0.4,2,1.2,2,1.2-.9,1.2-2S303.6,59.7,302.8,59.7Z" transform="translate(-13.4 -11.1)"/><path class="cls-3" d="M307.2,62.4h-0.6v2h-0.9V59.1h1.8a1.5,1.5,0,0,1,1.5,1.6,1.4,1.4,0,0,1-1,1.5l1,2.2h-1Zm0.2-2.5h-0.8v1.8h0.8A0.9,0.9,0,0,0,307.4,59.8Z" transform="translate(-13.4 -11.1)"/><path class="cls-3" d="M272.1,67.1h1.5c1.4,0,2.2,1.1,2.2,2.7s-0.8,2.7-2.2,2.7h-1.5V67.1Zm1.5,4.5c0.8,0,1.3-.8,1.3-1.9s-0.4-1.9-1.3-1.9h-0.7v3.8h0.7Z" transform="translate(-13.4 -11.1)"/><path class="cls-3" d="M276.6,67.1h2.8v0.8h-2v1.4h1.9v0.8h-1.9v1.5h2v0.8h-2.8V67.1Z" transform="translate(-13.4 -11.1)"/><path class="cls-3" d="M281.9,67.1h1.8a1.7,1.7,0,0,1,0,3.3h-0.9v2h-0.9V67.1Zm1.7,0.8h-0.8v1.8h0.8A0.9,0.9,0,0,0,283.6,67.8Z" transform="translate(-13.4 -11.1)"/><path class="cls-3" d="M287.4,70.4h-0.6v2h-0.9V67.1h1.8a1.5,1.5,0,0,1,1.5,1.6,1.4,1.4,0,0,1-1,1.5l1,2.2h-1Zm0.2-2.5h-0.8v1.8h0.8A0.9,0.9,0,0,0,287.5,67.8Z" transform="translate(-13.4 -11.1)"/><path class="cls-3" d="M291.9,67c1.3,0,2.1,1.2,2.1,2.8s-0.8,2.8-2.1,2.8-2.1-1.2-2.1-2.8S290.6,67,291.9,67Zm0,0.8c-0.8,0-1.2.9-1.2,2s0.4,2,1.2,2,1.2-.9,1.2-2S292.7,67.7,291.9,67.7Z" transform="translate(-13.4 -11.1)"/><path class="cls-3" d="M294.8,67.1h1.5c1.4,0,2.2,1.1,2.2,2.7s-0.8,2.7-2.2,2.7h-1.5V67.1Zm1.5,4.5c0.8,0,1.3-.8,1.3-1.9s-0.4-1.9-1.3-1.9h-0.7v3.8h0.7Z" transform="translate(-13.4 -11.1)"/><path class="cls-3" d="M299.3,67.1h0.9v3.5a0.9,0.9,0,1,0,1.9,0V67.1h0.9v3.5a1.8,1.8,0,1,1-3.6,0V67.1Z" transform="translate(-13.4 -11.1)"/><path class="cls-3" d="M305.9,72.5v0.3H306a0.5,0.5,0,0,1,.5.5,0.7,0.7,0,0,1-.8.7,1.2,1.2,0,0,1-.7-0.2l0.2-.4,0.5,0.2a0.3,0.3,0,0,0,.4-0.3,0.2,0.2,0,0,0-.2-0.2h-0.2l-0.3-.2,0.2-.5c-1.1-.2-1.8-1.3-1.8-2.7s0.8-2.8,2.1-2.8a1.8,1.8,0,0,1,1.6,1.2l-0.7.3a1,1,0,0,0-.9-0.7c-0.8,0-1.2.8-1.2,2s0.5,2,1.2,2a1,1,0,0,0,.9-0.8l0.7,0.3A1.8,1.8,0,0,1,305.9,72.5Z" transform="translate(-13.4 -11.1)"/><path class="cls-3" d="M310.5,71.3h-1.7l-0.3,1.1h-0.9l1.5-5.3h1l1.5,5.3h-0.9ZM309.3,66c-0.1,0-.3.2-0.3,0.6h-0.4a0.9,0.9,0,0,1,.7-1.1,0.6,0.6,0,0,1,.5.4,0.4,0.4,0,0,0,.3.2c0.1,0,.3-0.2.3-0.6h0.4a0.9,0.9,0,0,1-.7,1.1,0.6,0.6,0,0,1-.5-0.4A0.4,0.4,0,0,0,309.3,66ZM309,70.5h1.3L309.7,68Z" transform="translate(-13.4 -11.1)"/><path class="cls-3" d="M314,67c1.3,0,2.1,1.2,2.1,2.8s-0.8,2.8-2.1,2.8-2.1-1.2-2.1-2.8S312.7,67,314,67Zm0,0.8c-0.8,0-1.2.9-1.2,2s0.4,2,1.2,2,1.2-.9,1.2-2S314.7,67.7,314,67.7Z" transform="translate(-13.4 -11.1)"/><line class="cls-4" x1="260.1" y1="20.6" x2="260.1" y2="20.6"/><line class="cls-5" x1="260.1" y1="24.3" x2="260.1" y2="41"/><line class="cls-4" x1="260.1" y1="42.9" x2="260.1" y2="42.9"/><line class="cls-4" x1="319.2" y1="151.1" x2="319.2" y2="151.1"/><line class="cls-6" x1="319.2" y1="147.2" x2="319.2" y2="121.3"/><line class="cls-4" x1="319.2" y1="119.3" x2="319.2" y2="119.3"/><line class="cls-4" x1="319.2" y1="172.4" x2="319.2" y2="172.4"/><line class="cls-7" x1="319.2" y1="168.6" x2="319.2" y2="155.3"/><line class="cls-4" x1="319.2" y1="153.4" x2="319.2" y2="153.4"/><line class="cls-4" x1="435.8" y1="172.4" x2="435.8" y2="172.4"/><line class="cls-7" x1="435.8" y1="168.6" x2="435.8" y2="155.3"/><line class="cls-4" x1="435.8" y1="153.4" x2="435.8" y2="153.4"/><line class="cls-4" x1="203.8" y1="172.4" x2="203.8" y2="172.4"/><line class="cls-7" x1="203.8" y1="168.6" x2="203.8" y2="155.3"/><line class="cls-4" x1="203.8" y1="153.4" x2="203.8" y2="153.4"/><line class="cls-4" x1="82.5" y1="172.4" x2="82.5" y2="172.4"/><line class="cls-7" x1="82.5" y1="168.6" x2="82.5" y2="155.3"/><line class="cls-4" x1="82.5" y1="153.4" x2="82.5" y2="153.4"/><line class="cls-4" x1="82.5" y1="226.6" x2="82.5" y2="226.6"/><line class="cls-8" x1="82.5" y1="222.6" x2="82.5" y2="204.7"/><line class="cls-4" x1="82.5" y1="202.8" x2="82.5" y2="202.8"/><line class="cls-4" x1="203.8" y1="226.8" x2="203.8" y2="226.8"/><line class="cls-9" x1="203.8" y1="222.7" x2="203.8" y2="204.2"/><line class="cls-4" x1="203.8" y1="202.2" x2="203.8" y2="202.2"/><line class="cls-4" x1="319.4" y1="226.8" x2="319.4" y2="226.8"/><line class="cls-10" x1="319.4" y1="222.5" x2="319.4" y2="203.3"/><line class="cls-4" x1="319.4" y1="201.1" x2="319.4" y2="201.1"/><line class="cls-4" x1="434.9" y1="226.8" x2="434.9" y2="226.8"/><line class="cls-11" x1="434.9" y1="223" x2="434.9" y2="202.2"/><line class="cls-4" x1="434.9" y1="200.3" x2="434.9" y2="200.3"/><line class="cls-4" x1="412.5" y1="119.3" x2="412.5" y2="119.3"/><line class="cls-6" x1="412.5" y1="123.3" x2="412.5" y2="149.1"/><line class="cls-4" x1="412.5" y1="151.1" x2="412.5" y2="151.1"/><line class="cls-12" x1="103.7" y1="30.9" x2="452.6" y2="30.9"/><line class="cls-12" x1="82.5" y1="151.1" x2="435.8" y2="151.1"/><line class="cls-12" x1="103.7" y1="40.9" x2="103.7" y2="30.9"/><line class="cls-12" x1="451.8" y1="42.9" x2="451.8" y2="30.9"/><line class="cls-12" x1="446.5" y1="69.8" x2="446.5" y2="83.5"/><line class="cls-12" x1="281.3" y1="69.8" x2="281.3" y2="83.5"/><line class="cls-12" x1="103.7" y1="69.8" x2="103.7" y2="95.5"/><line class="cls-12" x1="32" y1="83.5" x2="102.1" y2="83.5"/><line class="cls-12" x1="107.4" y1="83.5" x2="174.6" y2="83.5"/><line class="cls-12" x1="243.5" y1="83.5" x2="319.2" y2="83.5"/><line class="cls-12" x1="450.4" y1="83.5" x2="480.9" y2="83.5"/><line class="cls-12" x1="412.5" y1="83.5" x2="443.1" y2="83.5"/><line class="cls-12" x1="32" y1="95.5" x2="32" y2="83.5"/><line class="cls-12" x1="175.4" y1="95.5" x2="175.4" y2="83.5"/><line class="cls-12" x1="243.5" y1="95.5" x2="243.5" y2="83.5"/><line class="cls-12" x1="319.2" y1="95.5" x2="319.2" y2="83.5"/><line class="cls-12" x1="411.7" y1="95.5" x2="411.7" y2="83.5"/><line class="cls-12" x1="483.4" y1="95.5" x2="483.4" y2="83.5"/><line class="cls-12" x1="72.9" y1="221.8" x2="82.5" y2="231.4"/><line class="cls-12" x1="82.5" y1="231.4" x2="91.7" y2="222.2"/><line class="cls-12" x1="194.5" y1="221.8" x2="204" y2="231.4"/><line class="cls-12" x1="204" y1="231.4" x2="213.2" y2="222.2"/><line class="cls-12" x1="310" y1="221.8" x2="319.6" y2="231.4"/><line class="cls-12" x1="319.6" y1="231.4" x2="328.8" y2="222.2"/><line class="cls-12" x1="425.5" y1="221.8" x2="435.1" y2="231.4"/><line class="cls-12" x1="435.1" y1="231.4" x2="444.3" y2="222.2"/></svg>