<svg id="Layer_1" data-name="Layer 1" xmlns="http://www.w3.org/2000/svg" viewBox="0 0 280 67"><defs><style>.cls-1{fill:#231f20;}.cls-2{fill:#c1272d;}</style></defs><title>logo01</title><path class="cls-1" d="M1,54c0-7.08,5.36-11.85,12.41-11.85a10.58,10.58,0,0,1,10,6.15l-5.08,2.41a5.5,5.5,0,0,0-4.91-3.33A6.33,6.33,0,0,0,7,54a6.33,6.33,0,0,0,6.39,6.63,5.51,5.51,0,0,0,4.91-3.33l5.08,2.41a10.64,10.64,0,0,1-10,6.15C6.36,65.86,1,61.05,1,54Z"/><path class="cls-1" d="M26.08,54c0-7,5.26-11.85,12.27-11.85S50.58,47,50.58,54,45.36,65.86,38.35,65.86,26.08,61,26.08,54Zm18.49,0c0-3.75-2.44-6.63-6.22-6.63S32.1,50.26,32.1,54s2.44,6.63,6.25,6.63S44.57,57.72,44.57,54Z"/><path class="cls-1" d="M71.17,65.45L61.48,52.19V65.45H55.57V42.53h6.08l9.28,12.61V42.53h5.95V65.45h-5.7Z"/><path class="cls-1" d="M83.05,62.22l3.13-4.43a10.36,10.36,0,0,0,7.32,3c2,0,3.26-.79,3.26-1.89s-1.72-1.58-3.92-2c-3.78-.76-9.07-1.79-9.07-7.42,0-3.85,3.26-7.29,9.14-7.29a14,14,0,0,1,9.31,3.2L99,49.61a10.79,10.79,0,0,0-6.7-2.37c-1.72,0-2.47.69-2.47,1.65s1.75,1.48,4,2c3.78,0.79,9,1.92,9,7.32,0,4.61-3.4,7.66-9.55,7.66C88.59,65.86,85.36,64.42,83.05,62.22Z"/><path class="cls-1" d="M112.4,65.45V47.68H106V42.53H124.7v5.15h-6.39V65.45H112.4Z"/><path class="cls-1" d="M142.64,65.45l-3.85-7.7h-3v7.7h-5.91V42.53h11.48c5.08,0,8,3.37,8,7.63A6.94,6.94,0,0,1,144.73,57l4.67,8.42h-6.77Zm0.65-15.33c0-1.55-1.31-2.44-2.85-2.44h-4.67V52.6h4.67C142,52.6,143.29,51.74,143.29,50.12Z"/><path class="cls-1" d="M155.25,56.17V42.53h6V56c0,2.71,1.62,4.67,4.85,4.67s4.81-2,4.81-4.67V42.53h6V56.14c0,5.7-3.47,9.72-10.79,9.72S155.25,61.81,155.25,56.17Z"/><path class="cls-1" d="M187.44,65.45V47.68H181V42.53h18.73v5.15h-6.39V65.45h-5.91Z"/><path class="cls-1" d="M201.67,54c0-7,5.26-11.85,12.27-11.85S226.17,47,226.17,54s-5.22,11.85-12.23,11.85S201.67,61,201.67,54Zm18.49,0c0-3.75-2.44-6.63-6.22-6.63s-6.25,2.89-6.25,6.63,2.44,6.63,6.25,6.63S220.16,57.72,220.16,54Z"/><path class="cls-1" d="M244.28,65.45l-3.85-7.7h-3v7.7H231.5V42.53H243c5.09,0,8,3.37,8,7.63A6.94,6.94,0,0,1,246.37,57L251,65.45h-6.77Zm0.65-15.33c0-1.55-1.31-2.44-2.85-2.44h-4.67V52.6h4.67C243.63,52.6,244.93,51.74,244.93,50.12Z"/><path class="cls-1" d="M272.11,65.45L271,62.15h-9l-1.13,3.3h-6.7l8.62-22.92h7.42l8.66,22.92h-6.7Zm-5.67-17.08L263.52,57h5.84Z"/><path class="cls-2" d="M22.94,1.37H40.48V6.57a10.91,10.91,0,0,0-1.87.1,5,5,0,0,0-1.55.68L29.65,12l9.21,9.77a7.16,7.16,0,0,0,1.81,1.45,2.4,2.4,0,0,0,1.15.36h0.28V28.8H22.94V23.59H23.2a1.44,1.44,0,0,0,.68-0.14,1,1,0,0,0,.54-0.92,2.16,2.16,0,0,0-.76-1.25l-3.2-3.52-3,1.95V20.2A4.19,4.19,0,0,0,18,22.67a2.5,2.5,0,0,0,2.07.9h0.4V28.8H2.16V23.57h0.4a2.5,2.5,0,0,0,2.07-.9,4.18,4.18,0,0,0,.54-2.47V9.95A4.08,4.08,0,0,0,4.63,7.5a2.47,2.47,0,0,0-2.07-.92H2.16V1.37H20.46V6.57h-0.4A2.47,2.47,0,0,0,18,7.5a4.09,4.09,0,0,0-.54,2.45V12.3L23.2,8.56a7.15,7.15,0,0,0,1.19-.88,0.7,0.7,0,0,0,.1-0.38q0-.7-1.55-0.7V1.37Z"/><path class="cls-2" d="M62.83,23.57V28.8H44.66V23.57h0.4a2.5,2.5,0,0,0,2.07-.9,4.13,4.13,0,0,0,.54-2.45V9.95a4.08,4.08,0,0,0-.54-2.45,2.47,2.47,0,0,0-2.07-.92h-0.4V1.37H62.83V6.57h-0.4a2.44,2.44,0,0,0-2.07.92,4.14,4.14,0,0,0-.54,2.45V20.22a4.14,4.14,0,0,0,.54,2.45,2.46,2.46,0,0,0,2.07.9h0.4Z"/><path class="cls-2" d="M84.16,1.37l10.59,15.8V9.95a4.08,4.08,0,0,0-.54-2.45,2.47,2.47,0,0,0-2.07-.92h-0.4V1.37h14.83V6.57h-0.4a2.47,2.47,0,0,0-2.07.92,4.08,4.08,0,0,0-.54,2.45V28.8H89.65L79.2,13l0,7.22a4.38,4.38,0,0,0,.42,2.29,2.45,2.45,0,0,0,2.17,1.06h0.42V28.8H67.32V23.57h0.4a2.5,2.5,0,0,0,2.07-.9,4.14,4.14,0,0,0,.54-2.45V9.95a4.09,4.09,0,0,0-.54-2.45,2.47,2.47,0,0,0-2.07-.92h-0.4V1.37H84.16Z"/><path class="cls-2" d="M143.63,12.06h-9.83V11.29A4.3,4.3,0,0,0,132.48,8a5.39,5.39,0,0,0-3.86-1.45,4.74,4.74,0,0,0-3.86,1.59,6.19,6.19,0,0,0-1.15,2.19,15.18,15.18,0,0,0-.64,4.42q0,5.69,2.77,7.32a5.13,5.13,0,0,0,2.61.72,4.49,4.49,0,0,0,2.55-.72,2.3,2.3,0,0,0,1.13-2,1.85,1.85,0,0,0-.76-1.55,2.5,2.5,0,0,0-1.51-.32h-0.6V13.73h17.14v4.54a2.76,2.76,0,0,0-2,.56,1.92,1.92,0,0,0-.66,1,10,10,0,0,0-.06,1.51V28.8h-5.37V28.52q0-1.39-1-1.39a5.47,5.47,0,0,0-1.59.38A45.59,45.59,0,0,1,130.85,29a22.32,22.32,0,0,1-4.54.46A24.81,24.81,0,0,1,117.79,28a14.12,14.12,0,0,1-6.65-4.56,13.21,13.21,0,0,1-2.75-8.32,12.89,12.89,0,0,1,2.27-7.46,15.39,15.39,0,0,1,7.64-5.61A25.72,25.72,0,0,1,133,1.49l2.39,0.72a5.81,5.81,0,0,0,1.55.34,1.14,1.14,0,0,0,.92-0.36,2,2,0,0,0,.3-0.82h5.47V12.06Z"/><path class="cls-1" d="M167.43,1.37l4.84,12.82,4.9-12.82h19.07V6.57h-0.4a2.44,2.44,0,0,0-2.07.92,4.14,4.14,0,0,0-.54,2.45V20.22a4.13,4.13,0,0,0,.54,2.45,2.46,2.46,0,0,0,2.07.9h0.4V28.8H178.83V23.57h0.4a2.47,2.47,0,0,0,2-.9,4.08,4.08,0,0,0,.54-2.45V9.29L174.64,28.8h-6.89l-7-18.61v10a4.13,4.13,0,0,0,.54,2.45,2.44,2.44,0,0,0,2,.9h0.4V28.8H149.44V23.57h0.4a2.5,2.5,0,0,0,2.07-.9,4.13,4.13,0,0,0,.54-2.45V9.95a4.08,4.08,0,0,0-.54-2.45,2.47,2.47,0,0,0-2.07-.92h-0.4V1.37h18Z"/><path class="cls-1" d="M223.76,1.37l8.54,19.19a5.48,5.48,0,0,0,2.07,2.79,5.51,5.51,0,0,0,2,.22V28.8H217.23V23.57h1a2.8,2.8,0,0,0,1.31-.3,1.24,1.24,0,0,0,.8-1.17,3.35,3.35,0,0,0-.46-1.55h-8.28a6.36,6.36,0,0,0-.36,1.49,1.67,1.67,0,0,0,.36,1.13,2,2,0,0,0,1.47.4h1.17V28.8H198.32V23.57a5.84,5.84,0,0,0,1.67-.14A4.05,4.05,0,0,0,202.34,21L211,1.37h12.78ZM213.27,16.18h5l-2.51-6.23Z"/><path class="cls-1" d="M255.28,1.37l10.59,15.8V9.95a4.08,4.08,0,0,0-.54-2.45,2.47,2.47,0,0,0-2.07-.92h-0.4V1.37h14.83V6.57h-0.4a2.47,2.47,0,0,0-2.07.92,4.08,4.08,0,0,0-.54,2.45V28.8H260.76L250.31,13l0,7.22a4.38,4.38,0,0,0,.42,2.29,2.45,2.45,0,0,0,2.17,1.06h0.42V28.8H238.43V23.57h0.4a2.5,2.5,0,0,0,2.07-.9,4.13,4.13,0,0,0,.54-2.45V9.95a4.08,4.08,0,0,0-.54-2.45,2.47,2.47,0,0,0-2.07-.92h-0.4V1.37h16.84Z"/></svg>